<svg xmlns="http://www.w3.org/2000/svg" width="1600" height="900" viewBox="0 0 1600 900">
<defs>
  <filter id="shadow" x="-20%" y="-20%" width="140%" height="140%"><feDropShadow dx="0" dy="6" stdDeviation="9" flood-color="#0F172A" flood-opacity="0.09"/></filter>
  <filter id="soft" x="-20%" y="-20%" width="140%" height="140%"><feDropShadow dx="0" dy="3" stdDeviation="5" flood-color="#0F172A" flood-opacity="0.07"/></filter>
  <marker id="arrow" markerWidth="10" markerHeight="10" refX="8" refY="3" orient="auto" markerUnits="strokeWidth"><path d="M0,0 L0,6 L9,3 z" fill="#64748B"/></marker>
  <marker id="arrowBlue" markerWidth="10" markerHeight="10" refX="8" refY="3" orient="auto" markerUnits="strokeWidth"><path d="M0,0 L0,6 L9,3 z" fill="#2563EB"/></marker>
  <marker id="arrowRose" markerWidth="10" markerHeight="10" refX="8" refY="3" orient="auto" markerUnits="strokeWidth"><path d="M0,0 L0,6 L9,3 z" fill="#E11D48"/></marker>
  <linearGradient id="head" x1="0" x2="1"><stop offset="0" stop-color="#0F172A"/><stop offset="0.62" stop-color="#172554"/><stop offset="1" stop-color="#0C4A6E"/></linearGradient>
  <linearGradient id="page" x1="0" y1="0" x2="0" y2="1"><stop offset="0" stop-color="#FBFDFF"/><stop offset="1" stop-color="#F4F7FB"/></linearGradient>
</defs>
<rect width="1600" height="900" fill="url(#page)"/>
<rect x="0" y="0" width="1600" height="116" fill="url(#head)"/>
<text x="54" y="55" font-family="'Noto Sans CJK SC', 'Inter', sans-serif" font-size="34" font-weight="750" fill="#FFFFFF">Grok Build 源码分层与控制 / 执行边界</text>
<text x="56" y="88" font-family="'Noto Sans CJK SC', 'Inter', sans-serif" font-size="16" fill="#C7D2FE">基于官方开源仓库：入口、Agent 控制面、工具中介层、Workspace 执行面与横切基础设施</text>
<rect x="1450" y="30" width="96" height="48" rx="24" fill="#FFFFFF" fill-opacity="0.12" stroke="#FFFFFF" stroke-opacity="0.25"/>
<text x="1498" y="62" text-anchor="middle" font-family="'Noto Sans CJK SC', 'Inter', sans-serif" font-size="18" font-weight="700" fill="#FFFFFF">01/06</text>
<rect x="48" y="142" width="305" height="42" rx="13" fill="#2563EB" fill-opacity="1"/><text x="66" y="170" text-anchor="start" font-family="'Noto Sans CJK SC', 'Inter', sans-serif" font-size="16" font-weight="700" fill="#FFFFFF">交互与入口层</text><rect x="48" y="194" width="305" height="116" rx="16" fill="#FFFFFF" fill-opacity="1" stroke="#2563EB" stroke-width="1.4" filter="url(#shadow)"/><rect x="48" y="194" width="8" height="116" rx="8" fill="#2563EB" fill-opacity="1"/><text x="72" y="228" text-anchor="start" font-family="'Noto Sans CJK SC', 'Inter', sans-serif" font-size="19" font-weight="720" fill="#0F172A">xai-grok-pager-bin</text><rect x="235" y="209" width="98" height="30" rx="15" fill="#DBEAFE" fill-opacity="1"/><text x="284.0" y="230" text-anchor="middle" font-family="'Noto Sans CJK SC', 'Inter', sans-serif" font-size="13" font-weight="650" fill="#2563EB">BIN</text><text x="72" y="257" text-anchor="start" font-family="'Noto Sans CJK SC', 'Inter', sans-serif" font-size="14" font-weight="450" fill="#526077"><tspan x="72" dy="0">Composition Root</tspan><tspan x="72" dy="22">组装 TUI、Shell、配置与运行时</tspan></text><rect x="48" y="326" width="305" height="126" rx="16" fill="#FFFFFF" fill-opacity="1" stroke="#0891B2" stroke-width="1.4" filter="url(#shadow)"/><rect x="48" y="326" width="8" height="126" rx="8" fill="#0891B2" fill-opacity="1"/><text x="72" y="360" text-anchor="start" font-family="'Noto Sans CJK SC', 'Inter', sans-serif" font-size="19" font-weight="720" fill="#0F172A">xai-grok-pager</text><rect x="235" y="341" width="98" height="30" rx="15" fill="#CFFAFE" fill-opacity="1"/><text x="284.0" y="362" text-anchor="middle" font-family="'Noto Sans CJK SC', 'Inter', sans-serif" font-size="13" font-weight="650" fill="#0891B2">UI</text><text x="72" y="389" text-anchor="start" font-family="'Noto Sans CJK SC', 'Inter', sans-serif" font-size="14" font-weight="450" fill="#526077"><tspan x="72" dy="0">全屏 TUI / 输入 / 渲染</tspan><tspan x="72" dy="22">滚动区、Prompt、Modal、快捷键</tspan></text><rect x="48" y="468" width="305" height="142" rx="16" fill="#FFFFFF" fill-opacity="1" stroke="#7C3AED" stroke-width="1.4" filter="url(#shadow)"/><rect x="48" y="468" width="8" height="142" rx="8" fill="#7C3AED" fill-opacity="1"/><text x="72" y="502" text-anchor="start" font-family="'Noto Sans CJK SC', 'Inter', sans-serif" font-size="19" font-weight="720" fill="#0F172A">xai-grok-shell</text><rect x="235" y="483" width="98" height="30" rx="15" fill="#EDE9FE" fill-opacity="1"/><text x="284.0" y="504" text-anchor="middle" font-family="'Noto Sans CJK SC', 'Inter', sans-serif" font-size="13" font-weight="650" fill="#7C3AED">RUNTIME</text><text x="72" y="531" text-anchor="start" font-family="'Noto Sans CJK SC', 'Inter', sans-serif" font-size="14" font-weight="450" fill="#526077"><tspan x="72" dy="0">Turn Loop 与会话运行时</tspan><tspan x="72" dy="22">Interactive / Headless / Stdio</tspan><tspan x="72" dy="22">ACP 嵌入入口</tspan></text><rect x="65" y="632" width="82" height="30" rx="15" fill="#DBEAFE" fill-opacity="1"/><text x="106.0" y="653" text-anchor="middle" font-family="'Noto Sans CJK SC', 'Inter', sans-serif" font-size="13" font-weight="650" fill="#2563EB">交互式</text><rect x="157" y="632" width="82" height="30" rx="15" fill="#EDE9FE" fill-opacity="1"/><text x="198.0" y="653" text-anchor="middle" font-family="'Noto Sans CJK SC', 'Inter', sans-serif" font-size="13" font-weight="650" fill="#7C3AED">Headless</text><rect x="249" y="632" width="82" height="30" rx="15" fill="#CFFAFE" fill-opacity="1"/><text x="290.0" y="653" text-anchor="middle" font-family="'Noto Sans CJK SC', 'Inter', sans-serif" font-size="13" font-weight="650" fill="#0891B2">ACP</text><rect x="390" y="142" width="480" height="42" rx="13" fill="#7C3AED" fill-opacity="1"/><text x="408" y="170" text-anchor="start" font-family="'Noto Sans CJK SC', 'Inter', sans-serif" font-size="16" font-weight="700" fill="#FFFFFF">Agent 控制面</text><rect x="390" y="194" width="225" height="132" rx="16" fill="#FFFFFF" fill-opacity="1" stroke="#7C3AED" stroke-width="1.4" filter="url(#shadow)"/><rect x="390" y="194" width="8" height="132" rx="8" fill="#7C3AED" fill-opacity="1"/><text x="414" y="228" text-anchor="start" font-family="'Noto Sans CJK SC', 'Inter', sans-serif" font-size="19" font-weight="720" fill="#0F172A">xai-grok-agent</text><rect x="497" y="209" width="98" height="30" rx="15" fill="#EDE9FE" fill-opacity="1"/><text x="546.0" y="230" text-anchor="middle" font-family="'Noto Sans CJK SC', 'Inter', sans-serif" font-size="13" font-weight="650" fill="#7C3AED">BUILD</text><text x="414" y="257" text-anchor="start" font-family="'Noto Sans CJK SC', 'Inter', sans-serif" font-size="14" font-weight="450" fill="#526077"><tspan x="414" dy="0">AgentDefinition</tspan><tspan x="414" dy="22">Discovery + AgentBuilder</tspan><tspan x="414" dy="22">Prompt / Policy / Model</tspan></text><rect x="635" y="194" width="235" height="132" rx="16" fill="#FFFFFF" fill-opacity="1" stroke="#2563EB" stroke-width="1.4" filter="url(#shadow)"/><rect x="635" y="194" width="8" height="132" rx="8" fill="#2563EB" fill-opacity="1"/><text x="659" y="228" text-anchor="start" font-family="'Noto Sans CJK SC', 'Inter', sans-serif" font-size="19" font-weight="720" fill="#0F172A">xai-chat-state</text><rect x="752" y="209" width="98" height="30" rx="15" fill="#DBEAFE" fill-opacity="1"/><text x="801.0" y="230" text-anchor="middle" font-family="'Noto Sans CJK SC', 'Inter', sans-serif" font-size="13" font-weight="650" fill="#2563EB">STATE</text><text x="659" y="257" text-anchor="start" font-family="'Noto Sans CJK SC', 'Inter', sans-serif" font-size="14" font-weight="450" fill="#526077"><tspan x="659" dy="0">独立 Tokio Actor</tspan><tspan x="659" dy="22">Conversation / Usage</tspan><tspan x="659" dy="22">Request Builder / Snapshot</tspan></text><rect x="390" y="346" width="225" height="126" rx="16" fill="#FFFFFF" fill-opacity="1" stroke="#059669" stroke-width="1.4" filter="url(#shadow)"/><rect x="390" y="346" width="8" height="126" rx="8" fill="#059669" fill-opacity="1"/><text x="414" y="380" text-anchor="start" font-family="'Noto Sans CJK SC', 'Inter', sans-serif" font-size="19" font-weight="720" fill="#0F172A">xai-agent-lifecycle</text><rect x="497" y="361" width="98" height="30" rx="15" fill="#D1FAE5" fill-opacity="1"/><text x="546.0" y="382" text-anchor="middle" font-family="'Noto Sans CJK SC', 'Inter', sans-serif" font-size="13" font-weight="650" fill="#059669">HOOKS</text><text x="414" y="409" text-anchor="start" font-family="'Noto Sans CJK SC', 'Inter', sans-serif" font-size="14" font-weight="450" fill="#526077"><tspan x="414" dy="0">Turn / Session / Command</tspan><tspan x="414" dy="22">Send 与 Local Registry</tspan><tspan x="414" dy="22">Contributor 不拥有循环控制</tspan></text><rect x="635" y="346" width="235" height="126" rx="16" fill="#FFFFFF" fill-opacity="1" stroke="#EA580C" stroke-width="1.4" filter="url(#shadow)"/><rect x="635" y="346" width="8" height="126" rx="8" fill="#EA580C" fill-opacity="1"/><text x="659" y="380" text-anchor="start" font-family="'Noto Sans CJK SC', 'Inter', sans-serif" font-size="19" font-weight="720" fill="#0F172A">Compaction &amp; Reminder</text><rect x="752" y="361" width="98" height="30" rx="15" fill="#FFEDD5" fill-opacity="1"/><text x="801.0" y="382" text-anchor="middle" font-family="'Noto Sans CJK SC', 'Inter', sans-serif" font-size="13" font-weight="650" fill="#EA580C">POLICY</text><text x="659" y="409" text-anchor="start" font-family="'Noto Sans CJK SC', 'Inter', sans-serif" font-size="14" font-weight="450" fill="#526077"><tspan x="659" dy="0">摘要 / Transcript / Segments</tspan><tspan x="659" dy="22">System reminder policy</tspan><tspan x="659" dy="22">完成条件与恢复策略</tspan></text><rect x="390" y="500" width="480" height="42" rx="13" fill="#EA580C" fill-opacity="1"/><text x="408" y="528" text-anchor="start" font-family="'Noto Sans CJK SC', 'Inter', sans-serif" font-size="16" font-weight="700" fill="#FFFFFF">工具中介层</text><rect x="390" y="552" width="225" height="132" rx="16" fill="#FFFFFF" fill-opacity="1" stroke="#EA580C" stroke-width="1.4" filter="url(#shadow)"/><rect x="390" y="552" width="8" height="132" rx="8" fill="#EA580C" fill-opacity="1"/><text x="414" y="586" text-anchor="start" font-family="'Noto Sans CJK SC', 'Inter', sans-serif" font-size="19" font-weight="720" fill="#0F172A">ToolBridge</text><rect x="497" y="567" width="98" height="30" rx="15" fill="#FFEDD5" fill-opacity="1"/><text x="546.0" y="588" text-anchor="middle" font-family="'Noto Sans CJK SC', 'Inter', sans-serif" font-size="13" font-weight="650" fill="#EA580C">BRIDGE</text><text x="414" y="615" text-anchor="start" font-family="'Noto Sans CJK SC', 'Inter', sans-serif" font-size="14" font-weight="450" fill="#526077"><tspan x="414" dy="0">ToolRegistry 适配器</tspan><tspan x="414" dy="22">解析、调度、结果整形</tspan><tspan x="414" dy="22">动态工具定义 / MCP</tspan></text><rect x="635" y="552" width="235" height="132" rx="16" fill="#FFFFFF" fill-opacity="1" stroke="#D97706" stroke-width="1.4" filter="url(#shadow)"/><rect x="635" y="552" width="8" height="132" rx="8" fill="#D97706" fill-opacity="1"/><text x="659" y="586" text-anchor="start" font-family="'Noto Sans CJK SC', 'Inter', sans-serif" font-size="19" font-weight="720" fill="#0F172A">FinalizedToolset</text><rect x="752" y="567" width="98" height="30" rx="15" fill="#FEF3C7" fill-opacity="1"/><text x="801.0" y="588" text-anchor="middle" font-family="'Noto Sans CJK SC', 'Inter', sans-serif" font-size="13" font-weight="650" fill="#D97706">TOOLSET</text><text x="659" y="615" text-anchor="start" font-family="'Noto Sans CJK SC', 'Inter', sans-serif" font-size="14" font-weight="450" fill="#526077"><tspan x="659" dy="0">配置过滤后的可执行工具集</tspan><tspan x="659" dy="22">Resources + SessionContext</tspan><tspan x="659" dy="22">行为预设与验证器</tspan></text><rect x="390" y="704" width="480" height="84" rx="14" fill="#EEF2F7" fill-opacity="1" stroke="line" stroke-width="1"/><text x="410" y="734" text-anchor="start" font-family="'Noto Sans CJK SC', 'Inter', sans-serif" font-size="15" font-weight="700" fill="#0F172A">关键边界</text><text x="410" y="759" text-anchor="start" font-family="'Noto Sans CJK SC', 'Inter', sans-serif" font-size="13" font-weight="450" fill="#526077"><tspan x="410" dy="0">模型只看到经 ToolConfig / Capability 过滤后的定义；执行资源不直接暴露给模型。</tspan></text><rect x="910" y="142" width="642" height="42" rx="13" fill="#059669" fill-opacity="1"/><text x="928" y="170" text-anchor="start" font-family="'Noto Sans CJK SC', 'Inter', sans-serif" font-size="16" font-weight="700" fill="#FFFFFF">Workspace 执行面</text><rect x="910" y="194" width="302" height="126" rx="16" fill="#FFFFFF" fill-opacity="1" stroke="#059669" stroke-width="1.4" filter="url(#shadow)"/><rect x="910" y="194" width="8" height="126" rx="8" fill="#059669" fill-opacity="1"/><text x="934" y="228" text-anchor="start" font-family="'Noto Sans CJK SC', 'Inter', sans-serif" font-size="19" font-weight="720" fill="#0F172A">WorkspaceHandle</text><rect x="1094" y="209" width="98" height="30" rx="15" fill="#D1FAE5" fill-opacity="1"/><text x="1143.0" y="230" text-anchor="middle" font-family="'Noto Sans CJK SC', 'Inter', sans-serif" font-size="13" font-weight="650" fill="#059669">HOST</text><text x="934" y="257" text-anchor="start" font-family="'Noto Sans CJK SC', 'Inter', sans-serif" font-size="14" font-weight="450" fill="#526077"><tspan x="934" dy="0">管理 sessions、Hub、MCP / Hub 快照</tspan><tspan x="934" dy="22">事件总线、ActivityTracker、优雅排空</tspan></text><rect x="1230" y="194" width="322" height="126" rx="16" fill="#FFFFFF" fill-opacity="1" stroke="#0891B2" stroke-width="1.4" filter="url(#shadow)"/><rect x="1230" y="194" width="8" height="126" rx="8" fill="#0891B2" fill-opacity="1"/><text x="1254" y="228" text-anchor="start" font-family="'Noto Sans CJK SC', 'Inter', sans-serif" font-size="19" font-weight="720" fill="#0F172A">WorkspaceSession</text><rect x="1434" y="209" width="98" height="30" rx="15" fill="#CFFAFE" fill-opacity="1"/><text x="1483.0" y="230" text-anchor="middle" font-family="'Noto Sans CJK SC', 'Inter', sans-serif" font-size="13" font-weight="650" fill="#0891B2">SESSION</text><text x="1254" y="257" text-anchor="start" font-family="'Noto Sans CJK SC', 'Inter', sans-serif" font-size="14" font-weight="450" fill="#526077"><tspan x="1254" dy="0">独立 CWD / env / capability / depth</tspan><tspan x="1254" dy="22">原子状态：effective config + toolset</tspan><tspan x="1254" dy="22">会话级 Terminal 与 HunkTracker</tspan></text><rect x="910" y="342" width="302" height="132" rx="16" fill="#FFFFFF" fill-opacity="1" stroke="#E11D48" stroke-width="1.4" filter="url(#shadow)"/><rect x="910" y="342" width="8" height="132" rx="8" fill="#E11D48" fill-opacity="1"/><text x="934" y="376" text-anchor="start" font-family="'Noto Sans CJK SC', 'Inter', sans-serif" font-size="19" font-weight="720" fill="#0F172A">Capability &amp; SwapPolicy</text><rect x="1094" y="357" width="98" height="30" rx="15" fill="#FFE4E6" fill-opacity="1"/><text x="1143.0" y="378" text-anchor="middle" font-family="'Noto Sans CJK SC', 'Inter', sans-serif" font-size="13" font-weight="650" fill="#E11D48">GUARD</text><text x="934" y="405" text-anchor="start" font-family="'Noto Sans CJK SC', 'Inter', sans-serif" font-size="14" font-weight="450" fill="#526077"><tspan x="934" dy="0">ReadOnly / ReadWrite / Execute / All</tspan><tspan x="934" dy="22">fork 禁止能力扩大</tspan><tspan x="934" dy="22">工具集热更：Reuse / Defer / Apply</tspan></text><rect x="1230" y="342" width="322" height="132" rx="16" fill="#FFFFFF" fill-opacity="1" stroke="#2563EB" stroke-width="1.4" filter="url(#shadow)"/><rect x="1230" y="342" width="8" height="132" rx="8" fill="#2563EB" fill-opacity="1"/><text x="1254" y="376" text-anchor="start" font-family="'Noto Sans CJK SC', 'Inter', sans-serif" font-size="19" font-weight="720" fill="#0F172A">执行资源</text><rect x="1434" y="357" width="98" height="30" rx="15" fill="#DBEAFE" fill-opacity="1"/><text x="1483.0" y="378" text-anchor="middle" font-family="'Noto Sans CJK SC', 'Inter', sans-serif" font-size="13" font-weight="650" fill="#2563EB">RESOURCES</text><text x="1254" y="405" text-anchor="start" font-family="'Noto Sans CJK SC', 'Inter', sans-serif" font-size="14" font-weight="450" fill="#526077"><tspan x="1254" dy="0">TerminalBackend / AsyncFileSystem</tspan><tspan x="1254" dy="22">VCS / LSP / Memory / Hooks</tspan><tspan x="1254" dy="22">后台任务与通知通道</tspan></text><rect x="910" y="496" width="302" height="132" rx="16" fill="#FFFFFF" fill-opacity="1" stroke="#7C3AED" stroke-width="1.4" filter="url(#shadow)"/><rect x="910" y="496" width="8" height="132" rx="8" fill="#7C3AED" fill-opacity="1"/><text x="934" y="530" text-anchor="start" font-family="'Noto Sans CJK SC', 'Inter', sans-serif" font-size="19" font-weight="720" fill="#0F172A">Checkpoint / Rewind</text><rect x="1094" y="511" width="98" height="30" rx="15" fill="#EDE9FE" fill-opacity="1"/><text x="1143.0" y="532" text-anchor="middle" font-family="'Noto Sans CJK SC', 'Inter', sans-serif" font-size="13" font-weight="650" fill="#7C3AED">RECOVERY</text><text x="934" y="559" text-anchor="start" font-family="'Noto Sans CJK SC', 'Inter', sans-serif" font-size="14" font-weight="450" fill="#526077"><tspan x="934" dy="0">FileStateTracker + HunkTracker</tspan><tspan x="934" dy="22">可选 Git checkpoint</tspan><tspan x="934" dy="22">Durable checkpoint store</tspan></text><rect x="1230" y="496" width="322" height="132" rx="16" fill="#FFFFFF" fill-opacity="1" stroke="#D97706" stroke-width="1.4" filter="url(#shadow)"/><rect x="1230" y="496" width="8" height="132" rx="8" fill="#D97706" fill-opacity="1"/><text x="1254" y="530" text-anchor="start" font-family="'Noto Sans CJK SC', 'Inter', sans-serif" font-size="19" font-weight="720" fill="#0F172A">Codebase Graph</text><rect x="1434" y="511" width="98" height="30" rx="15" fill="#FEF3C7" fill-opacity="1"/><text x="1483.0" y="532" text-anchor="middle" font-family="'Noto Sans CJK SC', 'Inter', sans-serif" font-size="13" font-weight="650" fill="#D97706">INDEX</text><text x="1254" y="559" text-anchor="start" font-family="'Noto Sans CJK SC', 'Inter', sans-serif" font-size="14" font-weight="450" fill="#526077"><tspan x="1254" dy="0">Tree-sitter ScopeGraphIndex</tspan><tspan x="1254" dy="22">IndexManager 增量更新</tspan><tspan x="1254" dy="22">定义 / 引用 / 缓存</tspan></text><rect x="910" y="650" width="642" height="118" rx="16" fill="#FFFFFF" fill-opacity="1" stroke="#0891B2" stroke-width="1.4" filter="url(#shadow)"/><rect x="910" y="650" width="8" height="118" rx="8" fill="#0891B2" fill-opacity="1"/><text x="934" y="684" text-anchor="start" font-family="'Noto Sans CJK SC', 'Inter', sans-serif" font-size="19" font-weight="720" fill="#0F172A">远程连接与协议</text><rect x="1434" y="665" width="98" height="30" rx="15" fill="#CFFAFE" fill-opacity="1"/><text x="1483.0" y="686" text-anchor="middle" font-family="'Noto Sans CJK SC', 'Inter', sans-serif" font-size="13" font-weight="650" fill="#0891B2">BOUNDARY</text><text x="934" y="713" text-anchor="start" font-family="'Noto Sans CJK SC', 'Inter', sans-serif" font-size="14" font-weight="450" fill="#526077"><tspan x="934" dy="0">Computer Hub / ToolServer / ACP Gateway</tspan><tspan x="934" dy="22">Local：同进程执行    Remote：Hub 路由到沙箱 Workspace    Proxy：WorkspaceOps 代理</tspan></text><line x1="353" y1="260" x2="390" y2="260" stroke="#64748B" stroke-width="2" marker-end="url(#arrow)"/><line x1="353" y1="530" x2="390" y2="610" stroke="#64748B" stroke-width="2" marker-end="url(#arrow)"/><line x1="615" y1="260" x2="635" y2="260" stroke="#64748B" stroke-width="2" marker-end="url(#arrow)"/><line x1="752" y1="326" x2="752" y2="346" stroke="#64748B" stroke-width="2" marker-end="url(#arrow)"/><line x1="870" y1="610" x2="910" y2="610" stroke="#EA580C" stroke-width="2" marker-end="url(#arrow)"/><line x1="870" y1="260" x2="910" y2="260" stroke="#2563EB" stroke-width="2" marker-end="url(#arrowBlue)"/><path d="M 870 410 C 900 410, 890 410, 910 410" fill="none" stroke="#64748B" stroke-width="2" marker-end="url(#arrow)"/><line x1="1212" y1="257" x2="1230" y2="257" stroke="#64748B" stroke-width="2" marker-end="url(#arrow)"/><path d="M 1070 320 C 1070 335, 1070 335, 1070 342" fill="none" stroke="#059669" stroke-width="2" marker-end="url(#arrow)"/><path d="M 1390 320 C 1390 335, 1390 335, 1390 342" fill="none" stroke="#0891B2" stroke-width="2" marker-end="url(#arrow)"/><path d="M 1070 474 C 1070 485, 1070 485, 1070 496" fill="none" stroke="#7C3AED" stroke-width="2" marker-end="url(#arrow)"/><path d="M 1390 474 C 1390 485, 1390 485, 1390 496" fill="none" stroke="#D97706" stroke-width="2" marker-end="url(#arrow)"/><line x1="48" y1="855" x2="1552" y2="855" stroke="#CBD5E1" stroke-width="1"/><text x="50" y="880" text-anchor="start" font-family="'Noto Sans CJK SC', 'Inter', sans-serif" font-size="12" font-weight="450" fill="#64748B">来源：xai-org/grok-build README 与 crates/codegen 源码；图中边界为源码结构归纳。</text><text x="1550" y="880" text-anchor="end" font-family="'Noto Sans CJK SC', 'Inter', sans-serif" font-size="12" font-weight="550" fill="#64748B">Grok Build 源码架构研究 · 2026-07-19</text></svg>