<svg xmlns="http://www.w3.org/2000/svg" width="1600" height="900" viewBox="0 0 1600 900">
<defs>
  <filter id="shadow" x="-20%" y="-20%" width="140%" height="140%"><feDropShadow dx="0" dy="6" stdDeviation="9" flood-color="#0F172A" flood-opacity="0.09"/></filter>
  <filter id="soft" x="-20%" y="-20%" width="140%" height="140%"><feDropShadow dx="0" dy="3" stdDeviation="5" flood-color="#0F172A" flood-opacity="0.07"/></filter>
  <marker id="arrow" markerWidth="10" markerHeight="10" refX="8" refY="3" orient="auto" markerUnits="strokeWidth"><path d="M0,0 L0,6 L9,3 z" fill="#64748B"/></marker>
  <marker id="arrowBlue" markerWidth="10" markerHeight="10" refX="8" refY="3" orient="auto" markerUnits="strokeWidth"><path d="M0,0 L0,6 L9,3 z" fill="#2563EB"/></marker>
  <marker id="arrowRose" markerWidth="10" markerHeight="10" refX="8" refY="3" orient="auto" markerUnits="strokeWidth"><path d="M0,0 L0,6 L9,3 z" fill="#E11D48"/></marker>
  <linearGradient id="head" x1="0" x2="1"><stop offset="0" stop-color="#0F172A"/><stop offset="0.62" stop-color="#172554"/><stop offset="1" stop-color="#0C4A6E"/></linearGradient>
  <linearGradient id="page" x1="0" y1="0" x2="0" y2="1"><stop offset="0" stop-color="#FBFDFF"/><stop offset="1" stop-color="#F4F7FB"/></linearGradient>
</defs>
<rect width="1600" height="900" fill="url(#page)"/>
<rect x="0" y="0" width="1600" height="116" fill="url(#head)"/>
<text x="54" y="55" font-family="'Noto Sans CJK SC', 'Inter', sans-serif" font-size="34" font-weight="750" fill="#FFFFFF">Agent 构建、发现与工具裁剪生命周期</text>
<text x="56" y="88" font-family="'Noto Sans CJK SC', 'Inter', sans-serif" font-size="16" fill="#C7D2FE">AgentBuilder::build() 的源码关键阶段，以及 project / built-in / user / bundled / plugin 的发现优先级</text>
<rect x="1450" y="30" width="96" height="48" rx="24" fill="#FFFFFF" fill-opacity="0.12" stroke="#FFFFFF" stroke-opacity="0.25"/>
<text x="1498" y="62" text-anchor="middle" font-family="'Noto Sans CJK SC', 'Inter', sans-serif" font-size="18" font-weight="700" fill="#FFFFFF">02/06</text>
<rect x="48" y="142" width="430" height="42" rx="13" fill="#7C3AED" fill-opacity="1"/><text x="66" y="170" text-anchor="start" font-family="'Noto Sans CJK SC', 'Inter', sans-serif" font-size="16" font-weight="700" fill="#FFFFFF">定义发现与选择</text><rect x="65" y="198" width="185" height="67" rx="14" fill="#FFFFFF" fill-opacity="1" stroke="#7C3AED" stroke-width="1.3" filter="url(#shadow)"/><rect x="77" y="210" width="8" height="43" rx="4" fill="#7C3AED" fill-opacity="1"/><text x="97" y="231" text-anchor="start" font-family="'Noto Sans CJK SC', 'Inter', sans-serif" font-size="16" font-weight="700" fill="#0F172A">Project</text><text x="97" y="255" text-anchor="start" font-family="'Noto Sans CJK SC', 'Inter', sans-serif" font-size="12" font-weight="500" fill="#526077">.grok/agents、.claude/agents</text><line x1="250" y1="232" x2="300" y2="232" stroke="#64748B" stroke-width="1.7" stroke-dasharray="5 5" marker-end="url(#arrow)"/><rect x="65" y="288" width="185" height="67" rx="14" fill="#FFFFFF" fill-opacity="1" stroke="#2563EB" stroke-width="1.3" filter="url(#shadow)"/><rect x="77" y="300" width="8" height="43" rx="4" fill="#2563EB" fill-opacity="1"/><text x="97" y="321" text-anchor="start" font-family="'Noto Sans CJK SC', 'Inter', sans-serif" font-size="16" font-weight="700" fill="#0F172A">Built-in</text><text x="97" y="345" text-anchor="start" font-family="'Noto Sans CJK SC', 'Inter', sans-serif" font-size="12" font-weight="500" fill="#526077">内置 Agent 枚举</text><line x1="250" y1="322" x2="300" y2="322" stroke="#64748B" stroke-width="1.7" stroke-dasharray="5 5" marker-end="url(#arrow)"/><rect x="65" y="378" width="185" height="67" rx="14" fill="#FFFFFF" fill-opacity="1" stroke="#0891B2" stroke-width="1.3" filter="url(#shadow)"/><rect x="77" y="390" width="8" height="43" rx="4" fill="#0891B2" fill-opacity="1"/><text x="97" y="411" text-anchor="start" font-family="'Noto Sans CJK SC', 'Inter', sans-serif" font-size="16" font-weight="700" fill="#0F172A">User</text><text x="97" y="435" text-anchor="start" font-family="'Noto Sans CJK SC', 'Inter', sans-serif" font-size="12" font-weight="500" fill="#526077">用户级定义目录</text><line x1="250" y1="412" x2="300" y2="412" stroke="#64748B" stroke-width="1.7" stroke-dasharray="5 5" marker-end="url(#arrow)"/><rect x="65" y="468" width="185" height="67" rx="14" fill="#FFFFFF" fill-opacity="1" stroke="#059669" stroke-width="1.3" filter="url(#shadow)"/><rect x="77" y="480" width="8" height="43" rx="4" fill="#059669" fill-opacity="1"/><text x="97" y="501" text-anchor="start" font-family="'Noto Sans CJK SC', 'Inter', sans-serif" font-size="16" font-weight="700" fill="#0F172A">Bundled</text><text x="97" y="525" text-anchor="start" font-family="'Noto Sans CJK SC', 'Inter', sans-serif" font-size="12" font-weight="500" fill="#526077">随包分发定义</text><line x1="250" y1="502" x2="300" y2="502" stroke="#64748B" stroke-width="1.7" stroke-dasharray="5 5" marker-end="url(#arrow)"/><rect x="65" y="558" width="185" height="67" rx="14" fill="#FFFFFF" fill-opacity="1" stroke="#EA580C" stroke-width="1.3" filter="url(#shadow)"/><rect x="77" y="570" width="8" height="43" rx="4" fill="#EA580C" fill-opacity="1"/><text x="97" y="591" text-anchor="start" font-family="'Noto Sans CJK SC', 'Inter', sans-serif" font-size="16" font-weight="700" fill="#0F172A">Plugin</text><text x="97" y="615" text-anchor="start" font-family="'Noto Sans CJK SC', 'Inter', sans-serif" font-size="12" font-weight="500" fill="#526077">插件命名空间定义</text><rect x="300" y="198" width="155" height="427" rx="18" fill="#FFFFFF" fill-opacity="1" stroke="line" stroke-width="1.2" filter="url(#shadow)"/><text x="377" y="232" text-anchor="middle" font-family="'Noto Sans CJK SC', 'Inter', sans-serif" font-size="18" font-weight="750" fill="#0F172A">选择规则</text><text x="377" y="273" text-anchor="middle" font-family="'Noto Sans CJK SC', 'Inter', sans-serif" font-size="14" font-weight="500" fill="#526077"><tspan x="377" dy="0">按名称解析：</tspan><tspan x="377" dy="29">Project 优先</tspan><tspan x="377" dy="29">然后 Built-in</tspan><tspan x="377" dy="29">再 User / Bundled</tspan><tspan x="377" dy="29"></tspan><tspan x="377" dy="29">Project 可遮蔽</tspan><tspan x="377" dy="29">同名内置定义</tspan><tspan x="377" dy="29"></tspan><tspan x="377" dy="29">Plugin 使用</tspan><tspan x="377" dy="29">限定名称并受</tspan><tspan x="377" dy="29">信任策略约束</tspan></text><rect x="323" y="579" width="108" height="30" rx="15" fill="#EDE9FE" fill-opacity="1"/><text x="377.0" y="600" text-anchor="middle" font-family="'Noto Sans CJK SC', 'Inter', sans-serif" font-size="13" font-weight="650" fill="#7C3AED">frontmatter</text><rect x="505" y="142" width="1047" height="42" rx="13" fill="#2563EB" fill-opacity="1"/><text x="523" y="170" text-anchor="start" font-family="'Noto Sans CJK SC', 'Inter', sans-serif" font-size="16" font-weight="700" fill="#FFFFFF">AgentBuilder 关键阶段（按 build() 源码归纳）</text><rect x="520" y="202" width="178" height="178" rx="18" fill="#FFFFFF" fill-opacity="1" stroke="#7C3AED" stroke-width="1.3" filter="url(#shadow)"/><rect x="535" y="217" width="42" height="42" rx="21" fill="#7C3AED" fill-opacity="1"/><text x="556" y="245" text-anchor="middle" font-family="'Noto Sans CJK SC', 'Inter', sans-serif" font-size="18" font-weight="800" fill="#FFFFFF">1</text><text x="536" y="284" text-anchor="start" font-family="'Noto Sans CJK SC', 'Inter', sans-serif" font-size="16" font-weight="730" fill="#0F172A">解析 Definition</text><text x="536" y="313" text-anchor="start" font-family="'Noto Sans CJK SC', 'Inter', sans-serif" font-size="12" font-weight="450" fill="#526077"><tspan x="536" dy="0">resolve_definition；</tspan><tspan x="536" dy="20">合并 Builder 覆盖项</tspan></text><line x1="698" y1="291" x2="722" y2="291" stroke="#64748B" stroke-width="1.7" marker-end="url(#arrow)"/><rect x="722" y="202" width="178" height="178" rx="18" fill="#FFFFFF" fill-opacity="1" stroke="#0891B2" stroke-width="1.3" filter="url(#shadow)"/><rect x="737" y="217" width="42" height="42" rx="21" fill="#0891B2" fill-opacity="1"/><text x="758" y="245" text-anchor="middle" font-family="'Noto Sans CJK SC', 'Inter', sans-serif" font-size="18" font-weight="800" fill="#FFFFFF">2</text><text x="738" y="284" text-anchor="start" font-family="'Noto Sans CJK SC', 'Inter', sans-serif" font-size="16" font-weight="730" fill="#0F172A">发现 Skills</text><text x="738" y="313" text-anchor="start" font-family="'Noto Sans CJK SC', 'Inter', sans-serif" font-size="12" font-weight="450" fill="#526077"><tspan x="738" dy="0">CWD + Plugin regist</tspan><tspan x="738" dy="20">ry；支持预加载</tspan></text><line x1="900" y1="291" x2="924" y2="291" stroke="#64748B" stroke-width="1.7" marker-end="url(#arrow)"/><rect x="924" y="202" width="178" height="178" rx="18" fill="#FFFFFF" fill-opacity="1" stroke="#059669" stroke-width="1.3" filter="url(#shadow)"/><rect x="939" y="217" width="42" height="42" rx="21" fill="#059669" fill-opacity="1"/><text x="960" y="245" text-anchor="middle" font-family="'Noto Sans CJK SC', 'Inter', sans-serif" font-size="18" font-weight="800" fill="#FFFFFF">3</text><text x="940" y="284" text-anchor="start" font-family="'Noto Sans CJK SC', 'Inter', sans-serif" font-size="16" font-weight="730" fill="#0F172A">注入预加载内容</text><text x="940" y="313" text-anchor="start" font-family="'Noto Sans CJK SC', 'Inter', sans-serif" font-size="12" font-weight="450" fill="#526077"><tspan x="940" dy="0">将选中 Skill 内容注入 prom</tspan><tspan x="940" dy="20">pt body</tspan></text><line x1="1102" y1="291" x2="1126" y2="291" stroke="#64748B" stroke-width="1.7" marker-end="url(#arrow)"/><rect x="1126" y="202" width="178" height="178" rx="18" fill="#FFFFFF" fill-opacity="1" stroke="#2563EB" stroke-width="1.3" filter="url(#shadow)"/><rect x="1141" y="217" width="42" height="42" rx="21" fill="#2563EB" fill-opacity="1"/><text x="1162" y="245" text-anchor="middle" font-family="'Noto Sans CJK SC', 'Inter', sans-serif" font-size="18" font-weight="800" fill="#FFFFFF">4</text><text x="1142" y="284" text-anchor="start" font-family="'Noto Sans CJK SC', 'Inter', sans-serif" font-size="16" font-weight="730" fill="#0F172A">建立 ToolConfig</text><text x="1142" y="313" text-anchor="start" font-family="'Noto Sans CJK SC', 'Inter', sans-serif" font-size="12" font-weight="450" fill="#526077"><tspan x="1142" dy="0">从定义复制初始工具配置</tspan></text><line x1="1304" y1="291" x2="1328" y2="291" stroke="#64748B" stroke-width="1.7" marker-end="url(#arrow)"/><rect x="1328" y="202" width="178" height="178" rx="18" fill="#FFFFFF" fill-opacity="1" stroke="#EA580C" stroke-width="1.3" filter="url(#shadow)"/><rect x="1343" y="217" width="42" height="42" rx="21" fill="#EA580C" fill-opacity="1"/><text x="1364" y="245" text-anchor="middle" font-family="'Noto Sans CJK SC', 'Inter', sans-serif" font-size="18" font-weight="800" fill="#FFFFFF">5</text><text x="1344" y="284" text-anchor="start" font-family="'Noto Sans CJK SC', 'Inter', sans-serif" font-size="16" font-weight="730" fill="#0F172A">叠加可选工具</text><text x="1344" y="313" text-anchor="start" font-family="'Noto Sans CJK SC', 'Inter', sans-serif" font-size="12" font-weight="450" fill="#526077"><tspan x="1344" dy="0">Memory / Web / LSP </tspan><tspan x="1344" dy="20">/ Media / Plan</tspan></text><path d="M 1417 380 C 1417 407, 609 407, 609 437" fill="none" stroke="#64748B" stroke-width="1.7" marker-end="url(#arrow)"/><rect x="520" y="437" width="178" height="178" rx="18" fill="#FFFFFF" fill-opacity="1" stroke="#D97706" stroke-width="1.3" filter="url(#shadow)"/><rect x="535" y="452" width="42" height="42" rx="21" fill="#D97706" fill-opacity="1"/><text x="556" y="480" text-anchor="middle" font-family="'Noto Sans CJK SC', 'Inter', sans-serif" font-size="18" font-weight="800" fill="#FFFFFF">6</text><text x="536" y="519" text-anchor="start" font-family="'Noto Sans CJK SC', 'Inter', sans-serif" font-size="16" font-weight="730" fill="#0F172A">处理会话开关</text><text x="536" y="548" text-anchor="start" font-family="'Noto Sans CJK SC', 'Inter', sans-serif" font-size="12" font-weight="450" fill="#526077"><tspan x="536" dy="0">AskUser、Subagent、后台</tspan><tspan x="536" dy="20">任务依赖</tspan></text><line x1="698" y1="526" x2="722" y2="526" stroke="#64748B" stroke-width="1.7" marker-end="url(#arrow)"/><rect x="722" y="437" width="178" height="178" rx="18" fill="#FFFFFF" fill-opacity="1" stroke="#E11D48" stroke-width="1.3" filter="url(#shadow)"/><rect x="737" y="452" width="42" height="42" rx="21" fill="#E11D48" fill-opacity="1"/><text x="758" y="480" text-anchor="middle" font-family="'Noto Sans CJK SC', 'Inter', sans-serif" font-size="18" font-weight="800" fill="#FFFFFF">7</text><text x="738" y="519" text-anchor="start" font-family="'Noto Sans CJK SC', 'Inter', sans-serif" font-size="16" font-weight="730" fill="#0F172A">应用工具约束</text><text x="738" y="548" text-anchor="start" font-family="'Noto Sans CJK SC', 'Inter', sans-serif" font-size="12" font-weight="450" fill="#526077"><tspan x="738" dy="0">disallowed / allowl</tspan><tspan x="738" dy="20">ist / session polic</tspan><tspan x="738" dy="20">y</tspan></text><line x1="900" y1="526" x2="924" y2="526" stroke="#64748B" stroke-width="1.7" marker-end="url(#arrow)"/><rect x="924" y="437" width="178" height="178" rx="18" fill="#FFFFFF" fill-opacity="1" stroke="#EA580C" stroke-width="1.3" filter="url(#shadow)"/><rect x="939" y="452" width="42" height="42" rx="21" fill="#EA580C" fill-opacity="1"/><text x="960" y="480" text-anchor="middle" font-family="'Noto Sans CJK SC', 'Inter', sans-serif" font-size="18" font-weight="800" fill="#FFFFFF">8</text><text x="940" y="519" text-anchor="start" font-family="'Noto Sans CJK SC', 'Inter', sans-serif" font-size="16" font-weight="730" fill="#0F172A">最终化 ToolBridge</text><text x="940" y="548" text-anchor="start" font-family="'Noto Sans CJK SC', 'Inter', sans-serif" font-size="12" font-weight="450" fill="#526077"><tspan x="940" dy="0">SessionContext + Re</tspan><tspan x="940" dy="20">sources + validator</tspan><tspan x="940" dy="20">s</tspan></text><line x1="1102" y1="526" x2="1126" y2="526" stroke="#64748B" stroke-width="1.7" marker-end="url(#arrow)"/><rect x="1126" y="437" width="178" height="178" rx="18" fill="#FFFFFF" fill-opacity="1" stroke="#7C3AED" stroke-width="1.3" filter="url(#shadow)"/><rect x="1141" y="452" width="42" height="42" rx="21" fill="#7C3AED" fill-opacity="1"/><text x="1162" y="480" text-anchor="middle" font-family="'Noto Sans CJK SC', 'Inter', sans-serif" font-size="18" font-weight="800" fill="#FFFFFF">9</text><text x="1142" y="519" text-anchor="start" font-family="'Noto Sans CJK SC', 'Inter', sans-serif" font-size="16" font-weight="730" fill="#0F172A">渲染 Prompt / Policy</text><text x="1142" y="548" text-anchor="start" font-family="'Noto Sans CJK SC', 'Inter', sans-serif" font-size="12" font-weight="450" fill="#526077"><tspan x="1142" dy="0">Extend / Full；MiniJ</tspan><tspan x="1142" dy="20">inja；reminder</tspan></text><line x1="1304" y1="526" x2="1328" y2="526" stroke="#64748B" stroke-width="1.7" marker-end="url(#arrow)"/><rect x="1328" y="437" width="178" height="178" rx="18" fill="#FFFFFF" fill-opacity="1" stroke="#059669" stroke-width="1.3" filter="url(#shadow)"/><rect x="1343" y="452" width="42" height="42" rx="21" fill="#059669" fill-opacity="1"/><text x="1364" y="480" text-anchor="middle" font-family="'Noto Sans CJK SC', 'Inter', sans-serif" font-size="18" font-weight="800" fill="#FFFFFF">10</text><text x="1344" y="519" text-anchor="start" font-family="'Noto Sans CJK SC', 'Inter', sans-serif" font-size="16" font-weight="730" fill="#0F172A">构造不可变 Agent</text><text x="1344" y="548" text-anchor="start" font-family="'Noto Sans CJK SC', 'Inter', sans-serif" font-size="12" font-weight="450" fill="#526077"><tspan x="1344" dy="0">Arc&lt;ToolBridge&gt; + c</tspan><tspan x="1344" dy="20">onfig + policies</tspan></text><rect x="520" y="688" width="1017" height="112" rx="16" fill="#EEF2F7" fill-opacity="1" stroke="line" stroke-width="1"/><text x="540" y="722" text-anchor="start" font-family="'Noto Sans CJK SC', 'Inter', sans-serif" font-size="16" font-weight="750" fill="#0F172A">构建结果</text><rect x="540" y="742" width="165" height="30" rx="15" fill="#EDE9FE" fill-opacity="1"/><text x="622.5" y="763" text-anchor="middle" font-family="'Noto Sans CJK SC', 'Inter', sans-serif" font-size="13" font-weight="650" fill="#7C3AED">Rendered Prompt</text><rect x="717" y="742" width="155" height="30" rx="15" fill="#FFEDD5" fill-opacity="1"/><text x="794.5" y="763" text-anchor="middle" font-family="'Noto Sans CJK SC', 'Inter', sans-serif" font-size="13" font-weight="650" fill="#EA580C">Tool Definitions</text><rect x="884" y="742" width="155" height="30" rx="15" fill="#FEF3C7" fill-opacity="1"/><text x="961.5" y="763" text-anchor="middle" font-family="'Noto Sans CJK SC', 'Inter', sans-serif" font-size="13" font-weight="650" fill="#D97706">Reminder Policy</text><rect x="1051" y="742" width="170" height="30" rx="15" fill="#DBEAFE" fill-opacity="1"/><text x="1136.0" y="763" text-anchor="middle" font-family="'Noto Sans CJK SC', 'Inter', sans-serif" font-size="13" font-weight="650" fill="#2563EB">Compaction Policy</text><rect x="1233" y="742" width="144" height="30" rx="15" fill="#CFFAFE" fill-opacity="1"/><text x="1305.0" y="763" text-anchor="middle" font-family="'Noto Sans CJK SC', 'Inter', sans-serif" font-size="13" font-weight="650" fill="#0891B2">Model Config</text><rect x="1389" y="742" width="128" height="30" rx="15" fill="#D1FAE5" fill-opacity="1"/><text x="1453.0" y="763" text-anchor="middle" font-family="'Noto Sans CJK SC', 'Inter', sans-serif" font-size="13" font-weight="650" fill="#059669">Agent</text><line x1="455" y1="412" x2="505" y2="412" stroke="#7C3AED" stroke-width="2" marker-end="url(#arrow)"/><line x1="48" y1="855" x2="1552" y2="855" stroke="#CBD5E1" stroke-width="1"/><text x="50" y="880" text-anchor="start" font-family="'Noto Sans CJK SC', 'Inter', sans-serif" font-size="12" font-weight="450" fill="#64748B">源码锚点：xai-grok-agent/{builder.rs, config.rs, discovery.rs, agent.rs}。阶段名称为对 build() 实现的结构化归纳。</text><text x="1550" y="880" text-anchor="end" font-family="'Noto Sans CJK SC', 'Inter', sans-serif" font-size="12" font-weight="550" fill="#64748B">Grok Build 源码架构研究 · 2026-07-19</text></svg>