<?xml version="1.0" encoding="UTF-8" standalone="no"?>
<!DOCTYPE svg PUBLIC "-//W3C//DTD SVG 1.1//EN"
 "http://www.w3.org/Graphics/SVG/1.1/DTD/svg11.dtd">
<!-- Generated by graphviz version 2.42.4 (0)
 -->
<!-- Title: G Pages: 1 -->
<svg width="1383pt" height="881pt"
 viewBox="0.00 0.00 1383.00 881.00" xmlns="http://www.w3.org/2000/svg" xmlns:xlink="http://www.w3.org/1999/xlink">
<g id="graph0" class="graph" transform="scale(1 1) rotate(0) translate(18 863)">
<title>G</title>
<polygon fill="#fcfdfe" stroke="transparent" points="-18,18 -18,-863 1365,-863 1365,18 -18,18"/>
<text text-anchor="middle" x="255" y="-823.4" font-family="Noto Sans CJK SC" font-size="22.00">07. 对话压缩：Full&#45;Replace Compaction 源码流程</text>
<g id="clust1" class="cluster">
<title>cluster_host</title>
<path fill="#f3f8ff" stroke="#bfd7ff" d="M947,-8C947,-8 1327,-8 1327,-8 1333,-8 1339,-14 1339,-20 1339,-20 1339,-303 1339,-303 1339,-309 1333,-315 1327,-315 1327,-315 947,-315 947,-315 941,-315 935,-309 935,-303 935,-303 935,-20 935,-20 935,-14 941,-8 947,-8"/>
<text text-anchor="middle" x="1137" y="-293.4" font-family="Noto Sans CJK SC" font-size="22.00">产品宿主（xai&#45;grok&#45;shell / ChatState）</text>
</g>
<g id="clust2" class="cluster">
<title>cluster_core</title>
<path fill="#faf7ff" stroke="#c8b8f5" d="M20,-218C20,-218 619,-218 619,-218 625,-218 631,-224 631,-230 631,-230 631,-793 631,-793 631,-799 625,-805 619,-805 619,-805 20,-805 20,-805 14,-805 8,-799 8,-793 8,-793 8,-230 8,-230 8,-224 14,-218 20,-218"/>
<text text-anchor="middle" x="319.5" y="-783.4" font-family="Noto Sans CJK SC" font-size="22.00">xai&#45;grok&#45;compaction：transport&#45;agnostic compaction&#45;core</text>
</g>
<g id="clust3" class="cluster">
<title>cluster_failure</title>
<path fill="#fff7f7" stroke="#f6b6b6" d="M651,-225C651,-225 915,-225 915,-225 921,-225 927,-231 927,-237 927,-237 927,-443 927,-443 927,-449 921,-455 915,-455 915,-455 651,-455 651,-455 645,-455 639,-449 639,-443 639,-443 639,-237 639,-237 639,-231 645,-225 651,-225"/>
<text text-anchor="middle" x="723.5" y="-433.4" font-family="Noto Sans CJK SC" font-size="22.00">失败分类与恢复</text>
</g>
<!-- trigger -->
<g id="node1" class="node">
<title>trigger</title>
<path fill="#e8f1ff" stroke="#cbd5e1" stroke-width="1.2" d="M1281,-177C1281,-177 1163,-177 1163,-177 1157,-177 1151,-171 1151,-165 1151,-165 1151,-133 1151,-133 1151,-127 1157,-121 1163,-121 1163,-121 1281,-121 1281,-121 1287,-121 1293,-127 1293,-133 1293,-133 1293,-165 1293,-165 1293,-171 1287,-177 1281,-177"/>
<text text-anchor="middle" x="1222" y="-159.6" font-family="Noto Sans CJK SC" font-size="13.00" fill="#172033">触发策略</text>
<text text-anchor="middle" x="1222" y="-145.6" font-family="Noto Sans CJK SC" font-size="13.00" fill="#172033">Token 占用达到阈值</text>
<text text-anchor="middle" x="1222" y="-131.6" font-family="Noto Sans CJK SC" font-size="13.00" fill="#172033">默认自动压缩阈值</text>
</g>
<!-- snapshot -->
<g id="node2" class="node">
<title>snapshot</title>
<path fill="#e8f1ff" stroke="#cbd5e1" stroke-width="1.2" d="M1318.5,-72C1318.5,-72 1115.5,-72 1115.5,-72 1109.5,-72 1103.5,-66 1103.5,-60 1103.5,-60 1103.5,-28 1103.5,-28 1103.5,-22 1109.5,-16 1115.5,-16 1115.5,-16 1318.5,-16 1318.5,-16 1324.5,-16 1330.5,-22 1330.5,-28 1330.5,-28 1330.5,-60 1330.5,-60 1330.5,-66 1324.5,-72 1318.5,-72"/>
<text text-anchor="middle" x="1217" y="-54.6" font-family="Noto Sans CJK SC" font-size="13.00" fill="#172033">获取会话快照</text>
<text text-anchor="middle" x="1217" y="-40.6" font-family="Noto Sans CJK SC" font-size="13.00" fill="#172033">conversation + active agent state</text>
<text text-anchor="middle" x="1217" y="-26.6" font-family="Noto Sans CJK SC" font-size="13.00" fill="#172033">最后用户查询</text>
</g>
<!-- trigger&#45;&gt;snapshot -->
<g id="edge1" class="edge">
<title>trigger&#45;&gt;snapshot</title>
<path fill="none" stroke="#64748b" stroke-width="1.35" d="M1222,-120.86C1222,-120.86 1222,-79.72 1222,-79.72"/>
<polygon fill="#64748b" stroke="#64748b" stroke-width="1.35" points="1224.63,-79.72 1222,-72.22 1219.38,-79.72 1224.63,-79.72"/>
</g>
<!-- context -->
<g id="node5" class="node">
<title>context</title>
<path fill="#f0eafe" stroke="#cbd5e1" stroke-width="1.2" d="M610.5,-765C610.5,-765 449.5,-765 449.5,-765 443.5,-765 437.5,-759 437.5,-753 437.5,-753 437.5,-721 437.5,-721 437.5,-715 443.5,-709 449.5,-709 449.5,-709 610.5,-709 610.5,-709 616.5,-709 622.5,-715 622.5,-721 622.5,-721 622.5,-753 622.5,-753 622.5,-759 616.5,-765 610.5,-765"/>
<text text-anchor="middle" x="530" y="-747.6" font-family="Noto Sans CJK SC" font-size="13.00" fill="#172033">FullReplaceContext</text>
<text text-anchor="middle" x="530" y="-733.6" font-family="Noto Sans CJK SC" font-size="13.00" fill="#172033">CompactionItem / Factory</text>
<text text-anchor="middle" x="530" y="-719.6" font-family="Noto Sans CJK SC" font-size="13.00" fill="#172033">TokenCounter / Observer</text>
</g>
<!-- snapshot&#45;&gt;context -->
<g id="edge2" class="edge">
<title>snapshot&#45;&gt;context</title>
<path fill="none" stroke="#64748b" stroke-width="1.35" d="M1311.75,-72.02C1311.75,-201.67 1311.75,-737 1311.75,-737 1311.75,-737 630.25,-737 630.25,-737"/>
<polygon fill="#64748b" stroke="#64748b" stroke-width="1.35" points="630.25,-734.38 622.75,-737 630.25,-739.63 630.25,-734.38"/>
</g>
<!-- commit -->
<g id="node3" class="node">
<title>commit</title>
<path fill="#e8f1ff" stroke="#cbd5e1" stroke-width="1.2" d="M1106.5,-170C1106.5,-170 955.5,-170 955.5,-170 949.5,-170 943.5,-164 943.5,-158 943.5,-158 943.5,-140 943.5,-140 943.5,-134 949.5,-128 955.5,-128 955.5,-128 1106.5,-128 1106.5,-128 1112.5,-128 1118.5,-134 1118.5,-140 1118.5,-140 1118.5,-158 1118.5,-158 1118.5,-164 1112.5,-170 1106.5,-170"/>
<text text-anchor="middle" x="1031" y="-152.6" font-family="Noto Sans CJK SC" font-size="13.00" fill="#172033">原子提交新历史</text>
<text text-anchor="middle" x="1031" y="-138.6" font-family="Noto Sans CJK SC" font-size="13.00" fill="#172033">更新 token / 事件 / 持久化</text>
</g>
<!-- hostnote -->
<g id="node4" class="node">
<title>hostnote</title>
<polygon fill="#fff8e8" stroke="#f2c66d" stroke-width="1.2" points="1233,-275 1005,-275 1005,-233 1239,-233 1239,-269 1233,-275"/>
<polyline fill="none" stroke="#f2c66d" stroke-width="1.2" points="1233,-275 1233,-269 "/>
<polyline fill="none" stroke="#f2c66d" stroke-width="1.2" points="1239,-269 1233,-269 "/>
<text text-anchor="middle" x="1122" y="-257.6" font-family="Noto Sans CJK SC" font-size="13.00" fill="#172033">宿主负责：触发、传输、重放/回滚、</text>
<text text-anchor="middle" x="1122" y="-243.6" font-family="Noto Sans CJK SC" font-size="13.00" fill="#172033">状态提交、指标与持久化</text>
</g>
<!-- hostnote&#45;&gt;trigger -->
<g id="edge13" class="edge">
<title>hostnote&#45;&gt;trigger</title>
<path fill="none" stroke="#64748b" stroke-width="1.35" stroke-dasharray="5,2" d="M1195,-232.75C1195,-216.81 1195,-194.83 1195,-177.38"/>
</g>
<!-- hostnote&#45;&gt;commit -->
<g id="edge14" class="edge">
<title>hostnote&#45;&gt;commit</title>
<path fill="none" stroke="#64748b" stroke-width="1.35" stroke-dasharray="5,2" d="M1061.75,-232.75C1061.75,-214.53 1061.75,-188.42 1061.75,-170.22"/>
</g>
<!-- prompt -->
<g id="node6" class="node">
<title>prompt</title>
<path fill="#f0eafe" stroke="#cbd5e1" stroke-width="1.2" d="M611,-660C611,-660 445,-660 445,-660 439,-660 433,-654 433,-648 433,-648 433,-616 433,-616 433,-610 439,-604 445,-604 445,-604 611,-604 611,-604 617,-604 623,-610 623,-616 623,-616 623,-648 623,-648 623,-654 617,-660 611,-660"/>
<text text-anchor="middle" x="528" y="-642.6" font-family="Noto Sans CJK SC" font-size="13.00" fill="#172033">1. build_summary_prompt</text>
<text text-anchor="middle" x="528" y="-628.6" font-family="Noto Sans CJK SC" font-size="13.00" fill="#172033">选择 PromptKind</text>
<text text-anchor="middle" x="528" y="-614.6" font-family="Noto Sans CJK SC" font-size="13.00" fill="#172033">拼接用户查询与 reminder</text>
</g>
<!-- context&#45;&gt;prompt -->
<g id="edge3" class="edge">
<title>context&#45;&gt;prompt</title>
<path fill="none" stroke="#64748b" stroke-width="1.35" d="M530,-708.86C530,-708.86 530,-667.72 530,-667.72"/>
<polygon fill="#64748b" stroke="#64748b" stroke-width="1.35" points="532.63,-667.72 530,-660.22 527.38,-667.72 532.63,-667.72"/>
</g>
<!-- sample -->
<g id="node7" class="node">
<title>sample</title>
<path fill="#f0eafe" stroke="#cbd5e1" stroke-width="1.2" d="M611.5,-555C611.5,-555 466.5,-555 466.5,-555 460.5,-555 454.5,-549 454.5,-543 454.5,-543 454.5,-511 454.5,-511 454.5,-505 460.5,-499 466.5,-499 466.5,-499 611.5,-499 611.5,-499 617.5,-499 623.5,-505 623.5,-511 623.5,-511 623.5,-543 623.5,-543 623.5,-549 617.5,-555 611.5,-555"/>
<text text-anchor="middle" x="539" y="-537.6" font-family="Noto Sans CJK SC" font-size="13.00" fill="#172033">2. CompactionSampler</text>
<text text-anchor="middle" x="539" y="-523.6" font-family="Noto Sans CJK SC" font-size="13.00" fill="#172033">流式采样 + 重试</text>
<text text-anchor="middle" x="539" y="-509.6" font-family="Noto Sans CJK SC" font-size="13.00" fill="#172033">独立 compaction model</text>
</g>
<!-- prompt&#45;&gt;sample -->
<g id="edge4" class="edge">
<title>prompt&#45;&gt;sample</title>
<path fill="none" stroke="#64748b" stroke-width="1.35" d="M538.75,-603.86C538.75,-603.86 538.75,-562.72 538.75,-562.72"/>
<polygon fill="#64748b" stroke="#64748b" stroke-width="1.35" points="541.38,-562.72 538.75,-555.22 536.13,-562.72 541.38,-562.72"/>
</g>
<!-- clean -->
<g id="node8" class="node">
<title>clean</title>
<path fill="#f0eafe" stroke="#cbd5e1" stroke-width="1.2" d="M589,-415C589,-415 489,-415 489,-415 483,-415 477,-409 477,-403 477,-403 477,-371 477,-371 477,-365 483,-359 489,-359 489,-359 589,-359 589,-359 595,-359 601,-365 601,-371 601,-371 601,-403 601,-403 601,-409 595,-415 589,-415"/>
<text text-anchor="middle" x="539" y="-397.6" font-family="Noto Sans CJK SC" font-size="13.00" fill="#172033">3. 清洗与校验</text>
<text text-anchor="middle" x="539" y="-383.6" font-family="Noto Sans CJK SC" font-size="13.00" fill="#172033">格式化 summary</text>
<text text-anchor="middle" x="539" y="-369.6" font-family="Noto Sans CJK SC" font-size="13.00" fill="#172033">检测退化/空摘要</text>
</g>
<!-- sample&#45;&gt;clean -->
<g id="edge5" class="edge">
<title>sample&#45;&gt;clean</title>
<path fill="none" stroke="#64748b" stroke-width="1.35" d="M539,-498.67C539,-498.67 539,-422.79 539,-422.79"/>
<polygon fill="#64748b" stroke="#64748b" stroke-width="1.35" points="541.63,-422.79 539,-415.29 536.38,-422.79 541.63,-422.79"/>
</g>
<!-- classify -->
<g id="node10" class="node">
<title>classify</title>
<path fill="#ffe9e9" stroke="#cbd5e1" stroke-width="1.2" d="M783,-415C783,-415 659,-415 659,-415 653,-415 647,-409 647,-403 647,-403 647,-371 647,-371 647,-365 653,-359 659,-359 659,-359 783,-359 783,-359 789,-359 795,-365 795,-371 795,-371 795,-403 795,-403 795,-409 789,-415 783,-415"/>
<text text-anchor="middle" x="721" y="-397.6" font-family="Noto Sans CJK SC" font-size="13.00" fill="#172033">FailureKind</text>
<text text-anchor="middle" x="721" y="-383.6" font-family="Noto Sans CJK SC" font-size="13.00" fill="#172033">HTTP / stream error</text>
<text text-anchor="middle" x="721" y="-369.6" font-family="Noto Sans CJK SC" font-size="13.00" fill="#172033">context length error</text>
</g>
<!-- sample&#45;&gt;classify -->
<g id="edge8" class="edge">
<title>sample&#45;&gt;classify</title>
<path fill="none" stroke="#64748b" stroke-width="1.35" d="M619.5,-498.9C619.5,-460.41 619.5,-396 619.5,-396 619.5,-396 639.47,-396 639.47,-396"/>
<polygon fill="#64748b" stroke="#64748b" stroke-width="1.35" points="639.47,-398.63 646.97,-396 639.47,-393.38 639.47,-398.63"/>
<text text-anchor="middle" x="660.5" y="-466.2" font-family="Noto Sans CJK SC" font-size="11.00" fill="#475569">失败</text>
</g>
<!-- assemble -->
<g id="node9" class="node">
<title>assemble</title>
<path fill="#f0eafe" stroke="#cbd5e1" stroke-width="1.2" d="M603.5,-282C603.5,-282 404.5,-282 404.5,-282 398.5,-282 392.5,-276 392.5,-270 392.5,-270 392.5,-238 392.5,-238 392.5,-232 398.5,-226 404.5,-226 404.5,-226 603.5,-226 603.5,-226 609.5,-226 615.5,-232 615.5,-238 615.5,-238 615.5,-270 615.5,-270 615.5,-276 609.5,-282 603.5,-282"/>
<text text-anchor="middle" x="504" y="-264.6" font-family="Noto Sans CJK SC" font-size="13.00" fill="#172033">4. assemble_compacted_history</text>
<text text-anchor="middle" x="504" y="-250.6" font-family="Noto Sans CJK SC" font-size="13.00" fill="#172033">全量替换，不保留 tail</text>
<text text-anchor="middle" x="504" y="-236.6" font-family="Noto Sans CJK SC" font-size="13.00" fill="#172033">重建 fresh history</text>
</g>
<!-- clean&#45;&gt;assemble -->
<g id="edge6" class="edge">
<title>clean&#45;&gt;assemble</title>
<path fill="none" stroke="#64748b" stroke-width="1.35" d="M539,-358.79C539,-358.79 539,-289.67 539,-289.67"/>
<polygon fill="#64748b" stroke="#64748b" stroke-width="1.35" points="541.63,-289.67 539,-282.17 536.38,-289.67 541.63,-289.67"/>
</g>
<!-- abort -->
<g id="node12" class="node">
<title>abort</title>
<path fill="#ffe9e9" stroke="#cbd5e1" stroke-width="1.2" d="M786.5,-275C786.5,-275 659.5,-275 659.5,-275 653.5,-275 647.5,-269 647.5,-263 647.5,-263 647.5,-245 647.5,-245 647.5,-239 653.5,-233 659.5,-233 659.5,-233 786.5,-233 786.5,-233 792.5,-233 798.5,-239 798.5,-245 798.5,-245 798.5,-263 798.5,-263 798.5,-269 792.5,-275 786.5,-275"/>
<text text-anchor="middle" x="723" y="-257.6" font-family="Noto Sans CJK SC" font-size="13.00" fill="#172033">确定性错误 / 退化摘要</text>
<text text-anchor="middle" x="723" y="-243.6" font-family="Noto Sans CJK SC" font-size="13.00" fill="#172033">保留原历史并上报</text>
</g>
<!-- clean&#45;&gt;abort -->
<g id="edge12" class="edge">
<title>clean&#45;&gt;abort</title>
<path fill="none" stroke="#64748b" stroke-width="1.35" d="M601.04,-377C619.67,-377 635.25,-377 635.25,-377 635.25,-377 635.25,-254 635.25,-254 635.25,-254 639.95,-254 639.95,-254"/>
<polygon fill="#64748b" stroke="#64748b" stroke-width="1.35" points="639.95,-256.63 647.45,-254 639.95,-251.38 639.95,-256.63"/>
<text text-anchor="middle" x="618" y="-326.2" font-family="Noto Sans CJK SC" font-size="11.00" fill="#475569">degenerate</text>
</g>
<!-- assemble&#45;&gt;commit -->
<g id="edge7" class="edge">
<title>assemble&#45;&gt;commit</title>
<path fill="none" stroke="#64748b" stroke-width="1.35" d="M615.74,-229C754.82,-229 974.25,-229 974.25,-229 974.25,-229 974.25,-177.52 974.25,-177.52"/>
<polygon fill="#64748b" stroke="#64748b" stroke-width="1.35" points="976.88,-177.52 974.25,-170.02 971.63,-177.52 976.88,-177.52"/>
</g>
<!-- footer -->
<g id="node13" class="node">
<title>footer</title>
<polygon fill="#f8fafc" stroke="#cbd5e1" stroke-width="1.2" points="851,-167 151,-167 151,-131 857,-131 857,-161 851,-167"/>
<polyline fill="none" stroke="#cbd5e1" stroke-width="1.2" points="851,-167 851,-161 "/>
<polyline fill="none" stroke="#cbd5e1" stroke-width="1.2" points="857,-161 851,-161 "/>
<text text-anchor="middle" x="504" y="-145.6" font-family="Noto Sans CJK SC" font-size="13.00" fill="#172033">源码要点：grok&#45;build 使用 whole&#45;session full&#45;replace；与 Grok Chat 的 intra tail&#45;keep / inter chunked 策略分离。</text>
</g>
<!-- assemble&#45;&gt;footer -->
<g id="edge15" class="edge">
<title>assemble&#45;&gt;footer</title>
<path fill="none" stroke="#64748b" stroke-width="1.35" stroke-dasharray="5,2" d="M504,-225.86C504,-207.27 504,-183.45 504,-167.29"/>
</g>
<!-- retry -->
<g id="node11" class="node">
<title>retry</title>
<path fill="#fff1e6" stroke="#f0b27a" stroke-width="1.2" d="M907,-275C907,-275 843,-275 843,-275 837,-275 831,-269 831,-263 831,-263 831,-245 831,-245 831,-239 837,-233 843,-233 843,-233 907,-233 907,-233 913,-233 919,-239 919,-245 919,-245 919,-263 919,-263 919,-269 913,-275 907,-275"/>
<text text-anchor="middle" x="875" y="-257.6" font-family="Noto Sans CJK SC" font-size="13.00" fill="#172033">瞬态错误</text>
<text text-anchor="middle" x="875" y="-243.6" font-family="Noto Sans CJK SC" font-size="13.00" fill="#172033">按策略重试</text>
</g>
<!-- classify&#45;&gt;retry -->
<g id="edge9" class="edge">
<title>classify&#45;&gt;retry</title>
<path fill="none" stroke="#64748b" stroke-width="1.35" d="M795.15,-387C828.43,-387 860.33,-387 860.33,-387 860.33,-387 860.33,-282.57 860.33,-282.57"/>
<polygon fill="#64748b" stroke="#64748b" stroke-width="1.35" points="862.96,-282.57 860.33,-275.07 857.71,-282.57 862.96,-282.57"/>
<text text-anchor="middle" x="839.5" y="-326.2" font-family="Noto Sans CJK SC" font-size="11.00" fill="#475569">transient</text>
</g>
<!-- classify&#45;&gt;abort -->
<g id="edge11" class="edge">
<title>classify&#45;&gt;abort</title>
<path fill="none" stroke="#64748b" stroke-width="1.35" d="M721.25,-358.79C721.25,-358.79 721.25,-282.68 721.25,-282.68"/>
<polygon fill="#64748b" stroke="#64748b" stroke-width="1.35" points="723.88,-282.68 721.25,-275.18 718.63,-282.68 723.88,-282.68"/>
<text text-anchor="middle" x="744.5" y="-326.2" font-family="Noto Sans CJK SC" font-size="11.00" fill="#475569">deterministic</text>
</g>
<!-- retry&#45;&gt;sample -->
<g id="edge10" class="edge">
<title>retry&#45;&gt;sample</title>
<path fill="none" stroke="#64748b" stroke-width="1.35" d="M889.67,-275.42C889.67,-339.78 889.67,-527 889.67,-527 889.67,-527 631.39,-527 631.39,-527"/>
<polygon fill="#64748b" stroke="#64748b" stroke-width="1.35" points="631.39,-524.38 623.89,-527 631.39,-529.63 631.39,-524.38"/>
</g>
</g>
</svg>
