<?xml version="1.0" encoding="UTF-8" standalone="no"?>
<!DOCTYPE svg PUBLIC "-//W3C//DTD SVG 1.1//EN"
 "http://www.w3.org/Graphics/SVG/1.1/DTD/svg11.dtd">
<!-- Generated by graphviz version 2.42.4 (0)
 -->
<!-- Title: G Pages: 1 -->
<svg width="1036pt" height="1294pt"
 viewBox="0.00 0.00 1035.50 1294.00" xmlns="http://www.w3.org/2000/svg" xmlns:xlink="http://www.w3.org/1999/xlink">
<g id="graph0" class="graph" transform="scale(1 1) rotate(0) translate(18 1276)">
<title>G</title>
<polygon fill="#fcfdfe" stroke="transparent" points="-18,18 -18,-1276 1017.5,-1276 1017.5,18 -18,18"/>
<text text-anchor="middle" x="272" y="-1236.4" font-family="Noto Sans CJK SC" font-size="22.00">08. 跨会话记忆：存储、索引、混合检索与 Dream 整合</text>
<g id="clust1" class="cluster">
<title>cluster_storage</title>
<path fill="#f3fbf7" stroke="#a7d7c5" d="M303,-935C303,-935 704,-935 704,-935 710,-935 716,-941 716,-947 716,-947 716,-1116 716,-1116 716,-1122 710,-1128 704,-1128 704,-1128 303,-1128 303,-1128 297,-1128 291,-1122 291,-1116 291,-1116 291,-947 291,-947 291,-941 297,-935 303,-935"/>
<text text-anchor="middle" x="389.5" y="-1106.4" font-family="Noto Sans CJK SC" font-size="22.00">Markdown 持久层</text>
</g>
<g id="clust2" class="cluster">
<title>cluster_index</title>
<path fill="#f4f8ff" stroke="#8eb8f8" d="M447,-453C447,-453 629,-453 629,-453 635,-453 641,-459 641,-465 641,-465 641,-915 641,-915 641,-921 635,-927 629,-927 629,-927 447,-927 447,-927 441,-927 435,-921 435,-915 435,-915 435,-465 435,-465 435,-459 441,-453 447,-453"/>
<text text-anchor="middle" x="508.5" y="-905.4" font-family="Noto Sans CJK SC" font-size="22.00">索引与向量化</text>
</g>
<g id="clust3" class="cluster">
<title>cluster_search</title>
<path fill="#faf7ff" stroke="#c9b5f4" d="M50,-8C50,-8 415,-8 415,-8 421,-8 427,-14 427,-20 427,-20 427,-528 427,-528 427,-534 421,-540 415,-540 415,-540 50,-540 50,-540 44,-540 38,-534 38,-528 38,-528 38,-20 38,-20 38,-14 44,-8 50,-8"/>
<text text-anchor="middle" x="164.5" y="-518.4" font-family="Noto Sans CJK SC" font-size="22.00">Hybrid Search 排序管线</text>
</g>
<g id="clust4" class="cluster">
<title>cluster_dream</title>
<path fill="#fff9f1" stroke="#f1c58b" d="M20,-1031C20,-1031 262,-1031 262,-1031 268,-1031 274,-1037 274,-1043 274,-1043 274,-1206 274,-1206 274,-1212 268,-1218 262,-1218 262,-1218 20,-1218 20,-1218 14,-1218 8,-1212 8,-1206 8,-1206 8,-1043 8,-1043 8,-1037 14,-1031 20,-1031"/>
<text text-anchor="middle" x="125" y="-1196.4" font-family="Noto Sans CJK SC" font-size="22.00">Dream / 长期记忆整合</text>
</g>
<!-- global -->
<g id="node1" class="node">
<title>global</title>
<path fill="#e7f7ef" stroke="#cbd5e1" stroke-width="1.2" d="M419,-985C419,-985 311,-985 311,-985 305,-985 299,-979 299,-973 299,-973 299,-955 299,-955 299,-949 305,-943 311,-943 311,-943 419,-943 419,-943 425,-943 431,-949 431,-955 431,-955 431,-973 431,-973 431,-979 425,-985 419,-985"/>
<text text-anchor="middle" x="365" y="-967.6" font-family="Noto Sans CJK SC" font-size="13.00" fill="#172033">全局 MEMORY.md</text>
<text text-anchor="middle" x="365" y="-953.6" font-family="Noto Sans CJK SC" font-size="13.00" fill="#172033">~/.grok/memory/</text>
</g>
<!-- watch -->
<g id="node5" class="node">
<title>watch</title>
<path fill="#eaf2ff" stroke="#cbd5e1" stroke-width="1.2" d="M621,-887C621,-887 455,-887 455,-887 449,-887 443,-881 443,-875 443,-875 443,-857 443,-857 443,-851 449,-845 455,-845 455,-845 621,-845 621,-845 627,-845 633,-851 633,-857 633,-857 633,-875 633,-875 633,-881 627,-887 621,-887"/>
<text text-anchor="middle" x="538" y="-869.6" font-family="Noto Sans CJK SC" font-size="13.00" fill="#172033">Watcher / Session&#45;End 写入</text>
<text text-anchor="middle" x="538" y="-855.6" font-family="Noto Sans CJK SC" font-size="13.00" fill="#172033">检测 Markdown 变化</text>
</g>
<!-- global&#45;&gt;watch -->
<g id="edge1" class="edge">
<title>global&#45;&gt;watch</title>
<path fill="none" stroke="#64748b" stroke-width="1.35" d="M424.75,-942.74C424.75,-913.91 424.75,-866 424.75,-866 424.75,-866 435.45,-866 435.45,-866"/>
<polygon fill="#64748b" stroke="#64748b" stroke-width="1.35" points="435.45,-868.63 442.95,-866 435.45,-863.38 435.45,-868.63"/>
</g>
<!-- workspace -->
<g id="node2" class="node">
<title>workspace</title>
<path fill="#e7f7ef" stroke="#cbd5e1" stroke-width="1.2" d="M600.5,-985C600.5,-985 475.5,-985 475.5,-985 469.5,-985 463.5,-979 463.5,-973 463.5,-973 463.5,-955 463.5,-955 463.5,-949 469.5,-943 475.5,-943 475.5,-943 600.5,-943 600.5,-943 606.5,-943 612.5,-949 612.5,-955 612.5,-955 612.5,-973 612.5,-973 612.5,-979 606.5,-985 600.5,-985"/>
<text text-anchor="middle" x="538" y="-967.6" font-family="Noto Sans CJK SC" font-size="13.00" fill="#172033">工作区 MEMORY.md</text>
<text text-anchor="middle" x="538" y="-953.6" font-family="Noto Sans CJK SC" font-size="13.00" fill="#172033">{repo&#45;slug}&#45;{hash8}/</text>
</g>
<!-- workspace&#45;&gt;watch -->
<g id="edge2" class="edge">
<title>workspace&#45;&gt;watch</title>
<path fill="none" stroke="#64748b" stroke-width="1.35" d="M538,-942.74C538,-942.74 538,-894.72 538,-894.72"/>
<polygon fill="#64748b" stroke="#64748b" stroke-width="1.35" points="540.63,-894.72 538,-887.22 535.38,-894.72 540.63,-894.72"/>
</g>
<!-- sessions -->
<g id="node3" class="node">
<title>sessions</title>
<path fill="#e7f7ef" stroke="#cbd5e1" stroke-width="1.2" d="M696,-1081C696,-1081 528,-1081 528,-1081 522,-1081 516,-1075 516,-1069 516,-1069 516,-1051 516,-1051 516,-1045 522,-1039 528,-1039 528,-1039 696,-1039 696,-1039 702,-1039 708,-1045 708,-1051 708,-1051 708,-1069 708,-1069 708,-1075 702,-1081 696,-1081"/>
<text text-anchor="middle" x="612" y="-1063.6" font-family="Noto Sans CJK SC" font-size="13.00" fill="#172033">Session Logs</text>
<text text-anchor="middle" x="612" y="-1049.6" font-family="Noto Sans CJK SC" font-size="13.00" fill="#172033">sessions/YYYY&#45;MM&#45;DD&#45;...md</text>
</g>
<!-- sessions&#45;&gt;watch -->
<g id="edge3" class="edge">
<title>sessions&#45;&gt;watch</title>
<path fill="none" stroke="#64748b" stroke-width="1.35" d="M622.75,-1038.87C622.75,-1038.87 622.75,-894.6 622.75,-894.6"/>
<polygon fill="#64748b" stroke="#64748b" stroke-width="1.35" points="625.38,-894.6 622.75,-887.1 620.13,-894.6 625.38,-894.6"/>
</g>
<!-- consolidate -->
<g id="node17" class="node">
<title>consolidate</title>
<path fill="#fff0d8" stroke="#cbd5e1" stroke-width="1.2" d="M226.5,-1178C226.5,-1178 107.5,-1178 107.5,-1178 101.5,-1178 95.5,-1172 95.5,-1166 95.5,-1166 95.5,-1148 95.5,-1148 95.5,-1142 101.5,-1136 107.5,-1136 107.5,-1136 226.5,-1136 226.5,-1136 232.5,-1136 238.5,-1142 238.5,-1148 238.5,-1148 238.5,-1166 238.5,-1166 238.5,-1172 232.5,-1178 226.5,-1178"/>
<text text-anchor="middle" x="167" y="-1160.6" font-family="Noto Sans CJK SC" font-size="13.00" fill="#172033">会话结束整合</text>
<text text-anchor="middle" x="167" y="-1146.6" font-family="Noto Sans CJK SC" font-size="13.00" fill="#172033">从 session logs 提炼</text>
</g>
<!-- sessions&#45;&gt;consolidate -->
<g id="edge17" class="edge">
<title>sessions&#45;&gt;consolidate</title>
<path fill="none" stroke="#64748b" stroke-width="1.35" d="M612,-1081.05C612,-1109.58 612,-1157 612,-1157 612,-1157 246.49,-1157 246.49,-1157"/>
<polygon fill="#64748b" stroke="#64748b" stroke-width="1.35" points="246.49,-1154.38 238.99,-1157 246.49,-1159.63 246.49,-1154.38"/>
</g>
<!-- security -->
<g id="node4" class="node">
<title>security</title>
<polygon fill="#fff8e8" stroke="#f2c66d" stroke-width="1.2" points="477.5,-1088 298.5,-1088 298.5,-1032 483.5,-1032 483.5,-1082 477.5,-1088"/>
<polyline fill="none" stroke="#f2c66d" stroke-width="1.2" points="477.5,-1088 477.5,-1082 "/>
<polyline fill="none" stroke="#f2c66d" stroke-width="1.2" points="483.5,-1082 477.5,-1082 "/>
<text text-anchor="middle" x="391" y="-1070.6" font-family="Noto Sans CJK SC" font-size="13.00" fill="#172033">安全边界</text>
<text text-anchor="middle" x="391" y="-1056.6" font-family="Noto Sans CJK SC" font-size="13.00" fill="#172033">canonicalize + starts_with</text>
<text text-anchor="middle" x="391" y="-1042.6" font-family="Noto Sans CJK SC" font-size="13.00" fill="#172033">阻止目录逃逸</text>
</g>
<!-- security&#45;&gt;global -->
<g id="edge21" class="edge">
<title>security&#45;&gt;global</title>
<path fill="none" stroke="#64748b" stroke-width="1.35" stroke-dasharray="5,2" d="M365,-1031.97C365,-1017.03 365,-998.95 365,-985.19"/>
</g>
<!-- security&#45;&gt;workspace -->
<g id="edge22" class="edge">
<title>security&#45;&gt;workspace</title>
<path fill="none" stroke="#64748b" stroke-width="1.35" stroke-dasharray="5,2" d="M476.83,-1031.97C476.83,-1017.03 476.83,-998.95 476.83,-985.19"/>
</g>
<!-- chunk -->
<g id="node6" class="node">
<title>chunk</title>
<path fill="#eaf2ff" stroke="#cbd5e1" stroke-width="1.2" d="M604.5,-798C604.5,-798 469.5,-798 469.5,-798 463.5,-798 457.5,-792 457.5,-786 457.5,-786 457.5,-754 457.5,-754 457.5,-748 463.5,-742 469.5,-742 469.5,-742 604.5,-742 604.5,-742 610.5,-742 616.5,-748 616.5,-754 616.5,-754 616.5,-786 616.5,-786 616.5,-792 610.5,-798 604.5,-798"/>
<text text-anchor="middle" x="537" y="-780.6" font-family="Noto Sans CJK SC" font-size="13.00" fill="#172033">Chunker</text>
<text text-anchor="middle" x="537" y="-766.6" font-family="Noto Sans CJK SC" font-size="13.00" fill="#172033">按 Markdown 标题切块</text>
<text text-anchor="middle" x="537" y="-752.6" font-family="Noto Sans CJK SC" font-size="13.00" fill="#172033">保留 path + line range</text>
</g>
<!-- watch&#45;&gt;chunk -->
<g id="edge4" class="edge">
<title>watch&#45;&gt;chunk</title>
<path fill="none" stroke="#64748b" stroke-width="1.35" d="M537,-844.69C537,-844.69 537,-805.67 537,-805.67"/>
<polygon fill="#64748b" stroke="#64748b" stroke-width="1.35" points="539.63,-805.67 537,-798.17 534.38,-805.67 539.63,-805.67"/>
</g>
<!-- sqlite -->
<g id="node7" class="node">
<title>sqlite</title>
<path fill="#eaf2ff" stroke="#cbd5e1" stroke-width="1.2" d="M616,-695C616,-695 456,-695 456,-695 450,-695 444,-689 444,-683 444,-683 444,-651 444,-651 444,-645 450,-639 456,-639 456,-639 616,-639 616,-639 622,-639 628,-645 628,-651 628,-651 628,-683 628,-683 628,-689 622,-695 616,-695"/>
<text text-anchor="middle" x="536" y="-677.6" font-family="Noto Sans CJK SC" font-size="13.00" fill="#172033">MemoryIndex (SQLite)</text>
<text text-anchor="middle" x="536" y="-663.6" font-family="Noto Sans CJK SC" font-size="13.00" fill="#172033">chunks + FTS5 BM25</text>
<text text-anchor="middle" x="536" y="-649.6" font-family="Noto Sans CJK SC" font-size="13.00" fill="#172033">access_count / created_at</text>
</g>
<!-- chunk&#45;&gt;sqlite -->
<g id="edge5" class="edge">
<title>chunk&#45;&gt;sqlite</title>
<path fill="none" stroke="#64748b" stroke-width="1.35" d="M537,-741.85C537,-741.85 537,-702.61 537,-702.61"/>
<polygon fill="#64748b" stroke="#64748b" stroke-width="1.35" points="539.63,-702.61 537,-695.11 534.38,-702.61 539.63,-702.61"/>
</g>
<!-- embed -->
<g id="node8" class="node">
<title>embed</title>
<path fill="#eaf2ff" stroke="#cbd5e1" stroke-width="1.2" d="M598,-592C598,-592 474,-592 474,-592 468,-592 462,-586 462,-580 462,-580 462,-562 462,-562 462,-556 468,-550 474,-550 474,-550 598,-550 598,-550 604,-550 610,-556 610,-562 610,-562 610,-580 610,-580 610,-586 604,-592 598,-592"/>
<text text-anchor="middle" x="536" y="-574.6" font-family="Noto Sans CJK SC" font-size="13.00" fill="#172033">EmbeddingProvider</text>
<text text-anchor="middle" x="536" y="-560.6" font-family="Noto Sans CJK SC" font-size="13.00" fill="#172033">批量 32 条向量化</text>
</g>
<!-- sqlite&#45;&gt;embed -->
<g id="edge6" class="edge">
<title>sqlite&#45;&gt;embed</title>
<path fill="none" stroke="#64748b" stroke-width="1.35" d="M536,-638.97C536,-638.97 536,-599.69 536,-599.69"/>
<polygon fill="#64748b" stroke="#64748b" stroke-width="1.35" points="538.63,-599.69 536,-592.19 533.38,-599.69 538.63,-599.69"/>
</g>
<!-- fts -->
<g id="node11" class="node">
<title>fts</title>
<path fill="#f0eafe" stroke="#cbd5e1" stroke-width="1.2" d="M191.5,-414C191.5,-414 58.5,-414 58.5,-414 52.5,-414 46.5,-408 46.5,-402 46.5,-402 46.5,-384 46.5,-384 46.5,-378 52.5,-372 58.5,-372 58.5,-372 191.5,-372 191.5,-372 197.5,-372 203.5,-378 203.5,-384 203.5,-384 203.5,-402 203.5,-402 203.5,-408 197.5,-414 191.5,-414"/>
<text text-anchor="middle" x="125" y="-396.6" font-family="Noto Sans CJK SC" font-size="13.00" fill="#172033">FTS5 候选</text>
<text text-anchor="middle" x="125" y="-382.6" font-family="Noto Sans CJK SC" font-size="13.00" fill="#172033">含 evergreen 补充查询</text>
</g>
<!-- sqlite&#45;&gt;fts -->
<g id="edge10" class="edge">
<title>sqlite&#45;&gt;fts</title>
<path fill="none" stroke="#64748b" stroke-width="1.35" d="M443.77,-667C309.88,-667 77.5,-667 77.5,-667 77.5,-667 77.5,-421.55 77.5,-421.55"/>
<polygon fill="#64748b" stroke="#64748b" stroke-width="1.35" points="80.13,-421.55 77.5,-414.05 74.88,-421.55 80.13,-421.55"/>
</g>
<!-- vec -->
<g id="node9" class="node">
<title>vec</title>
<path fill="#eaf2ff" stroke="#cbd5e1" stroke-width="1.2" d="M581.5,-503C581.5,-503 490.5,-503 490.5,-503 484.5,-503 478.5,-497 478.5,-491 478.5,-491 478.5,-473 478.5,-473 478.5,-467 484.5,-461 490.5,-461 490.5,-461 581.5,-461 581.5,-461 587.5,-461 593.5,-467 593.5,-473 593.5,-473 593.5,-491 593.5,-491 593.5,-497 587.5,-503 581.5,-503"/>
<text text-anchor="middle" x="536" y="-485.6" font-family="Noto Sans CJK SC" font-size="13.00" fill="#172033">sqlite&#45;vec KNN</text>
<text text-anchor="middle" x="536" y="-471.6" font-family="Noto Sans CJK SC" font-size="13.00" fill="#172033">可用时启用</text>
</g>
<!-- embed&#45;&gt;vec -->
<g id="edge7" class="edge">
<title>embed&#45;&gt;vec</title>
<path fill="none" stroke="#64748b" stroke-width="1.35" d="M536,-549.91C536,-549.91 536,-510.75 536,-510.75"/>
<polygon fill="#64748b" stroke="#64748b" stroke-width="1.35" points="538.63,-510.75 536,-503.25 533.38,-510.75 538.63,-510.75"/>
</g>
<!-- knn -->
<g id="node12" class="node">
<title>knn</title>
<path fill="#f0eafe" stroke="#cbd5e1" stroke-width="1.2" d="M406.5,-414C406.5,-414 247.5,-414 247.5,-414 241.5,-414 235.5,-408 235.5,-402 235.5,-402 235.5,-384 235.5,-384 235.5,-378 241.5,-372 247.5,-372 247.5,-372 406.5,-372 406.5,-372 412.5,-372 418.5,-378 418.5,-384 418.5,-384 418.5,-402 418.5,-402 418.5,-408 412.5,-414 406.5,-414"/>
<text text-anchor="middle" x="327" y="-396.6" font-family="Noto Sans CJK SC" font-size="13.00" fill="#172033">向量候选</text>
<text text-anchor="middle" x="327" y="-382.6" font-family="Noto Sans CJK SC" font-size="13.00" fill="#172033">Query embedding → KNN</text>
</g>
<!-- vec&#45;&gt;knn -->
<g id="edge11" class="edge">
<title>vec&#45;&gt;knn</title>
<path fill="none" stroke="#64748b" stroke-width="1.35" d="M478.04,-482C426.42,-482 359,-482 359,-482 359,-482 359,-421.59 359,-421.59"/>
<polygon fill="#64748b" stroke="#64748b" stroke-width="1.35" points="361.63,-421.59 359,-414.09 356.38,-421.59 361.63,-421.59"/>
</g>
<!-- degrade -->
<g id="node19" class="node">
<title>degrade</title>
<polygon fill="#f8fafc" stroke="#cbd5e1" stroke-width="1.2" points="993.5,-411 450.5,-411 450.5,-375 999.5,-375 999.5,-405 993.5,-411"/>
<polyline fill="none" stroke="#cbd5e1" stroke-width="1.2" points="993.5,-411 993.5,-405 "/>
<polyline fill="none" stroke="#cbd5e1" stroke-width="1.2" points="999.5,-405 993.5,-405 "/>
<text text-anchor="middle" x="725" y="-389.6" font-family="Noto Sans CJK SC" font-size="13.00" fill="#172033">优雅降级：无 sqlite&#45;vec / embedding 时退化为 FTS&#45;only；临时目录工作区跳过持久写入。</text>
</g>
<!-- vec&#45;&gt;degrade -->
<g id="edge23" class="edge">
<title>vec&#45;&gt;degrade</title>
<path fill="none" stroke="#64748b" stroke-width="1.35" stroke-dasharray="5,2" d="M536,-460.91C536,-445.8 536,-425.65 536,-411.23"/>
</g>
<!-- query -->
<g id="node10" class="node">
<title>query</title>
<path fill="#f0eafe" stroke="#cbd5e1" stroke-width="1.2" d="M287.5,-500C287.5,-500 120.5,-500 120.5,-500 114.5,-500 108.5,-494 108.5,-488 108.5,-488 108.5,-476 108.5,-476 108.5,-470 114.5,-464 120.5,-464 120.5,-464 287.5,-464 287.5,-464 293.5,-464 299.5,-470 299.5,-476 299.5,-476 299.5,-488 299.5,-488 299.5,-494 293.5,-500 287.5,-500"/>
<text text-anchor="middle" x="204" y="-478.6" font-family="Noto Sans CJK SC" font-size="13.00" fill="#172033">用户查询 / Query Expansion</text>
</g>
<!-- query&#45;&gt;fts -->
<g id="edge8" class="edge">
<title>query&#45;&gt;fts</title>
<path fill="none" stroke="#64748b" stroke-width="1.35" d="M156,-463.99C156,-463.99 156,-421.61 156,-421.61"/>
<polygon fill="#64748b" stroke="#64748b" stroke-width="1.35" points="158.63,-421.61 156,-414.11 153.38,-421.61 158.63,-421.61"/>
</g>
<!-- query&#45;&gt;knn -->
<g id="edge9" class="edge">
<title>query&#45;&gt;knn</title>
<path fill="none" stroke="#64748b" stroke-width="1.35" d="M267.5,-463.99C267.5,-463.99 267.5,-421.61 267.5,-421.61"/>
<polygon fill="#64748b" stroke="#64748b" stroke-width="1.35" points="270.13,-421.61 267.5,-414.11 264.88,-421.61 270.13,-421.61"/>
</g>
<!-- merge -->
<g id="node13" class="node">
<title>merge</title>
<path fill="#f0eafe" stroke="#cbd5e1" stroke-width="1.2" d="M307.5,-325C307.5,-325 156.5,-325 156.5,-325 150.5,-325 144.5,-319 144.5,-313 144.5,-313 144.5,-295 144.5,-295 144.5,-289 150.5,-283 156.5,-283 156.5,-283 307.5,-283 307.5,-283 313.5,-283 319.5,-289 319.5,-295 319.5,-295 319.5,-313 319.5,-313 319.5,-319 313.5,-325 307.5,-325"/>
<text text-anchor="middle" x="232" y="-307.6" font-family="Noto Sans CJK SC" font-size="13.00" fill="#172033">按 chunk_id 合并</text>
<text text-anchor="middle" x="232" y="-293.6" font-family="Noto Sans CJK SC" font-size="13.00" fill="#172033">归一化 FTS / L2 similarity</text>
</g>
<!-- fts&#45;&gt;merge -->
<g id="edge12" class="edge">
<title>fts&#45;&gt;merge</title>
<path fill="none" stroke="#64748b" stroke-width="1.35" d="M174,-371.91C174,-371.91 174,-332.75 174,-332.75"/>
<polygon fill="#64748b" stroke="#64748b" stroke-width="1.35" points="176.63,-332.75 174,-325.25 171.38,-332.75 176.63,-332.75"/>
</g>
<!-- knn&#45;&gt;merge -->
<g id="edge13" class="edge">
<title>knn&#45;&gt;merge</title>
<path fill="none" stroke="#64748b" stroke-width="1.35" d="M277.5,-371.91C277.5,-371.91 277.5,-332.75 277.5,-332.75"/>
<polygon fill="#64748b" stroke="#64748b" stroke-width="1.35" points="280.13,-332.75 277.5,-325.25 274.88,-332.75 280.13,-332.75"/>
</g>
<!-- rank -->
<g id="node14" class="node">
<title>rank</title>
<path fill="#f0eafe" stroke="#cbd5e1" stroke-width="1.2" d="M316.5,-236C316.5,-236 147.5,-236 147.5,-236 141.5,-236 135.5,-230 135.5,-224 135.5,-224 135.5,-206 135.5,-206 135.5,-200 141.5,-194 147.5,-194 147.5,-194 316.5,-194 316.5,-194 322.5,-194 328.5,-200 328.5,-206 328.5,-206 328.5,-224 328.5,-224 328.5,-230 322.5,-236 316.5,-236"/>
<text text-anchor="middle" x="232" y="-218.6" font-family="Noto Sans CJK SC" font-size="13.00" fill="#172033">时间衰减 + 来源权重</text>
<text text-anchor="middle" x="232" y="-204.6" font-family="Noto Sans CJK SC" font-size="13.00" fill="#172033">访问频率 boost + min_score</text>
</g>
<!-- merge&#45;&gt;rank -->
<g id="edge14" class="edge">
<title>merge&#45;&gt;rank</title>
<path fill="none" stroke="#64748b" stroke-width="1.35" d="M232,-282.91C232,-282.91 232,-243.75 232,-243.75"/>
<polygon fill="#64748b" stroke="#64748b" stroke-width="1.35" points="234.63,-243.75 232,-236.25 229.38,-243.75 234.63,-243.75"/>
</g>
<!-- mmr -->
<g id="node15" class="node">
<title>mmr</title>
<path fill="#f0eafe" stroke="#cbd5e1" stroke-width="1.2" d="M284,-147C284,-147 180,-147 180,-147 174,-147 168,-141 168,-135 168,-135 168,-117 168,-117 168,-111 174,-105 180,-105 180,-105 284,-105 284,-105 290,-105 296,-111 296,-117 296,-117 296,-135 296,-135 296,-141 290,-147 284,-147"/>
<text text-anchor="middle" x="232" y="-129.6" font-family="Noto Sans CJK SC" font-size="13.00" fill="#172033">MMR 去冗余重排</text>
<text text-anchor="middle" x="232" y="-115.6" font-family="Noto Sans CJK SC" font-size="13.00" fill="#172033">限制 max_results</text>
</g>
<!-- rank&#45;&gt;mmr -->
<g id="edge15" class="edge">
<title>rank&#45;&gt;mmr</title>
<path fill="none" stroke="#64748b" stroke-width="1.35" d="M232,-193.91C232,-193.91 232,-154.75 232,-154.75"/>
<polygon fill="#64748b" stroke="#64748b" stroke-width="1.35" points="234.63,-154.75 232,-147.25 229.38,-154.75 234.63,-154.75"/>
</g>
<!-- inject -->
<g id="node16" class="node">
<title>inject</title>
<path fill="#f0eafe" stroke="#cbd5e1" stroke-width="1.2" d="M288,-58C288,-58 176,-58 176,-58 170,-58 164,-52 164,-46 164,-46 164,-28 164,-28 164,-22 170,-16 176,-16 176,-16 288,-16 288,-16 294,-16 300,-22 300,-28 300,-28 300,-46 300,-46 300,-52 294,-58 288,-58"/>
<text text-anchor="middle" x="232" y="-40.6" font-family="Noto Sans CJK SC" font-size="13.00" fill="#172033">注入会话上下文</text>
<text text-anchor="middle" x="232" y="-26.6" font-family="Noto Sans CJK SC" font-size="13.00" fill="#172033">记录 access_count</text>
</g>
<!-- mmr&#45;&gt;inject -->
<g id="edge16" class="edge">
<title>mmr&#45;&gt;inject</title>
<path fill="none" stroke="#64748b" stroke-width="1.35" d="M232,-104.91C232,-104.91 232,-65.75 232,-65.75"/>
<polygon fill="#64748b" stroke="#64748b" stroke-width="1.35" points="234.63,-65.75 232,-58.25 229.38,-65.75 234.63,-65.75"/>
</g>
<!-- curate -->
<g id="node18" class="node">
<title>curate</title>
<path fill="#fff0d8" stroke="#cbd5e1" stroke-width="1.2" d="M254,-1081C254,-1081 28,-1081 28,-1081 22,-1081 16,-1075 16,-1069 16,-1069 16,-1051 16,-1051 16,-1045 22,-1039 28,-1039 28,-1039 254,-1039 254,-1039 260,-1039 266,-1045 266,-1051 266,-1051 266,-1069 266,-1069 266,-1075 260,-1081 254,-1081"/>
<text text-anchor="middle" x="141" y="-1063.6" font-family="Noto Sans CJK SC" font-size="13.00" fill="#172033">写入 Global / Workspace MEMORY.md</text>
<text text-anchor="middle" x="141" y="-1049.6" font-family="Noto Sans CJK SC" font-size="13.00" fill="#172033">人工可编辑、再次索引</text>
</g>
<!-- consolidate&#45;&gt;curate -->
<g id="edge18" class="edge">
<title>consolidate&#45;&gt;curate</title>
<path fill="none" stroke="#64748b" stroke-width="1.35" d="M167,-1135.95C167,-1135.95 167,-1088.51 167,-1088.51"/>
<polygon fill="#64748b" stroke="#64748b" stroke-width="1.35" points="169.63,-1088.51 167,-1081.01 164.38,-1088.51 169.63,-1088.51"/>
</g>
<!-- curate&#45;&gt;global -->
<g id="edge19" class="edge">
<title>curate&#45;&gt;global</title>
<path fill="none" stroke="#64748b" stroke-width="1.35" d="M161,-1038.69C161,-1010.41 161,-964 161,-964 161,-964 291.27,-964 291.27,-964"/>
<polygon fill="#64748b" stroke="#64748b" stroke-width="1.35" points="291.27,-966.63 298.77,-964 291.27,-961.38 291.27,-966.63"/>
</g>
<!-- curate&#45;&gt;workspace -->
<g id="edge20" class="edge">
<title>curate&#45;&gt;workspace</title>
<path fill="none" stroke="#64748b" stroke-width="1.35" d="M213.5,-1038.85C213.5,-1024.45 213.5,-1008 213.5,-1008 213.5,-1008 470.17,-1008 470.17,-1008 470.17,-1008 470.17,-992.73 470.17,-992.73"/>
<polygon fill="#64748b" stroke="#64748b" stroke-width="1.35" points="472.79,-992.73 470.17,-985.23 467.54,-992.73 472.79,-992.73"/>
</g>
</g>
</svg>
