<?xml version="1.0" encoding="UTF-8" standalone="no"?>
<!DOCTYPE svg PUBLIC "-//W3C//DTD SVG 1.1//EN"
 "http://www.w3.org/Graphics/SVG/1.1/DTD/svg11.dtd">
<!-- Generated by graphviz version 2.42.4 (0)
 -->
<!-- Title: G Pages: 1 -->
<svg width="889pt" height="1117pt"
 viewBox="0.00 0.00 888.50 1117.00" xmlns="http://www.w3.org/2000/svg" xmlns:xlink="http://www.w3.org/1999/xlink">
<g id="graph0" class="graph" transform="scale(1 1) rotate(0) translate(18 1099)">
<title>G</title>
<polygon fill="#fcfdfe" stroke="transparent" points="-18,18 -18,-1099 870.5,-1099 870.5,18 -18,18"/>
<text text-anchor="middle" x="285" y="-1059.4" font-family="Noto Sans CJK SC" font-size="22.00">09. Hooks：发现、去重、匹配、执行与 PreToolUse 策略</text>
<g id="clust1" class="cluster">
<title>cluster_sources</title>
<path fill="#f4f8ff" stroke="#8eb8f8" d="M205.5,-951C205.5,-951 787.5,-951 787.5,-951 793.5,-951 799.5,-957 799.5,-963 799.5,-963 799.5,-1029 799.5,-1029 799.5,-1035 793.5,-1041 787.5,-1041 787.5,-1041 205.5,-1041 205.5,-1041 199.5,-1041 193.5,-1035 193.5,-1029 193.5,-1029 193.5,-963 193.5,-963 193.5,-957 199.5,-951 205.5,-951"/>
<text text-anchor="middle" x="321.5" y="-1019.4" font-family="Noto Sans CJK SC" font-size="22.00">发现来源（按顺序合并）</text>
</g>
<g id="clust2" class="cluster">
<title>cluster_discovery</title>
<path fill="#f3fbf7" stroke="#a7d7c5" d="M373.5,-521C373.5,-521 683.5,-521 683.5,-521 689.5,-521 695.5,-527 695.5,-533 695.5,-533 695.5,-914 695.5,-914 695.5,-920 689.5,-926 683.5,-926 683.5,-926 373.5,-926 373.5,-926 367.5,-926 361.5,-920 361.5,-914 361.5,-914 361.5,-533 361.5,-533 361.5,-527 367.5,-521 373.5,-521"/>
<text text-anchor="middle" x="528.5" y="-904.4" font-family="Noto Sans CJK SC" font-size="22.00">Discovery → HookRegistry 快照</text>
</g>
<g id="clust3" class="cluster">
<title>cluster_dispatch</title>
<path fill="#faf7ff" stroke="#c9b5f4" d="M71.5,-94C71.5,-94 380.5,-94 380.5,-94 386.5,-94 392.5,-100 392.5,-106 392.5,-106 392.5,-484 392.5,-484 392.5,-490 386.5,-496 380.5,-496 380.5,-496 71.5,-496 71.5,-496 65.5,-496 59.5,-490 59.5,-484 59.5,-484 59.5,-106 59.5,-106 59.5,-100 65.5,-94 71.5,-94"/>
<text text-anchor="middle" x="144" y="-474.4" font-family="Noto Sans CJK SC" font-size="22.00">事件分派与策略</text>
</g>
<!-- gsettings -->
<g id="node1" class="node">
<title>gsettings</title>
<path fill="#eaf2ff" stroke="#cbd5e1" stroke-width="1.2" d="M389,-1001C389,-1001 214,-1001 214,-1001 208,-1001 202,-995 202,-989 202,-989 202,-971 202,-971 202,-965 208,-959 214,-959 214,-959 389,-959 389,-959 395,-959 401,-965 401,-971 401,-971 401,-989 401,-989 401,-995 395,-1001 389,-1001"/>
<text text-anchor="middle" x="301.5" y="-983.6" font-family="Noto Sans CJK SC" font-size="13.00" fill="#172033">Global settings / hooks dir</text>
<text text-anchor="middle" x="301.5" y="-969.6" font-family="Noto Sans CJK SC" font-size="13.00" fill="#172033">~/.grok / 兼容 Claude/Cursor</text>
</g>
<!-- scan -->
<g id="node4" class="node">
<title>scan</title>
<path fill="#e7f7ef" stroke="#cbd5e1" stroke-width="1.2" d="M582.5,-886C582.5,-886 474.5,-886 474.5,-886 468.5,-886 462.5,-880 462.5,-874 462.5,-874 462.5,-842 462.5,-842 462.5,-836 468.5,-830 474.5,-830 474.5,-830 582.5,-830 582.5,-830 588.5,-830 594.5,-836 594.5,-842 594.5,-842 594.5,-874 594.5,-874 594.5,-880 588.5,-886 582.5,-886"/>
<text text-anchor="middle" x="528.5" y="-868.6" font-family="Noto Sans CJK SC" font-size="13.00" fill="#172033">扫描 *.json</text>
<text text-anchor="middle" x="528.5" y="-854.6" font-family="Noto Sans CJK SC" font-size="13.00" fill="#172033">忽略隐藏/临时文件</text>
<text text-anchor="middle" x="528.5" y="-840.6" font-family="Noto Sans CJK SC" font-size="13.00" fill="#172033">文件名词典序</text>
</g>
<!-- gsettings&#45;&gt;scan -->
<g id="edge1" class="edge">
<title>gsettings&#45;&gt;scan</title>
<path fill="none" stroke="#64748b" stroke-width="1.35" d="M392.75,-958.75C392.75,-923.8 392.75,-858 392.75,-858 392.75,-858 454.72,-858 454.72,-858"/>
<polygon fill="#64748b" stroke="#64748b" stroke-width="1.35" points="454.72,-860.63 462.22,-858 454.72,-855.38 454.72,-860.63"/>
</g>
<!-- psettings -->
<g id="node2" class="node">
<title>psettings</title>
<path fill="#eaf2ff" stroke="#cbd5e1" stroke-width="1.2" d="M611.5,-1001C611.5,-1001 445.5,-1001 445.5,-1001 439.5,-1001 433.5,-995 433.5,-989 433.5,-989 433.5,-971 433.5,-971 433.5,-965 439.5,-959 445.5,-959 445.5,-959 611.5,-959 611.5,-959 617.5,-959 623.5,-965 623.5,-971 623.5,-971 623.5,-989 623.5,-989 623.5,-995 617.5,-1001 611.5,-1001"/>
<text text-anchor="middle" x="528.5" y="-983.6" font-family="Noto Sans CJK SC" font-size="13.00" fill="#172033">Project settings / hooks dir</text>
<text text-anchor="middle" x="528.5" y="-969.6" font-family="Noto Sans CJK SC" font-size="13.00" fill="#172033">.grok/hooks</text>
</g>
<!-- psettings&#45;&gt;scan -->
<g id="edge2" class="edge">
<title>psettings&#45;&gt;scan</title>
<path fill="none" stroke="#64748b" stroke-width="1.35" d="M528.5,-958.75C528.5,-958.75 528.5,-893.82 528.5,-893.82"/>
<polygon fill="#64748b" stroke="#64748b" stroke-width="1.35" points="531.13,-893.82 528.5,-886.32 525.88,-893.82 531.13,-893.82"/>
</g>
<!-- plugins -->
<g id="node3" class="node">
<title>plugins</title>
<path fill="#eaf2ff" stroke="#cbd5e1" stroke-width="1.2" d="M779.5,-1001C779.5,-1001 667.5,-1001 667.5,-1001 661.5,-1001 655.5,-995 655.5,-989 655.5,-989 655.5,-971 655.5,-971 655.5,-965 661.5,-959 667.5,-959 667.5,-959 779.5,-959 779.5,-959 785.5,-959 791.5,-965 791.5,-971 791.5,-971 791.5,-989 791.5,-989 791.5,-995 785.5,-1001 779.5,-1001"/>
<text text-anchor="middle" x="723.5" y="-983.6" font-family="Noto Sans CJK SC" font-size="13.00" fill="#172033">Plugin hooks</text>
<text text-anchor="middle" x="723.5" y="-969.6" font-family="Noto Sans CJK SC" font-size="13.00" fill="#172033">hooks/hooks.json</text>
</g>
<!-- plugins&#45;&gt;scan -->
<g id="edge3" class="edge">
<title>plugins&#45;&gt;scan</title>
<path fill="none" stroke="#64748b" stroke-width="1.35" d="M723.5,-958.75C723.5,-923.8 723.5,-858 723.5,-858 723.5,-858 602.02,-858 602.02,-858"/>
<polygon fill="#64748b" stroke="#64748b" stroke-width="1.35" points="602.02,-855.38 594.52,-858 602.02,-860.63 602.02,-855.38"/>
</g>
<!-- parse -->
<g id="node5" class="node">
<title>parse</title>
<path fill="#e7f7ef" stroke="#cbd5e1" stroke-width="1.2" d="M625.5,-781C625.5,-781 431.5,-781 431.5,-781 425.5,-781 419.5,-775 419.5,-769 419.5,-769 419.5,-751 419.5,-751 419.5,-745 425.5,-739 431.5,-739 431.5,-739 625.5,-739 625.5,-739 631.5,-739 637.5,-745 637.5,-751 637.5,-751 637.5,-769 637.5,-769 637.5,-775 631.5,-781 625.5,-781"/>
<text text-anchor="middle" x="528.5" y="-763.6" font-family="Noto Sans CJK SC" font-size="13.00" fill="#172033">解析 HookSpec</text>
<text text-anchor="middle" x="528.5" y="-749.6" font-family="Noto Sans CJK SC" font-size="13.00" fill="#172033">command / URL / matcher / env</text>
</g>
<!-- scan&#45;&gt;parse -->
<g id="edge4" class="edge">
<title>scan&#45;&gt;parse</title>
<path fill="none" stroke="#64748b" stroke-width="1.35" d="M528.5,-829.92C528.5,-829.92 528.5,-788.73 528.5,-788.73"/>
<polygon fill="#64748b" stroke="#64748b" stroke-width="1.35" points="531.13,-788.73 528.5,-781.23 525.88,-788.73 531.13,-788.73"/>
</g>
<!-- dedupe -->
<g id="node6" class="node">
<title>dedupe</title>
<path fill="#e7f7ef" stroke="#cbd5e1" stroke-width="1.2" d="M626.5,-690C626.5,-690 430.5,-690 430.5,-690 424.5,-690 418.5,-684 418.5,-678 418.5,-678 418.5,-646 418.5,-646 418.5,-640 424.5,-634 430.5,-634 430.5,-634 626.5,-634 626.5,-634 632.5,-634 638.5,-640 638.5,-646 638.5,-646 638.5,-678 638.5,-678 638.5,-684 632.5,-690 626.5,-690"/>
<text text-anchor="middle" x="528.5" y="-672.6" font-family="Noto Sans CJK SC" font-size="13.00" fill="#172033">跨来源去重</text>
<text text-anchor="middle" x="528.5" y="-658.6" font-family="Noto Sans CJK SC" font-size="13.00" fill="#172033">(event, command, url, matcher)</text>
<text text-anchor="middle" x="528.5" y="-644.6" font-family="Noto Sans CJK SC" font-size="13.00" fill="#172033">Global 先到先得</text>
</g>
<!-- parse&#45;&gt;dedupe -->
<g id="edge5" class="edge">
<title>parse&#45;&gt;dedupe</title>
<path fill="none" stroke="#64748b" stroke-width="1.35" d="M528.5,-738.74C528.5,-738.74 528.5,-697.79 528.5,-697.79"/>
<polygon fill="#64748b" stroke="#64748b" stroke-width="1.35" points="531.13,-697.79 528.5,-690.29 525.88,-697.79 531.13,-697.79"/>
</g>
<!-- registry -->
<g id="node7" class="node">
<title>registry</title>
<path fill="#e7f7ef" stroke="#cbd5e1" stroke-width="1.2" d="M620.5,-585C620.5,-585 436.5,-585 436.5,-585 430.5,-585 424.5,-579 424.5,-573 424.5,-573 424.5,-541 424.5,-541 424.5,-535 430.5,-529 436.5,-529 436.5,-529 620.5,-529 620.5,-529 626.5,-529 632.5,-535 632.5,-541 632.5,-541 632.5,-573 632.5,-573 632.5,-579 626.5,-585 620.5,-585"/>
<text text-anchor="middle" x="528.5" y="-567.6" font-family="Noto Sans CJK SC" font-size="13.00" fill="#172033">HookRegistry</text>
<text text-anchor="middle" x="528.5" y="-553.6" font-family="Noto Sans CJK SC" font-size="13.00" fill="#172033">按 EventName 建索引</text>
<text text-anchor="middle" x="528.5" y="-539.6" font-family="Noto Sans CJK SC" font-size="13.00" fill="#172033">会话级 point&#45;in&#45;time snapshot</text>
</g>
<!-- dedupe&#45;&gt;registry -->
<g id="edge6" class="edge">
<title>dedupe&#45;&gt;registry</title>
<path fill="none" stroke="#64748b" stroke-width="1.35" d="M528.5,-633.86C528.5,-633.86 528.5,-592.72 528.5,-592.72"/>
<polygon fill="#64748b" stroke="#64748b" stroke-width="1.35" points="531.13,-592.72 528.5,-585.22 525.88,-592.72 531.13,-592.72"/>
</g>
<!-- events -->
<g id="node8" class="node">
<title>events</title>
<path fill="#f0eafe" stroke="#cbd5e1" stroke-width="1.2" d="M372.5,-456C372.5,-456 122.5,-456 122.5,-456 116.5,-456 110.5,-450 110.5,-444 110.5,-444 110.5,-412 110.5,-412 110.5,-406 116.5,-400 122.5,-400 122.5,-400 372.5,-400 372.5,-400 378.5,-400 384.5,-406 384.5,-412 384.5,-412 384.5,-444 384.5,-444 384.5,-450 378.5,-456 372.5,-456"/>
<text text-anchor="middle" x="247.5" y="-438.6" font-family="Noto Sans CJK SC" font-size="13.00" fill="#172033">15 类事件</text>
<text text-anchor="middle" x="247.5" y="-424.6" font-family="Noto Sans CJK SC" font-size="13.00" fill="#172033">Session / Prompt / Tool / Permission</text>
<text text-anchor="middle" x="247.5" y="-410.6" font-family="Noto Sans CJK SC" font-size="13.00" fill="#172033">Stop / Notification / Subagent / Compact</text>
</g>
<!-- registry&#45;&gt;events -->
<g id="edge7" class="edge">
<title>registry&#45;&gt;events</title>
<path fill="none" stroke="#64748b" stroke-width="1.35" d="M493.83,-528.87C493.83,-497.47 493.83,-451 493.83,-451 493.83,-451 392.21,-451 392.21,-451"/>
<polygon fill="#64748b" stroke="#64748b" stroke-width="1.35" points="392.21,-448.38 384.71,-451 392.21,-453.63 392.21,-448.38"/>
</g>
<!-- lifecycle -->
<g id="node16" class="node">
<title>lifecycle</title>
<polygon fill="#f8fafc" stroke="#cbd5e1" stroke-width="1.2" points="846.5,-446 416.5,-446 416.5,-410 852.5,-410 852.5,-440 846.5,-446"/>
<polyline fill="none" stroke="#cbd5e1" stroke-width="1.2" points="846.5,-446 846.5,-440 "/>
<polyline fill="none" stroke="#cbd5e1" stroke-width="1.2" points="852.5,-440 846.5,-440 "/>
<text text-anchor="middle" x="634.5" y="-424.6" font-family="Noto Sans CJK SC" font-size="13.00" fill="#172033">源码特性：磁盘修改只在新会话生效；反序列化后会重新编译 matcher。</text>
</g>
<!-- registry&#45;&gt;lifecycle -->
<g id="edge15" class="edge">
<title>registry&#45;&gt;lifecycle</title>
<path fill="none" stroke="#64748b" stroke-width="1.35" stroke-dasharray="5,2" d="M563.17,-528.69C563.17,-503.62 563.17,-467.77 563.17,-446.3"/>
</g>
<!-- filter -->
<g id="node9" class="node">
<title>filter</title>
<path fill="#f0eafe" stroke="#cbd5e1" stroke-width="1.2" d="M349,-351C349,-351 196,-351 196,-351 190,-351 184,-345 184,-339 184,-339 184,-321 184,-321 184,-315 190,-309 196,-309 196,-309 349,-309 349,-309 355,-309 361,-315 361,-321 361,-321 361,-339 361,-339 361,-345 355,-351 349,-351"/>
<text text-anchor="middle" x="272.5" y="-333.6" font-family="Noto Sans CJK SC" font-size="13.00" fill="#172033">enabled + trust/disabled</text>
<text text-anchor="middle" x="272.5" y="-319.6" font-family="Noto Sans CJK SC" font-size="13.00" fill="#172033">Matcher 按工具名过滤</text>
</g>
<!-- events&#45;&gt;filter -->
<g id="edge8" class="edge">
<title>events&#45;&gt;filter</title>
<path fill="none" stroke="#64748b" stroke-width="1.35" d="M272.5,-399.92C272.5,-399.92 272.5,-358.73 272.5,-358.73"/>
<polygon fill="#64748b" stroke="#64748b" stroke-width="1.35" points="275.13,-358.73 272.5,-351.23 269.88,-358.73 275.13,-358.73"/>
</g>
<!-- run -->
<g id="node10" class="node">
<title>run</title>
<path fill="#f0eafe" stroke="#cbd5e1" stroke-width="1.2" d="M356.5,-260C356.5,-260 222.5,-260 222.5,-260 216.5,-260 210.5,-254 210.5,-248 210.5,-248 210.5,-216 210.5,-216 210.5,-210 216.5,-204 222.5,-204 222.5,-204 356.5,-204 356.5,-204 362.5,-204 368.5,-210 368.5,-216 368.5,-216 368.5,-248 368.5,-248 368.5,-254 362.5,-260 356.5,-260"/>
<text text-anchor="middle" x="289.5" y="-242.6" font-family="Noto Sans CJK SC" font-size="13.00" fill="#172033">顺序执行 HookRunner</text>
<text text-anchor="middle" x="289.5" y="-228.6" font-family="Noto Sans CJK SC" font-size="13.00" fill="#172033">子进程或 HTTP</text>
<text text-anchor="middle" x="289.5" y="-214.6" font-family="Noto Sans CJK SC" font-size="13.00" fill="#172033">timeout + 环境变量</text>
</g>
<!-- filter&#45;&gt;run -->
<g id="edge9" class="edge">
<title>filter&#45;&gt;run</title>
<path fill="none" stroke="#64748b" stroke-width="1.35" d="M285.75,-308.74C285.75,-308.74 285.75,-267.79 285.75,-267.79"/>
<polygon fill="#64748b" stroke="#64748b" stroke-width="1.35" points="288.38,-267.79 285.75,-260.29 283.13,-267.79 288.38,-267.79"/>
</g>
<!-- pre -->
<g id="node11" class="node">
<title>pre</title>
<path fill="#ffe9e9" stroke="#f2a6a6" stroke-width="1.2" d="M195,-144C195,-144 80,-144 80,-144 74,-144 68,-138 68,-132 68,-132 68,-114 68,-114 68,-108 74,-102 80,-102 80,-102 195,-102 195,-102 201,-102 207,-108 207,-114 207,-114 207,-132 207,-132 207,-138 201,-144 195,-144"/>
<text text-anchor="middle" x="137.5" y="-126.6" font-family="Noto Sans CJK SC" font-size="13.00" fill="#172033">PreToolUse</text>
<text text-anchor="middle" x="137.5" y="-112.6" font-family="Noto Sans CJK SC" font-size="13.00" fill="#172033">显式 Deny 立即短路</text>
</g>
<!-- run&#45;&gt;pre -->
<g id="edge10" class="edge">
<title>run&#45;&gt;pre</title>
<path fill="none" stroke="#64748b" stroke-width="1.35" d="M224.75,-203.93C224.75,-171.63 224.75,-123 224.75,-123 224.75,-123 214.59,-123 214.59,-123"/>
<polygon fill="#64748b" stroke="#64748b" stroke-width="1.35" points="214.59,-120.38 207.09,-123 214.59,-125.63 214.59,-120.38"/>
<text text-anchor="middle" x="200.5" y="-171.2" font-family="Noto Sans CJK SC" font-size="11.00" fill="#475569">PreToolUse</text>
</g>
<!-- nonblock -->
<g id="node12" class="node">
<title>nonblock</title>
<path fill="#f0eafe" stroke="#cbd5e1" stroke-width="1.2" d="M372,-144C372,-144 251,-144 251,-144 245,-144 239,-138 239,-132 239,-132 239,-114 239,-114 239,-108 245,-102 251,-102 251,-102 372,-102 372,-102 378,-102 384,-108 384,-114 384,-114 384,-132 384,-132 384,-138 378,-144 372,-144"/>
<text text-anchor="middle" x="311.5" y="-126.6" font-family="Noto Sans CJK SC" font-size="13.00" fill="#172033">其他事件</text>
<text text-anchor="middle" x="311.5" y="-112.6" font-family="Noto Sans CJK SC" font-size="13.00" fill="#172033">非阻塞结果与 UI 注解</text>
</g>
<!-- run&#45;&gt;nonblock -->
<g id="edge11" class="edge">
<title>run&#45;&gt;nonblock</title>
<path fill="none" stroke="#64748b" stroke-width="1.35" d="M303.75,-203.93C303.75,-203.93 303.75,-151.59 303.75,-151.59"/>
<polygon fill="#64748b" stroke="#64748b" stroke-width="1.35" points="306.38,-151.59 303.75,-144.09 301.13,-151.59 306.38,-151.59"/>
<text text-anchor="middle" x="323.5" y="-171.2" font-family="Noto Sans CJK SC" font-size="11.00" fill="#475569">其他事件</text>
</g>
<!-- failopen -->
<g id="node15" class="node">
<title>failopen</title>
<polygon fill="#fff8e8" stroke="#f2c66d" stroke-width="1.2" points="719,-144 416,-144 416,-102 725,-102 725,-138 719,-144"/>
<polyline fill="none" stroke="#f2c66d" stroke-width="1.2" points="719,-144 719,-138 "/>
<polyline fill="none" stroke="#f2c66d" stroke-width="1.2" points="725,-138 719,-138 "/>
<text text-anchor="middle" x="570.5" y="-126.6" font-family="Noto Sans CJK SC" font-size="13.00" fill="#172033">失败策略：timeout / crash / malformed output</text>
<text text-anchor="middle" x="570.5" y="-112.6" font-family="Noto Sans CJK SC" font-size="13.00" fill="#172033">记录日志与 scrollback，但默认 fail&#45;open</text>
</g>
<!-- run&#45;&gt;failopen -->
<g id="edge14" class="edge">
<title>run&#45;&gt;failopen</title>
<path fill="none" stroke="#64748b" stroke-width="1.35" stroke-dasharray="5,2" d="M368.59,-232C451.78,-232 570.75,-232 570.75,-232 570.75,-232 570.75,-175.69 570.75,-144.02"/>
</g>
<!-- allow -->
<g id="node13" class="node">
<title>allow</title>
<path fill="#e7f7ef" stroke="#8ac5a8" stroke-width="1.2" d="M89,-39C89,-39 12,-39 12,-39 6,-39 0,-33 0,-27 0,-27 0,-15 0,-15 0,-9 6,-3 12,-3 12,-3 89,-3 89,-3 95,-3 101,-9 101,-15 101,-15 101,-27 101,-27 101,-33 95,-39 89,-39"/>
<text text-anchor="middle" x="50.5" y="-17.6" font-family="Noto Sans CJK SC" font-size="13.00" fill="#172033">允许工具调用</text>
</g>
<!-- pre&#45;&gt;allow -->
<g id="edge13" class="edge">
<title>pre&#45;&gt;allow</title>
<path fill="none" stroke="#64748b" stroke-width="1.35" d="M84.5,-101.87C84.5,-101.87 84.5,-46.54 84.5,-46.54"/>
<polygon fill="#64748b" stroke="#64748b" stroke-width="1.35" points="87.13,-46.54 84.5,-39.04 81.88,-46.54 87.13,-46.54"/>
<text text-anchor="middle" x="114" y="-69.2" font-family="Noto Sans CJK SC" font-size="11.00" fill="#475569">Allow / no match / failure</text>
</g>
<!-- deny -->
<g id="node14" class="node">
<title>deny</title>
<path fill="#ffe9e9" stroke="#f2a6a6" stroke-width="1.2" d="M305.5,-42C305.5,-42 145.5,-42 145.5,-42 139.5,-42 133.5,-36 133.5,-30 133.5,-30 133.5,-12 133.5,-12 133.5,-6 139.5,0 145.5,0 145.5,0 305.5,0 305.5,0 311.5,0 317.5,-6 317.5,-12 317.5,-12 317.5,-30 317.5,-30 317.5,-36 311.5,-42 305.5,-42"/>
<text text-anchor="middle" x="225.5" y="-24.6" font-family="Noto Sans CJK SC" font-size="13.00" fill="#172033">拒绝工具调用</text>
<text text-anchor="middle" x="225.5" y="-10.6" font-family="Noto Sans CJK SC" font-size="13.00" fill="#172033">返回 reason + hook_name</text>
</g>
<!-- pre&#45;&gt;deny -->
<g id="edge12" class="edge">
<title>pre&#45;&gt;deny</title>
<path fill="none" stroke="#64748b" stroke-width="1.35" d="M170.25,-101.87C170.25,-101.87 170.25,-49.61 170.25,-49.61"/>
<polygon fill="#64748b" stroke="#64748b" stroke-width="1.35" points="172.88,-49.61 170.25,-42.11 167.63,-49.61 172.88,-49.61"/>
<text text-anchor="middle" x="263.5" y="-69.2" font-family="Noto Sans CJK SC" font-size="11.00" fill="#475569">Decision::Deny</text>
</g>
</g>
</svg>
