<?xml version="1.0" encoding="UTF-8" standalone="no"?>
<!DOCTYPE svg PUBLIC "-//W3C//DTD SVG 1.1//EN"
 "http://www.w3.org/Graphics/SVG/1.1/DTD/svg11.dtd">
<!-- Generated by graphviz version 2.42.4 (0)
 -->
<!-- Title: G Pages: 1 -->
<svg width="1710pt" height="813pt"
 viewBox="0.00 0.00 1710.00 813.00" xmlns="http://www.w3.org/2000/svg" xmlns:xlink="http://www.w3.org/1999/xlink">
<g id="graph0" class="graph" transform="scale(1 1) rotate(0) translate(18 795)">
<title>G</title>
<polygon fill="#fcfdfe" stroke="transparent" points="-18,18 -18,-795 1692,-795 1692,18 -18,18"/>
<text text-anchor="middle" x="301" y="-755.4" font-family="Noto Sans CJK SC" font-size="22.00">10. Sandbox：Profile、bwrap、内核能力与子进程网络隔离</text>
<g id="clust1" class="cluster">
<title>cluster_profile</title>
<path fill="#f4f8ff" stroke="#8eb8f8" d="M100.5,-342C100.5,-342 346.5,-342 346.5,-342 352.5,-342 358.5,-348 358.5,-354 358.5,-354 358.5,-658 358.5,-658 358.5,-664 352.5,-670 346.5,-670 346.5,-670 100.5,-670 100.5,-670 94.5,-670 88.5,-664 88.5,-658 88.5,-658 88.5,-354 88.5,-354 88.5,-348 94.5,-342 100.5,-342"/>
<text text-anchor="middle" x="155" y="-648.4" font-family="Noto Sans CJK SC" font-size="22.00">Profile 解析</text>
</g>
<g id="clust2" class="cluster">
<title>cluster_linux</title>
<path fill="#f3fbf7" stroke="#a7d7c5" d="M672.5,-108C672.5,-108 1163.5,-108 1163.5,-108 1169.5,-108 1175.5,-114 1175.5,-120 1175.5,-120 1175.5,-298 1175.5,-298 1175.5,-304 1169.5,-310 1163.5,-310 1163.5,-310 672.5,-310 672.5,-310 666.5,-310 660.5,-304 660.5,-298 660.5,-298 660.5,-120 660.5,-120 660.5,-114 666.5,-108 672.5,-108"/>
<text text-anchor="middle" x="831" y="-288.4" font-family="Noto Sans CJK SC" font-size="22.00">Linux 预启动 Mount Namespace</text>
</g>
<g id="clust3" class="cluster">
<title>cluster_kernel</title>
<path fill="#faf7ff" stroke="#c9b5f4" d="M385.5,-213C385.5,-213 627.5,-213 627.5,-213 633.5,-213 639.5,-219 639.5,-225 639.5,-225 639.5,-427 639.5,-427 639.5,-433 633.5,-439 627.5,-439 627.5,-439 385.5,-439 385.5,-439 379.5,-439 373.5,-433 373.5,-427 373.5,-427 373.5,-225 373.5,-225 373.5,-219 379.5,-213 385.5,-213"/>
<text text-anchor="middle" x="506.5" y="-417.4" font-family="Noto Sans CJK SC" font-size="22.00">进程级内核沙箱（nono）</text>
</g>
<!-- start -->
<g id="node1" class="node">
<title>start</title>
<path fill="#eaf2ff" stroke="#cbd5e1" stroke-width="1.2" d="M320,-745C320,-745 195,-745 195,-745 189,-745 183,-739 183,-733 183,-733 183,-715 183,-715 183,-709 189,-703 195,-703 195,-703 320,-703 320,-703 326,-703 332,-709 332,-715 332,-715 332,-733 332,-733 332,-739 326,-745 320,-745"/>
<text text-anchor="middle" x="257.5" y="-727.6" font-family="Noto Sans CJK SC" font-size="13.00" fill="#172033">进程启动</text>
<text text-anchor="middle" x="257.5" y="-713.6" font-family="Noto Sans CJK SC" font-size="13.00" fill="#172033">解析 sandbox profile</text>
</g>
<!-- config -->
<g id="node2" class="node">
<title>config</title>
<path fill="#eaf2ff" stroke="#cbd5e1" stroke-width="1.2" d="M339,-630C339,-630 176,-630 176,-630 170,-630 164,-624 164,-618 164,-618 164,-600 164,-600 164,-594 170,-588 176,-588 176,-588 339,-588 339,-588 345,-588 351,-594 351,-600 351,-600 351,-618 351,-618 351,-624 345,-630 339,-630"/>
<text text-anchor="middle" x="257.5" y="-612.6" font-family="Noto Sans CJK SC" font-size="13.00" fill="#172033">内置 / Custom Profile</text>
<text text-anchor="middle" x="257.5" y="-598.6" font-family="Noto Sans CJK SC" font-size="13.00" fill="#172033">workspace + sandbox.toml</text>
</g>
<!-- start&#45;&gt;config -->
<g id="edge1" class="edge">
<title>start&#45;&gt;config</title>
<path fill="none" stroke="#64748b" stroke-width="1.35" d="M257.5,-702.91C257.5,-702.91 257.5,-637.85 257.5,-637.85"/>
<polygon fill="#64748b" stroke="#64748b" stroke-width="1.35" points="260.13,-637.85 257.5,-630.35 254.88,-637.85 260.13,-637.85"/>
</g>
<!-- resolve -->
<g id="node3" class="node">
<title>resolve</title>
<path fill="#eaf2ff" stroke="#cbd5e1" stroke-width="1.2" d="M339,-539C339,-539 176,-539 176,-539 170,-539 164,-533 164,-527 164,-527 164,-495 164,-495 164,-489 170,-483 176,-483 176,-483 339,-483 339,-483 345,-483 351,-489 351,-495 351,-495 351,-527 351,-527 351,-533 345,-539 339,-539"/>
<text text-anchor="middle" x="257.5" y="-521.6" font-family="Noto Sans CJK SC" font-size="13.00" fill="#172033">resolve_profile</text>
<text text-anchor="middle" x="257.5" y="-507.6" font-family="Noto Sans CJK SC" font-size="13.00" fill="#172033">capability set + deny paths</text>
<text text-anchor="middle" x="257.5" y="-493.6" font-family="Noto Sans CJK SC" font-size="13.00" fill="#172033">restrict_network</text>
</g>
<!-- config&#45;&gt;resolve -->
<g id="edge2" class="edge">
<title>config&#45;&gt;resolve</title>
<path fill="none" stroke="#64748b" stroke-width="1.35" d="M257.5,-587.74C257.5,-587.74 257.5,-546.79 257.5,-546.79"/>
<polygon fill="#64748b" stroke="#64748b" stroke-width="1.35" points="260.13,-546.79 257.5,-539.29 254.88,-546.79 260.13,-546.79"/>
</g>
<!-- guard -->
<g id="node4" class="node">
<title>guard</title>
<path fill="#ffe9e9" stroke="#f2a6a6" stroke-width="1.2" d="M338.5,-392C338.5,-392 108.5,-392 108.5,-392 102.5,-392 96.5,-386 96.5,-380 96.5,-380 96.5,-362 96.5,-362 96.5,-356 102.5,-350 108.5,-350 108.5,-350 338.5,-350 338.5,-350 344.5,-350 350.5,-356 350.5,-362 350.5,-362 350.5,-380 350.5,-380 350.5,-386 344.5,-392 338.5,-392"/>
<text text-anchor="middle" x="223.5" y="-374.6" font-family="Noto Sans CJK SC" font-size="13.00" fill="#172033">读拒绝需求判定</text>
<text text-anchor="middle" x="223.5" y="-360.6" font-family="Noto Sans CJK SC" font-size="13.00" fill="#172033">配置本征判断，避免解析失败时静默降级</text>
</g>
<!-- resolve&#45;&gt;guard -->
<g id="edge3" class="edge">
<title>resolve&#45;&gt;guard</title>
<path fill="none" stroke="#64748b" stroke-width="1.35" d="M226.17,-482.67C226.17,-482.67 226.17,-399.93 226.17,-399.93"/>
<polygon fill="#64748b" stroke="#64748b" stroke-width="1.35" points="228.79,-399.93 226.17,-392.43 223.54,-399.93 228.79,-399.93"/>
</g>
<!-- plan -->
<g id="node5" class="node">
<title>plan</title>
<path fill="#e7f7ef" stroke="#cbd5e1" stroke-width="1.2" d="M874,-270C874,-270 681,-270 681,-270 675,-270 669,-264 669,-258 669,-258 669,-240 669,-240 669,-234 675,-228 681,-228 681,-228 874,-228 874,-228 880,-228 886,-234 886,-240 886,-240 886,-258 886,-258 886,-264 880,-270 874,-270"/>
<text text-anchor="middle" x="777.5" y="-252.6" font-family="Noto Sans CJK SC" font-size="13.00" fill="#172033">BwrapDenyPlan</text>
<text text-anchor="middle" x="777.5" y="-238.6" font-family="Noto Sans CJK SC" font-size="13.00" fill="#172033">deny_write / deny_read / globs</text>
</g>
<!-- resolve&#45;&gt;plan -->
<g id="edge4" class="edge">
<title>resolve&#45;&gt;plan</title>
<path fill="none" stroke="#64748b" stroke-width="1.35" d="M351.07,-511C500.78,-511 777.5,-511 777.5,-511 777.5,-511 777.5,-277.94 777.5,-277.94"/>
<polygon fill="#64748b" stroke="#64748b" stroke-width="1.35" points="780.13,-277.94 777.5,-270.44 774.88,-277.94 780.13,-277.94"/>
<text text-anchor="middle" x="742.5" y="-368.2" font-family="Noto Sans CJK SC" font-size="11.00" fill="#475569">Linux</text>
</g>
<!-- apply -->
<g id="node8" class="node">
<title>apply</title>
<path fill="#f0eafe" stroke="#cbd5e1" stroke-width="1.2" d="M572,-399C572,-399 395,-399 395,-399 389,-399 383,-393 383,-387 383,-387 383,-355 383,-355 383,-349 389,-343 395,-343 395,-343 572,-343 572,-343 578,-343 584,-349 584,-355 584,-355 584,-387 584,-387 584,-393 578,-399 572,-399"/>
<text text-anchor="middle" x="483.5" y="-381.6" font-family="Noto Sans CJK SC" font-size="13.00" fill="#172033">Sandbox::apply(capabilities)</text>
<text text-anchor="middle" x="483.5" y="-367.6" font-family="Noto Sans CJK SC" font-size="13.00" fill="#172033">Landlock / Seatbelt</text>
<text text-anchor="middle" x="483.5" y="-353.6" font-family="Noto Sans CJK SC" font-size="13.00" fill="#172033">不可逆</text>
</g>
<!-- resolve&#45;&gt;apply -->
<g id="edge7" class="edge">
<title>resolve&#45;&gt;apply</title>
<path fill="none" stroke="#64748b" stroke-width="1.35" d="M288.33,-482.92C288.33,-448.59 288.33,-395 288.33,-395 288.33,-395 375.27,-395 375.27,-395"/>
<polygon fill="#64748b" stroke="#64748b" stroke-width="1.35" points="375.27,-397.63 382.77,-395 375.27,-392.38 375.27,-397.63"/>
<text text-anchor="middle" x="424" y="-450.2" font-family="Noto Sans CJK SC" font-size="11.00" fill="#475569">macOS / 已在 bwrap</text>
</g>
<!-- degrade -->
<g id="node12" class="node">
<title>degrade</title>
<polygon fill="#fff8e8" stroke="#f2c66d" stroke-width="1.2" points="359,-270 0,-270 0,-228 365,-228 365,-264 359,-270"/>
<polyline fill="none" stroke="#f2c66d" stroke-width="1.2" points="359,-270 359,-264 "/>
<polyline fill="none" stroke="#f2c66d" stroke-width="1.2" points="365,-264 359,-264 "/>
<text text-anchor="middle" x="182.5" y="-252.6" font-family="Noto Sans CJK SC" font-size="13.00" fill="#172033">平台不支持时：记录 apply_failed 并继续；</text>
<text text-anchor="middle" x="182.5" y="-238.6" font-family="Noto Sans CJK SC" font-size="13.00" fill="#172033">但需要 read&#45;deny / glob 超限的启动路径采用 fail&#45;closed。</text>
</g>
<!-- guard&#45;&gt;degrade -->
<g id="edge13" class="edge">
<title>guard&#45;&gt;degrade</title>
<path fill="none" stroke="#64748b" stroke-width="1.35" stroke-dasharray="5,2" d="M223.5,-349.75C223.5,-327.36 223.5,-292.31 223.5,-270.01"/>
</g>
<!-- bwrap -->
<g id="node6" class="node">
<title>bwrap</title>
<path fill="#e7f7ef" stroke="#cbd5e1" stroke-width="1.2" d="M874,-172C874,-172 681,-172 681,-172 675,-172 669,-166 669,-160 669,-160 669,-128 669,-128 669,-122 675,-116 681,-116 681,-116 874,-116 874,-116 880,-116 886,-122 886,-128 886,-128 886,-160 886,-160 886,-166 880,-172 874,-172"/>
<text text-anchor="middle" x="777.5" y="-154.6" font-family="Noto Sans CJK SC" font-size="13.00" fill="#172033">bwrap re&#45;exec</text>
<text text-anchor="middle" x="777.5" y="-140.6" font-family="Noto Sans CJK SC" font-size="13.00" fill="#172033">ro&#45;bind 写拒绝路径</text>
<text text-anchor="middle" x="777.5" y="-126.6" font-family="Noto Sans CJK SC" font-size="13.00" fill="#172033">000 placeholder 覆盖读拒绝路径</text>
</g>
<!-- plan&#45;&gt;bwrap -->
<g id="edge5" class="edge">
<title>plan&#45;&gt;bwrap</title>
<path fill="none" stroke="#64748b" stroke-width="1.35" d="M777.5,-227.75C777.5,-227.75 777.5,-179.88 777.5,-179.88"/>
<polygon fill="#64748b" stroke="#64748b" stroke-width="1.35" points="780.13,-179.88 777.5,-172.38 774.88,-179.88 780.13,-179.88"/>
</g>
<!-- bwrap&#45;&gt;apply -->
<g id="edge6" class="edge">
<title>bwrap&#45;&gt;apply</title>
<path fill="none" stroke="#64748b" stroke-width="1.35" d="M668.74,-168C621.61,-168 577,-168 577,-168 577,-168 577,-335.27 577,-335.27"/>
<polygon fill="#64748b" stroke="#64748b" stroke-width="1.35" points="574.38,-335.27 577,-342.77 579.63,-335.27 574.38,-335.27"/>
</g>
<!-- seccomp -->
<g id="node7" class="node">
<title>seccomp</title>
<path fill="#e7f7ef" stroke="#cbd5e1" stroke-width="1.2" d="M1155,-270C1155,-270 930,-270 930,-270 924,-270 918,-264 918,-258 918,-258 918,-240 918,-240 918,-234 924,-228 930,-228 930,-228 1155,-228 1155,-228 1161,-228 1167,-234 1167,-240 1167,-240 1167,-258 1167,-258 1167,-264 1161,-270 1155,-270"/>
<text text-anchor="middle" x="1042.5" y="-252.6" font-family="Noto Sans CJK SC" font-size="13.00" fill="#172033">子进程网络过滤</text>
<text text-anchor="middle" x="1042.5" y="-238.6" font-family="Noto Sans CJK SC" font-size="13.00" fill="#172033">已知 Linux launch path 安装 seccomp</text>
</g>
<!-- tools -->
<g id="node10" class="node">
<title>tools</title>
<path fill="#fff0d8" stroke="#f1c58b" stroke-width="1.2" d="M605.5,-165C605.5,-165 473.5,-165 473.5,-165 467.5,-165 461.5,-159 461.5,-153 461.5,-153 461.5,-135 461.5,-135 461.5,-129 467.5,-123 473.5,-123 473.5,-123 605.5,-123 605.5,-123 611.5,-123 617.5,-129 617.5,-135 617.5,-135 617.5,-153 617.5,-153 617.5,-159 611.5,-165 605.5,-165"/>
<text text-anchor="middle" x="539.5" y="-147.6" font-family="Noto Sans CJK SC" font-size="13.00" fill="#172033">Agent 工具与 tokio::fs</text>
<text text-anchor="middle" x="539.5" y="-133.6" font-family="Noto Sans CJK SC" font-size="13.00" fill="#172033">子进程 Bash / PTY</text>
</g>
<!-- seccomp&#45;&gt;tools -->
<g id="edge11" class="edge">
<title>seccomp&#45;&gt;tools</title>
<path fill="none" stroke="#64748b" stroke-width="1.35" d="M1001,-227.91C1001,-225.56 1001,-224 1001,-224 1001,-224 600.75,-224 600.75,-224 600.75,-224 600.75,-172.52 600.75,-172.52"/>
<polygon fill="#64748b" stroke="#64748b" stroke-width="1.35" points="603.38,-172.52 600.75,-165.02 598.13,-172.52 603.38,-172.52"/>
</g>
<!-- note -->
<g id="node13" class="node">
<title>note</title>
<polygon fill="#f8fafc" stroke="#cbd5e1" stroke-width="1.2" points="1668,-162 1183,-162 1183,-126 1674,-126 1674,-156 1668,-162"/>
<polyline fill="none" stroke="#cbd5e1" stroke-width="1.2" points="1668,-162 1668,-156 "/>
<polyline fill="none" stroke="#cbd5e1" stroke-width="1.2" points="1674,-156 1668,-156 "/>
<text text-anchor="middle" x="1428.5" y="-140.6" font-family="Noto Sans CJK SC" font-size="13.00" fill="#172033">边界设计：LLM API 所需网络保留在主进程；工具子进程网络按 profile 单独限制。</text>
</g>
<!-- seccomp&#45;&gt;note -->
<g id="edge15" class="edge">
<title>seccomp&#45;&gt;note</title>
<path fill="none" stroke="#64748b" stroke-width="1.35" stroke-dasharray="5,2" d="M1084,-227.75C1084,-197.07 1084,-144 1084,-144 1084,-144 1127.05,-144 1182.72,-144"/>
</g>
<!-- install -->
<g id="node9" class="node">
<title>install</title>
<path fill="#f0eafe" stroke="#cbd5e1" stroke-width="1.2" d="M558,-277C558,-277 409,-277 409,-277 403,-277 397,-271 397,-265 397,-265 397,-233 397,-233 397,-227 403,-221 409,-221 409,-221 558,-221 558,-221 564,-221 570,-227 570,-233 570,-233 570,-265 570,-265 570,-271 564,-277 558,-277"/>
<text text-anchor="middle" x="483.5" y="-259.6" font-family="Noto Sans CJK SC" font-size="13.00" fill="#172033">全局 SandboxState</text>
<text text-anchor="middle" x="483.5" y="-245.6" font-family="Noto Sans CJK SC" font-size="13.00" fill="#172033">profile / logger / metrics</text>
<text text-anchor="middle" x="483.5" y="-231.6" font-family="Noto Sans CJK SC" font-size="13.00" fill="#172033">child network flag</text>
</g>
<!-- apply&#45;&gt;install -->
<g id="edge8" class="edge">
<title>apply&#45;&gt;install</title>
<path fill="none" stroke="#64748b" stroke-width="1.35" d="M483.5,-342.7C483.5,-342.7 483.5,-284.64 483.5,-284.64"/>
<polygon fill="#64748b" stroke="#64748b" stroke-width="1.35" points="486.13,-284.64 483.5,-277.14 480.88,-284.64 486.13,-284.64"/>
</g>
<!-- apply&#45;&gt;degrade -->
<g id="edge14" class="edge">
<title>apply&#45;&gt;degrade</title>
<path fill="none" stroke="#64748b" stroke-width="1.35" stroke-dasharray="5,2" d="M382.79,-346C368.2,-346 358,-346 358,-346 358,-346 358,-298.58 358,-270.05"/>
</g>
<!-- install&#45;&gt;seccomp -->
<g id="edge10" class="edge">
<title>install&#45;&gt;seccomp</title>
<path fill="none" stroke="#64748b" stroke-width="1.35" d="M570.23,-273C727.24,-273 1042.5,-273 1042.5,-273 1042.5,-273 1042.5,-272.71 1042.5,-272.71"/>
<polygon fill="#64748b" stroke="#64748b" stroke-width="1.35" points="1045.13,-277.56 1042.5,-270.06 1039.88,-277.56 1045.13,-277.56"/>
</g>
<!-- install&#45;&gt;tools -->
<g id="edge9" class="edge">
<title>install&#45;&gt;tools</title>
<path fill="none" stroke="#64748b" stroke-width="1.35" d="M515.75,-220.86C515.75,-220.86 515.75,-172.72 515.75,-172.72"/>
<polygon fill="#64748b" stroke="#64748b" stroke-width="1.35" points="518.38,-172.72 515.75,-165.22 513.13,-172.72 518.38,-172.72"/>
</g>
<!-- violation -->
<g id="node11" class="node">
<title>violation</title>
<path fill="#ffe9e9" stroke="#f2a6a6" stroke-width="1.2" d="M604,-56C604,-56 475,-56 475,-56 469,-56 463,-50 463,-44 463,-44 463,-12 463,-12 463,-6 469,0 475,0 475,0 604,0 604,0 610,0 616,-6 616,-12 616,-12 616,-44 616,-44 616,-50 610,-56 604,-56"/>
<text text-anchor="middle" x="539.5" y="-38.6" font-family="Noto Sans CJK SC" font-size="13.00" fill="#172033">SandboxLogger</text>
<text text-anchor="middle" x="539.5" y="-24.6" font-family="Noto Sans CJK SC" font-size="13.00" fill="#172033">违规事件立即 flush</text>
<text text-anchor="middle" x="539.5" y="-10.6" font-family="Noto Sans CJK SC" font-size="13.00" fill="#172033">metrics / diagnostics</text>
</g>
<!-- tools&#45;&gt;violation -->
<g id="edge12" class="edge">
<title>tools&#45;&gt;violation</title>
<path fill="none" stroke="#64748b" stroke-width="1.35" d="M539.5,-122.99C539.5,-122.99 539.5,-63.77 539.5,-63.77"/>
<polygon fill="#64748b" stroke="#64748b" stroke-width="1.35" points="542.13,-63.77 539.5,-56.27 536.88,-63.77 542.13,-63.77"/>
<text text-anchor="middle" x="562.5" y="-83.2" font-family="Noto Sans CJK SC" font-size="11.00" fill="#475569">越权访问</text>
</g>
</g>
</svg>
