<?xml version="1.0" encoding="UTF-8" standalone="no"?>
<!DOCTYPE svg PUBLIC "-//W3C//DTD SVG 1.1//EN"
 "http://www.w3.org/Graphics/SVG/1.1/DTD/svg11.dtd">
<!-- Generated by graphviz version 2.42.4 (0)
 -->
<!-- Title: G Pages: 1 -->
<svg width="1093pt" height="1196pt"
 viewBox="0.00 0.00 1093.00 1196.00" xmlns="http://www.w3.org/2000/svg" xmlns:xlink="http://www.w3.org/1999/xlink">
<g id="graph0" class="graph" transform="scale(1 1) rotate(0) translate(18 1178)">
<title>G</title>
<polygon fill="#fcfdfe" stroke="transparent" points="-18,18 -18,-1178 1075,-1178 1075,18 -18,18"/>
<text text-anchor="middle" x="316.5" y="-1138.4" font-family="Noto Sans CJK SC" font-size="22.00">11. Crash Handler：启动检测、信号安全落盘与下次启动符号化</text>
<g id="clust1" class="cluster">
<title>cluster_boot</title>
<path fill="#f4f8ff" stroke="#8eb8f8" d="M535,-8C535,-8 767,-8 767,-8 773,-8 779,-14 779,-20 779,-20 779,-373 779,-373 779,-379 773,-385 767,-385 767,-385 535,-385 535,-385 529,-385 523,-379 523,-373 523,-373 523,-20 523,-20 523,-14 529,-8 535,-8"/>
<text text-anchor="middle" x="651" y="-363.4" font-family="Noto Sans CJK SC" font-size="22.00">下一次启动：恢复与诊断</text>
</g>
<g id="clust2" class="cluster">
<title>cluster_install</title>
<path fill="#f3fbf7" stroke="#a7d7c5" d="M487,-834C487,-834 683,-834 683,-834 689,-834 695,-840 695,-846 695,-846 695,-1108 695,-1108 695,-1114 689,-1120 683,-1120 683,-1120 487,-1120 487,-1120 481,-1120 475,-1114 475,-1108 475,-1108 475,-846 475,-846 475,-840 481,-834 487,-834"/>
<text text-anchor="middle" x="581" y="-1098.4" font-family="Noto Sans CJK SC" font-size="22.00">当前进程：尽早安装</text>
</g>
<g id="clust3" class="cluster">
<title>cluster_crash</title>
<path fill="#fff7f7" stroke="#f2a6a6" d="M20,-421C20,-421 413,-421 413,-421 419,-421 425,-427 425,-433 425,-433 425,-786 425,-786 425,-792 419,-798 413,-798 413,-798 20,-798 20,-798 14,-798 8,-792 8,-786 8,-786 8,-433 8,-433 8,-427 14,-421 20,-421"/>
<text text-anchor="middle" x="216.5" y="-776.4" font-family="Noto Sans CJK SC" font-size="22.00">Crash Signal Path（async&#45;signal&#45;safe）</text>
</g>
<!-- check -->
<g id="node1" class="node">
<title>check</title>
<path fill="#eaf2ff" stroke="#cbd5e1" stroke-width="1.2" d="M708,-345C708,-345 560,-345 560,-345 554,-345 548,-339 548,-333 548,-333 548,-315 548,-315 548,-309 554,-303 560,-303 560,-303 708,-303 708,-303 714,-303 720,-309 720,-315 720,-315 720,-333 720,-333 720,-339 714,-345 708,-345"/>
<text text-anchor="middle" x="634" y="-327.6" font-family="Noto Sans CJK SC" font-size="13.00" fill="#172033">check_previous_crash()</text>
<text text-anchor="middle" x="634" y="-313.6" font-family="Noto Sans CJK SC" font-size="13.00" fill="#172033">必须先于 install</text>
</g>
<!-- parse -->
<g id="node2" class="node">
<title>parse</title>
<path fill="#eaf2ff" stroke="#cbd5e1" stroke-width="1.2" d="M700,-254C700,-254 588,-254 588,-254 582,-254 576,-248 576,-242 576,-242 576,-224 576,-224 576,-218 582,-212 588,-212 588,-212 700,-212 700,-212 706,-212 712,-218 712,-224 712,-224 712,-242 712,-242 712,-248 706,-254 700,-254"/>
<text text-anchor="middle" x="644" y="-236.6" font-family="Noto Sans CJK SC" font-size="13.00" fill="#172033">读取 last&#45;crash.bin</text>
<text text-anchor="middle" x="644" y="-222.6" font-family="Noto Sans CJK SC" font-size="13.00" fill="#172033">解析 CrashBlob</text>
</g>
<!-- check&#45;&gt;parse -->
<g id="edge1" class="edge">
<title>check&#45;&gt;parse</title>
<path fill="none" stroke="#64748b" stroke-width="1.35" d="M644,-302.89C644,-302.89 644,-261.81 644,-261.81"/>
<polygon fill="#64748b" stroke="#64748b" stroke-width="1.35" points="646.63,-261.81 644,-254.31 641.38,-261.81 646.63,-261.81"/>
</g>
<!-- sym -->
<g id="node3" class="node">
<title>sym</title>
<path fill="#eaf2ff" stroke="#cbd5e1" stroke-width="1.2" d="M734,-163C734,-163 568,-163 568,-163 562,-163 556,-157 556,-151 556,-151 556,-133 556,-133 556,-127 562,-121 568,-121 568,-121 734,-121 734,-121 740,-121 746,-127 746,-133 746,-133 746,-151 746,-151 746,-157 740,-163 734,-163"/>
<text text-anchor="middle" x="651" y="-145.6" font-family="Noto Sans CJK SC" font-size="13.00" fill="#172033">Symbolicate</text>
<text text-anchor="middle" x="651" y="-131.6" font-family="Noto Sans CJK SC" font-size="13.00" fill="#172033">解析指令地址与 frame chain</text>
</g>
<!-- parse&#45;&gt;sym -->
<g id="edge2" class="edge">
<title>parse&#45;&gt;sym</title>
<path fill="none" stroke="#64748b" stroke-width="1.35" d="M644,-211.89C644,-211.89 644,-170.81 644,-170.81"/>
<polygon fill="#64748b" stroke="#64748b" stroke-width="1.35" points="646.63,-170.81 644,-163.31 641.38,-170.81 646.63,-170.81"/>
</g>
<!-- report -->
<g id="node4" class="node">
<title>report</title>
<path fill="#eaf2ff" stroke="#cbd5e1" stroke-width="1.2" d="M739.5,-72C739.5,-72 600.5,-72 600.5,-72 594.5,-72 588.5,-66 588.5,-60 588.5,-60 588.5,-28 588.5,-28 588.5,-22 594.5,-16 600.5,-16 600.5,-16 739.5,-16 739.5,-16 745.5,-16 751.5,-22 751.5,-28 751.5,-28 751.5,-60 751.5,-60 751.5,-66 745.5,-72 739.5,-72"/>
<text text-anchor="middle" x="670" y="-54.6" font-family="Noto Sans CJK SC" font-size="13.00" fill="#172033">写 last&#45;crash&#45;report.txt</text>
<text text-anchor="middle" x="670" y="-40.6" font-family="Noto Sans CJK SC" font-size="13.00" fill="#172033">权限 0600</text>
<text text-anchor="middle" x="670" y="-26.6" font-family="Noto Sans CJK SC" font-size="13.00" fill="#172033">归档 history/ 保留 5 份</text>
</g>
<!-- sym&#45;&gt;report -->
<g id="edge3" class="edge">
<title>sym&#45;&gt;report</title>
<path fill="none" stroke="#64748b" stroke-width="1.35" d="M667.25,-120.74C667.25,-120.74 667.25,-79.79 667.25,-79.79"/>
<polygon fill="#64748b" stroke="#64748b" stroke-width="1.35" points="669.88,-79.79 667.25,-72.29 664.63,-79.79 669.88,-79.79"/>
</g>
<!-- early -->
<g id="node5" class="node">
<title>early</title>
<path fill="#e7f7ef" stroke="#cbd5e1" stroke-width="1.2" d="M669,-1080C669,-1080 515,-1080 515,-1080 509,-1080 503,-1074 503,-1068 503,-1068 503,-1050 503,-1050 503,-1044 509,-1038 515,-1038 515,-1038 669,-1038 669,-1038 675,-1038 681,-1044 681,-1050 681,-1050 681,-1068 681,-1068 681,-1074 675,-1080 669,-1080"/>
<text text-anchor="middle" x="592" y="-1062.6" font-family="Noto Sans CJK SC" font-size="13.00" fill="#172033">main() 早期</text>
<text text-anchor="middle" x="592" y="-1048.6" font-family="Noto Sans CJK SC" font-size="13.00" fill="#172033">异步 runtime / 线程启动前</text>
</g>
<!-- report&#45;&gt;early -->
<g id="edge4" class="edge">
<title>report&#45;&gt;early</title>
<path fill="none" stroke="#64748b" stroke-width="1.35" d="M588.42,-44C517.15,-44 425,-44 425,-44 425,-44 425,-1059 425,-1059 425,-1059 495.13,-1059 495.13,-1059"/>
<polygon fill="#64748b" stroke="#64748b" stroke-width="1.35" points="495.13,-1061.63 502.63,-1059 495.13,-1056.38 495.13,-1061.63"/>
</g>
<!-- termonly -->
<g id="node6" class="node">
<title>termonly</title>
<path fill="#e7f7ef" stroke="#cbd5e1" stroke-width="1.2" d="M675.5,-989C675.5,-989 494.5,-989 494.5,-989 488.5,-989 482.5,-983 482.5,-977 482.5,-977 482.5,-959 482.5,-959 482.5,-953 488.5,-947 494.5,-947 494.5,-947 675.5,-947 675.5,-947 681.5,-947 687.5,-953 687.5,-959 687.5,-959 687.5,-977 687.5,-977 687.5,-983 681.5,-989 675.5,-989"/>
<text text-anchor="middle" x="585" y="-971.6" font-family="Noto Sans CJK SC" font-size="13.00" fill="#172033">可选 terminal&#45;restore&#45;only</text>
<text text-anchor="middle" x="585" y="-957.6" font-family="Noto Sans CJK SC" font-size="13.00" fill="#172033">保存 termios + alternate stack</text>
</g>
<!-- early&#45;&gt;termonly -->
<g id="edge5" class="edge">
<title>early&#45;&gt;termonly</title>
<path fill="none" stroke="#64748b" stroke-width="1.35" d="M592,-1037.89C592,-1037.89 592,-996.81 592,-996.81"/>
<polygon fill="#64748b" stroke="#64748b" stroke-width="1.35" points="594.63,-996.81 592,-989.31 589.38,-996.81 594.63,-996.81"/>
</g>
<!-- install -->
<g id="node7" class="node">
<title>install</title>
<path fill="#e7f7ef" stroke="#cbd5e1" stroke-width="1.2" d="M642.5,-898C642.5,-898 499.5,-898 499.5,-898 493.5,-898 487.5,-892 487.5,-886 487.5,-886 487.5,-854 487.5,-854 487.5,-848 493.5,-842 499.5,-842 499.5,-842 642.5,-842 642.5,-842 648.5,-842 654.5,-848 654.5,-854 654.5,-854 654.5,-886 654.5,-886 654.5,-892 648.5,-898 642.5,-898"/>
<text text-anchor="middle" x="571" y="-880.6" font-family="Noto Sans CJK SC" font-size="13.00" fill="#172033">install(config)</text>
<text text-anchor="middle" x="571" y="-866.6" font-family="Noto Sans CJK SC" font-size="13.00" fill="#172033">创建/截断 last&#45;crash.bin</text>
<text text-anchor="middle" x="571" y="-852.6" font-family="Noto Sans CJK SC" font-size="13.00" fill="#172033">注册平台 handler</text>
</g>
<!-- termonly&#45;&gt;install -->
<g id="edge6" class="edge">
<title>termonly&#45;&gt;install</title>
<path fill="none" stroke="#64748b" stroke-width="1.35" d="M571,-946.74C571,-946.74 571,-905.79 571,-905.79"/>
<polygon fill="#64748b" stroke="#64748b" stroke-width="1.35" points="573.63,-905.79 571,-898.29 568.38,-905.79 573.63,-905.79"/>
</g>
<!-- signal -->
<g id="node8" class="node">
<title>signal</title>
<path fill="#ffe9e9" stroke="#cbd5e1" stroke-width="1.2" d="M396,-758C396,-758 236,-758 236,-758 230,-758 224,-752 224,-746 224,-746 224,-728 224,-728 224,-722 230,-716 236,-716 236,-716 396,-716 396,-716 402,-716 408,-722 408,-728 408,-728 408,-746 408,-746 408,-752 402,-758 396,-758"/>
<text text-anchor="middle" x="316" y="-740.6" font-family="Noto Sans CJK SC" font-size="13.00" fill="#172033">Unix: SIGSEGV / SIGBUS</text>
<text text-anchor="middle" x="316" y="-726.6" font-family="Noto Sans CJK SC" font-size="13.00" fill="#172033">Windows: access violation</text>
</g>
<!-- install&#45;&gt;signal -->
<g id="edge7" class="edge">
<title>install&#45;&gt;signal</title>
<path fill="none" stroke="#64748b" stroke-width="1.35" d="M571,-841.79C571,-802.75 571,-737 571,-737 571,-737 415.56,-737 415.56,-737"/>
<polygon fill="#64748b" stroke="#64748b" stroke-width="1.35" points="415.56,-734.38 408.06,-737 415.56,-739.63 415.56,-734.38"/>
<text text-anchor="middle" x="511" y="-809.2" font-family="Noto Sans CJK SC" font-size="11.00" fill="#475569">运行期间</text>
</g>
<!-- capture -->
<g id="node9" class="node">
<title>capture</title>
<path fill="#ffe9e9" stroke="#cbd5e1" stroke-width="1.2" d="M405,-667C405,-667 209,-667 209,-667 203,-667 197,-661 197,-655 197,-655 197,-623 197,-623 197,-617 203,-611 209,-611 209,-611 405,-611 405,-611 411,-611 417,-617 417,-623 417,-623 417,-655 417,-655 417,-661 411,-667 405,-667"/>
<text text-anchor="middle" x="307" y="-649.6" font-family="Noto Sans CJK SC" font-size="13.00" fill="#172033">捕获 signal / si_code / fault addr</text>
<text text-anchor="middle" x="307" y="-635.6" font-family="Noto Sans CJK SC" font-size="13.00" fill="#172033">时间戳 / 版本 / 指令指针</text>
<text text-anchor="middle" x="307" y="-621.6" font-family="Noto Sans CJK SC" font-size="13.00" fill="#172033">最佳努力 frame&#45;pointer walk</text>
</g>
<!-- signal&#45;&gt;capture -->
<g id="edge8" class="edge">
<title>signal&#45;&gt;capture</title>
<path fill="none" stroke="#64748b" stroke-width="1.35" d="M316,-715.74C316,-715.74 316,-674.79 316,-674.79"/>
<polygon fill="#64748b" stroke="#64748b" stroke-width="1.35" points="318.63,-674.79 316,-667.29 313.38,-674.79 318.63,-674.79"/>
</g>
<!-- write -->
<g id="node10" class="node">
<title>write</title>
<path fill="#ffe9e9" stroke="#cbd5e1" stroke-width="1.2" d="M383.5,-562C383.5,-562 242.5,-562 242.5,-562 236.5,-562 230.5,-556 230.5,-550 230.5,-550 230.5,-532 230.5,-532 230.5,-526 236.5,-520 242.5,-520 242.5,-520 383.5,-520 383.5,-520 389.5,-520 395.5,-526 395.5,-532 395.5,-532 395.5,-550 395.5,-550 395.5,-556 389.5,-562 383.5,-562"/>
<text text-anchor="middle" x="313" y="-544.6" font-family="Noto Sans CJK SC" font-size="13.00" fill="#172033">写二进制 CrashBlob</text>
<text text-anchor="middle" x="313" y="-530.6" font-family="Noto Sans CJK SC" font-size="13.00" fill="#172033">避免堆分配与复杂运行时</text>
</g>
<!-- capture&#45;&gt;write -->
<g id="edge9" class="edge">
<title>capture&#45;&gt;write</title>
<path fill="none" stroke="#64748b" stroke-width="1.35" d="M313,-610.92C313,-610.92 313,-569.73 313,-569.73"/>
<polygon fill="#64748b" stroke="#64748b" stroke-width="1.35" points="315.63,-569.73 313,-562.23 310.38,-569.73 315.63,-569.73"/>
</g>
<!-- caveat -->
<g id="node12" class="node">
<title>caveat</title>
<polygon fill="#fff8e8" stroke="#f2c66d" stroke-width="1.2" points="1051,-559 433,-559 433,-523 1057,-523 1057,-553 1051,-559"/>
<polyline fill="none" stroke="#f2c66d" stroke-width="1.2" points="1051,-559 1051,-553 "/>
<polyline fill="none" stroke="#f2c66d" stroke-width="1.2" points="1057,-553 1051,-553 "/>
<text text-anchor="middle" x="745" y="-537.6" font-family="Noto Sans CJK SC" font-size="13.00" fill="#172033">限制：musl release 可记录 signal/address/version，但可能跳过 frame capture；回溯为 best&#45;effort。</text>
</g>
<!-- capture&#45;&gt;caveat -->
<g id="edge12" class="edge">
<title>capture&#45;&gt;caveat</title>
<path fill="none" stroke="#64748b" stroke-width="1.35" stroke-dasharray="5,2" d="M403.75,-610.92C403.75,-581.96 403.75,-541 403.75,-541 403.75,-541 414.77,-541 432.84,-541"/>
</g>
<!-- restore -->
<g id="node11" class="node">
<title>restore</title>
<path fill="#ffe9e9" stroke="#cbd5e1" stroke-width="1.2" d="M400,-471C400,-471 234,-471 234,-471 228,-471 222,-465 222,-459 222,-459 222,-441 222,-441 222,-435 228,-429 234,-429 234,-429 400,-429 400,-429 406,-429 412,-435 412,-441 412,-441 412,-459 412,-459 412,-465 406,-471 400,-471"/>
<text text-anchor="middle" x="317" y="-453.6" font-family="Noto Sans CJK SC" font-size="13.00" fill="#172033">恢复终端 escape + termios</text>
<text text-anchor="middle" x="317" y="-439.6" font-family="Noto Sans CJK SC" font-size="13.00" fill="#172033">随后恢复默认处理并重新触发</text>
</g>
<!-- write&#45;&gt;restore -->
<g id="edge10" class="edge">
<title>write&#45;&gt;restore</title>
<path fill="none" stroke="#64748b" stroke-width="1.35" d="M313,-519.89C313,-519.89 313,-478.81 313,-478.81"/>
<polygon fill="#64748b" stroke="#64748b" stroke-width="1.35" points="315.63,-478.81 313,-471.31 310.38,-478.81 315.63,-478.81"/>
</g>
<!-- restore&#45;&gt;check -->
<g id="edge11" class="edge">
<title>restore&#45;&gt;check</title>
<path fill="none" stroke="#64748b" stroke-width="1.35" stroke-dasharray="5,2" d="M412.11,-450C505.48,-450 634,-450 634,-450 634,-450 634,-352.59 634,-352.59"/>
<polygon fill="#64748b" stroke="#64748b" stroke-width="1.35" points="636.63,-352.59 634,-345.09 631.38,-352.59 636.63,-352.59"/>
<text text-anchor="middle" x="515.5" y="-396.2" font-family="Noto Sans CJK SC" font-size="11.00" fill="#475569">下一次进程启动</text>
</g>
</g>
</svg>
