<?xml version="1.0" encoding="UTF-8" standalone="no"?>
<!DOCTYPE svg PUBLIC "-//W3C//DTD SVG 1.1//EN"
 "http://www.w3.org/Graphics/SVG/1.1/DTD/svg11.dtd">
<!-- Generated by graphviz version 2.42.4 (0)
 -->
<!-- Title: G Pages: 1 -->
<svg width="1535pt" height="676pt"
 viewBox="0.00 0.00 1535.00 676.00" xmlns="http://www.w3.org/2000/svg" xmlns:xlink="http://www.w3.org/1999/xlink">
<g id="graph0" class="graph" transform="scale(1 1) rotate(0) translate(18 658)">
<title>G</title>
<polygon fill="#fcfdfe" stroke="transparent" points="-18,18 -18,-658 1517,-658 1517,18 -18,18"/>
<text text-anchor="middle" x="381" y="-618.4" font-family="Noto Sans CJK SC" font-size="22.00">12. 后台任务：Command、Monitor、Scheduler 与 Subagent 统一生命周期</text>
<g id="clust1" class="cluster">
<title>cluster_spawn</title>
<path fill="#f4f8ff" stroke="#8eb8f8" d="M369,-449C369,-449 1075,-449 1075,-449 1081,-449 1087,-455 1087,-461 1087,-461 1087,-527 1087,-527 1087,-533 1081,-539 1075,-539 1075,-539 369,-539 369,-539 363,-539 357,-533 357,-527 357,-527 357,-461 357,-461 357,-455 363,-449 369,-449"/>
<text text-anchor="middle" x="430.5" y="-517.4" font-family="Noto Sans CJK SC" font-size="22.00">任务创建入口</text>
</g>
<g id="clust2" class="cluster">
<title>cluster_runtime</title>
<path fill="#f3fbf7" stroke="#a7d7c5" d="M20,-99C20,-99 684,-99 684,-99 690,-99 696,-105 696,-111 696,-111 696,-412 696,-412 696,-418 690,-424 684,-424 684,-424 20,-424 20,-424 14,-424 8,-418 8,-412 8,-412 8,-111 8,-111 8,-105 14,-99 20,-99"/>
<text text-anchor="middle" x="110.5" y="-402.4" font-family="Noto Sans CJK SC" font-size="22.00">统一 Task Runtime</text>
</g>
<g id="clust3" class="cluster">
<title>cluster_wakeup</title>
<path fill="#faf7ff" stroke="#c9b5f4" d="M716,-8C716,-8 1308,-8 1308,-8 1314,-8 1320,-14 1320,-20 1320,-20 1320,-184 1320,-184 1320,-190 1314,-196 1308,-196 1308,-196 716,-196 716,-196 710,-196 704,-190 704,-184 704,-184 704,-20 704,-20 704,-14 710,-8 716,-8"/>
<text text-anchor="middle" x="777.5" y="-174.4" font-family="Noto Sans CJK SC" font-size="22.00">唤醒与可视化</text>
</g>
<!-- user -->
<g id="node1" class="node">
<title>user</title>
<path fill="#eaf2ff" stroke="#cbd5e1" stroke-width="1.2" d="M769.5,-608C769.5,-608 638.5,-608 638.5,-608 632.5,-608 626.5,-602 626.5,-596 626.5,-596 626.5,-584 626.5,-584 626.5,-578 632.5,-572 638.5,-572 638.5,-572 769.5,-572 769.5,-572 775.5,-572 781.5,-578 781.5,-584 781.5,-584 781.5,-596 781.5,-596 781.5,-602 775.5,-608 769.5,-608"/>
<text text-anchor="middle" x="704" y="-586.6" font-family="Noto Sans CJK SC" font-size="13.00" fill="#172033">Agent Turn / 用户指令</text>
</g>
<!-- bg -->
<g id="node2" class="node">
<title>bg</title>
<path fill="#eaf2ff" stroke="#cbd5e1" stroke-width="1.2" d="M529,-499C529,-499 377,-499 377,-499 371,-499 365,-493 365,-487 365,-487 365,-469 365,-469 365,-463 371,-457 377,-457 377,-457 529,-457 529,-457 535,-457 541,-463 541,-469 541,-469 541,-487 541,-487 541,-493 535,-499 529,-499"/>
<text text-anchor="middle" x="453" y="-481.6" font-family="Noto Sans CJK SC" font-size="13.00" fill="#172033">run_terminal_command</text>
<text text-anchor="middle" x="453" y="-467.6" font-family="Noto Sans CJK SC" font-size="13.00" fill="#172033">background: true</text>
</g>
<!-- user&#45;&gt;bg -->
<g id="edge1" class="edge">
<title>user&#45;&gt;bg</title>
<path fill="none" stroke="#64748b" stroke-width="1.35" d="M626.3,-590C552.58,-590 453,-590 453,-590 453,-590 453,-506.57 453,-506.57"/>
<polygon fill="#64748b" stroke="#64748b" stroke-width="1.35" points="455.63,-506.57 453,-499.07 450.38,-506.57 455.63,-506.57"/>
</g>
<!-- monitor -->
<g id="node3" class="node">
<title>monitor</title>
<path fill="#eaf2ff" stroke="#cbd5e1" stroke-width="1.2" d="M858.5,-499C858.5,-499 779.5,-499 779.5,-499 773.5,-499 767.5,-493 767.5,-487 767.5,-487 767.5,-469 767.5,-469 767.5,-463 773.5,-457 779.5,-457 779.5,-457 858.5,-457 858.5,-457 864.5,-457 870.5,-463 870.5,-469 870.5,-469 870.5,-487 870.5,-487 870.5,-493 864.5,-499 858.5,-499"/>
<text text-anchor="middle" x="819" y="-481.6" font-family="Noto Sans CJK SC" font-size="13.00" fill="#172033">monitor tool</text>
<text text-anchor="middle" x="819" y="-467.6" font-family="Noto Sans CJK SC" font-size="13.00" fill="#172033">逐行事件流</text>
</g>
<!-- user&#45;&gt;monitor -->
<g id="edge2" class="edge">
<title>user&#45;&gt;monitor</title>
<path fill="none" stroke="#64748b" stroke-width="1.35" d="M774.5,-571.51C774.5,-571.51 774.5,-506.7 774.5,-506.7"/>
<polygon fill="#64748b" stroke="#64748b" stroke-width="1.35" points="777.13,-506.7 774.5,-499.2 771.88,-506.7 777.13,-506.7"/>
</g>
<!-- loop -->
<g id="node4" class="node">
<title>loop</title>
<path fill="#eaf2ff" stroke="#cbd5e1" stroke-width="1.2" d="M1067,-499C1067,-499 915,-499 915,-499 909,-499 903,-493 903,-487 903,-487 903,-469 903,-469 903,-463 909,-457 915,-457 915,-457 1067,-457 1067,-457 1073,-457 1079,-463 1079,-469 1079,-469 1079,-487 1079,-487 1079,-493 1073,-499 1067,-499"/>
<text text-anchor="middle" x="991" y="-481.6" font-family="Noto Sans CJK SC" font-size="13.00" fill="#172033">/loop / scheduler_create</text>
<text text-anchor="middle" x="991" y="-467.6" font-family="Noto Sans CJK SC" font-size="13.00" fill="#172033">定时 Prompt</text>
</g>
<!-- user&#45;&gt;loop -->
<g id="edge3" class="edge">
<title>user&#45;&gt;loop</title>
<path fill="none" stroke="#64748b" stroke-width="1.35" d="M781.67,-590C866.66,-590 991,-590 991,-590 991,-590 991,-506.57 991,-506.57"/>
<polygon fill="#64748b" stroke="#64748b" stroke-width="1.35" points="993.63,-506.57 991,-499.07 988.38,-506.57 993.63,-506.57"/>
</g>
<!-- subagent -->
<g id="node5" class="node">
<title>subagent</title>
<path fill="#eaf2ff" stroke="#cbd5e1" stroke-width="1.2" d="M723,-496C723,-496 585,-496 585,-496 579,-496 573,-490 573,-484 573,-484 573,-472 573,-472 573,-466 579,-460 585,-460 585,-460 723,-460 723,-460 729,-460 735,-466 735,-472 735,-472 735,-484 735,-484 735,-490 729,-496 723,-496"/>
<text text-anchor="middle" x="654" y="-474.6" font-family="Noto Sans CJK SC" font-size="13.00" fill="#172033">Background Subagent</text>
</g>
<!-- user&#45;&gt;subagent -->
<g id="edge4" class="edge">
<title>user&#45;&gt;subagent</title>
<path fill="none" stroke="#64748b" stroke-width="1.35" d="M680.75,-571.51C680.75,-571.51 680.75,-503.65 680.75,-503.65"/>
<polygon fill="#64748b" stroke="#64748b" stroke-width="1.35" points="683.38,-503.65 680.75,-496.15 678.13,-503.65 683.38,-503.65"/>
</g>
<!-- id -->
<g id="node6" class="node">
<title>id</title>
<path fill="#e7f7ef" stroke="#cbd5e1" stroke-width="1.2" d="M669,-384C669,-384 569,-384 569,-384 563,-384 557,-378 557,-372 557,-372 557,-354 557,-354 557,-348 563,-342 569,-342 569,-342 669,-342 669,-342 675,-342 681,-348 681,-354 681,-354 681,-372 681,-372 681,-378 675,-384 669,-384"/>
<text text-anchor="middle" x="619" y="-366.6" font-family="Noto Sans CJK SC" font-size="13.00" fill="#172033">立即返回 task_id</text>
<text text-anchor="middle" x="619" y="-352.6" font-family="Noto Sans CJK SC" font-size="13.00" fill="#172033">前台对话继续</text>
</g>
<!-- bg&#45;&gt;id -->
<g id="edge5" class="edge">
<title>bg&#45;&gt;id</title>
<path fill="none" stroke="#64748b" stroke-width="1.35" d="M541.25,-478C555.13,-478 565,-478 565,-478 565,-478 565,-391.59 565,-391.59"/>
<polygon fill="#64748b" stroke="#64748b" stroke-width="1.35" points="567.63,-391.59 565,-384.09 562.38,-391.59 567.63,-391.59"/>
</g>
<!-- monitor&#45;&gt;id -->
<g id="edge6" class="edge">
<title>monitor&#45;&gt;id</title>
<path fill="none" stroke="#64748b" stroke-width="1.35" d="M773.33,-456.91C773.33,-423.71 773.33,-363 773.33,-363 773.33,-363 688.83,-363 688.83,-363"/>
<polygon fill="#64748b" stroke="#64748b" stroke-width="1.35" points="688.83,-360.38 681.33,-363 688.83,-365.63 688.83,-360.38"/>
</g>
<!-- notify -->
<g id="node11" class="node">
<title>notify</title>
<path fill="#f0eafe" stroke="#cbd5e1" stroke-width="1.2" d="M1021.5,-156C1021.5,-156 862.5,-156 862.5,-156 856.5,-156 850.5,-150 850.5,-144 850.5,-144 850.5,-126 850.5,-126 850.5,-120 856.5,-114 862.5,-114 862.5,-114 1021.5,-114 1021.5,-114 1027.5,-114 1033.5,-120 1033.5,-126 1033.5,-126 1033.5,-144 1033.5,-144 1033.5,-150 1027.5,-156 1021.5,-156"/>
<text text-anchor="middle" x="942" y="-138.6" font-family="Noto Sans CJK SC" font-size="13.00" fill="#172033">完成/新行/定时器触发</text>
<text text-anchor="middle" x="942" y="-124.6" font-family="Noto Sans CJK SC" font-size="13.00" fill="#172033">Conversation Notification</text>
</g>
<!-- monitor&#45;&gt;notify -->
<g id="edge14" class="edge">
<title>monitor&#45;&gt;notify</title>
<path fill="none" stroke="#64748b" stroke-width="1.35" d="M779.17,-456.8C779.17,-382.02 779.17,-135 779.17,-135 779.17,-135 842.61,-135 842.61,-135"/>
<polygon fill="#64748b" stroke="#64748b" stroke-width="1.35" points="842.61,-137.63 850.11,-135 842.61,-132.38 842.61,-137.63"/>
<text text-anchor="middle" x="753" y="-309.2" font-family="Noto Sans CJK SC" font-size="11.00" fill="#475569">每一行</text>
</g>
<!-- safety -->
<g id="node15" class="node">
<title>safety</title>
<polygon fill="#fff8e8" stroke="#f2c66d" stroke-width="1.2" points="1395,-381 785,-381 785,-345 1401,-345 1401,-375 1395,-381"/>
<polyline fill="none" stroke="#f2c66d" stroke-width="1.2" points="1395,-381 1395,-375 "/>
<polyline fill="none" stroke="#f2c66d" stroke-width="1.2" points="1401,-375 1395,-375 "/>
<text text-anchor="middle" x="1093" y="-359.6" font-family="Noto Sans CJK SC" font-size="13.00" fill="#172033">运行约束：monitor 输出过量会自动停止；/loop 最小 60 秒、默认最长存活 7 天、最多 50 个计划任务。</text>
</g>
<!-- monitor&#45;&gt;safety -->
<g id="edge19" class="edge">
<title>monitor&#45;&gt;safety</title>
<path fill="none" stroke="#64748b" stroke-width="1.35" stroke-dasharray="5,2" d="M827.75,-456.91C827.75,-435.25 827.75,-401.89 827.75,-381.31"/>
</g>
<!-- loop&#45;&gt;id -->
<g id="edge7" class="edge">
<title>loop&#45;&gt;id</title>
<path fill="none" stroke="#64748b" stroke-width="1.35" d="M961.67,-456.73C961.67,-440.18 961.67,-420 961.67,-420 961.67,-420 645,-420 645,-420 645,-420 645,-391.72 645,-391.72"/>
<polygon fill="#64748b" stroke="#64748b" stroke-width="1.35" points="647.63,-391.72 645,-384.22 642.38,-391.72 647.63,-391.72"/>
</g>
<!-- loop&#45;&gt;notify -->
<g id="edge15" class="edge">
<title>loop&#45;&gt;notify</title>
<path fill="none" stroke="#64748b" stroke-width="1.35" d="M1079.16,-478C1204.45,-478 1419,-478 1419,-478 1419,-478 1419,-142 1419,-142 1419,-142 1041.19,-142 1041.19,-142"/>
<polygon fill="#64748b" stroke="#64748b" stroke-width="1.35" points="1041.19,-139.38 1033.69,-142 1041.19,-144.63 1041.19,-139.38"/>
<text text-anchor="middle" x="1474.5" y="-309.2" font-family="Noto Sans CJK SC" font-size="11.00" fill="#475569">timer fire</text>
</g>
<!-- loop&#45;&gt;safety -->
<g id="edge20" class="edge">
<title>loop&#45;&gt;safety</title>
<path fill="none" stroke="#64748b" stroke-width="1.35" stroke-dasharray="5,2" d="M1020.33,-456.91C1020.33,-435.25 1020.33,-401.89 1020.33,-381.31"/>
</g>
<!-- subagent&#45;&gt;id -->
<g id="edge8" class="edge">
<title>subagent&#45;&gt;id</title>
<path fill="none" stroke="#64748b" stroke-width="1.35" d="M609,-459.78C609,-459.78 609,-391.76 609,-391.76"/>
<polygon fill="#64748b" stroke="#64748b" stroke-width="1.35" points="611.63,-391.76 609,-384.26 606.38,-391.76 611.63,-391.76"/>
</g>
<!-- state -->
<g id="node7" class="node">
<title>state</title>
<path fill="#e7f7ef" stroke="#cbd5e1" stroke-width="1.2" d="M674.5,-282C674.5,-282 447.5,-282 447.5,-282 441.5,-282 435.5,-276 435.5,-270 435.5,-270 435.5,-252 435.5,-252 435.5,-246 441.5,-240 447.5,-240 447.5,-240 674.5,-240 674.5,-240 680.5,-240 686.5,-246 686.5,-252 686.5,-252 686.5,-270 686.5,-270 686.5,-276 680.5,-282 674.5,-282"/>
<text text-anchor="middle" x="561" y="-264.6" font-family="Noto Sans CJK SC" font-size="13.00" fill="#172033">状态机</text>
<text text-anchor="middle" x="561" y="-250.6" font-family="Noto Sans CJK SC" font-size="13.00" fill="#172033">Running / Completed / Failed / Killed</text>
</g>
<!-- id&#45;&gt;state -->
<g id="edge9" class="edge">
<title>id&#45;&gt;state</title>
<path fill="none" stroke="#64748b" stroke-width="1.35" d="M619,-341.87C619,-341.87 619,-289.61 619,-289.61"/>
<polygon fill="#64748b" stroke="#64748b" stroke-width="1.35" points="621.63,-289.61 619,-282.11 616.38,-289.61 621.63,-289.61"/>
</g>
<!-- output -->
<g id="node8" class="node">
<title>output</title>
<path fill="#e7f7ef" stroke="#cbd5e1" stroke-width="1.2" d="M255.5,-156C255.5,-156 28.5,-156 28.5,-156 22.5,-156 16.5,-150 16.5,-144 16.5,-144 16.5,-126 16.5,-126 16.5,-120 22.5,-114 28.5,-114 28.5,-114 255.5,-114 255.5,-114 261.5,-114 267.5,-120 267.5,-126 267.5,-126 267.5,-144 267.5,-144 267.5,-150 261.5,-156 255.5,-156"/>
<text text-anchor="middle" x="142" y="-138.6" font-family="Noto Sans CJK SC" font-size="13.00" fill="#172033">输出缓冲与状态查询</text>
<text text-anchor="middle" x="142" y="-124.6" font-family="Noto Sans CJK SC" font-size="13.00" fill="#172033">get_command_or_subagent_output</text>
</g>
<!-- state&#45;&gt;output -->
<g id="edge10" class="edge">
<title>state&#45;&gt;output</title>
<path fill="none" stroke="#64748b" stroke-width="1.35" d="M435.29,-261C311.87,-261 142,-261 142,-261 142,-261 142,-163.59 142,-163.59"/>
<polygon fill="#64748b" stroke="#64748b" stroke-width="1.35" points="144.63,-163.59 142,-156.09 139.38,-163.59 144.63,-163.59"/>
</g>
<!-- wait -->
<g id="node9" class="node">
<title>wait</title>
<path fill="#e7f7ef" stroke="#cbd5e1" stroke-width="1.2" d="M430,-156C430,-156 312,-156 312,-156 306,-156 300,-150 300,-144 300,-144 300,-126 300,-126 300,-120 306,-114 312,-114 312,-114 430,-114 430,-114 436,-114 442,-120 442,-126 442,-126 442,-144 442,-144 442,-150 436,-156 430,-156"/>
<text text-anchor="middle" x="371" y="-138.6" font-family="Noto Sans CJK SC" font-size="13.00" fill="#172033">wait_any / wait_all</text>
<text text-anchor="middle" x="371" y="-124.6" font-family="Noto Sans CJK SC" font-size="13.00" fill="#172033">最多 20 个 task_id</text>
</g>
<!-- state&#45;&gt;wait -->
<g id="edge11" class="edge">
<title>state&#45;&gt;wait</title>
<path fill="none" stroke="#64748b" stroke-width="1.35" d="M458,-239.91C458,-204.04 458,-135 458,-135 458,-135 449.54,-135 449.54,-135"/>
<polygon fill="#64748b" stroke="#64748b" stroke-width="1.35" points="449.54,-132.38 442.04,-135 449.54,-137.63 449.54,-132.38"/>
</g>
<!-- kill -->
<g id="node10" class="node">
<title>kill</title>
<path fill="#e7f7ef" stroke="#cbd5e1" stroke-width="1.2" d="M676,-163C676,-163 486,-163 486,-163 480,-163 474,-157 474,-151 474,-151 474,-119 474,-119 474,-113 480,-107 486,-107 486,-107 676,-107 676,-107 682,-107 688,-113 688,-119 688,-119 688,-151 688,-151 688,-157 682,-163 676,-163"/>
<text text-anchor="middle" x="581" y="-145.6" font-family="Noto Sans CJK SC" font-size="13.00" fill="#172033">终止</text>
<text text-anchor="middle" x="581" y="-131.6" font-family="Noto Sans CJK SC" font-size="13.00" fill="#172033">Shell: SIGTERM → SIGKILL</text>
<text text-anchor="middle" x="581" y="-117.6" font-family="Noto Sans CJK SC" font-size="13.00" fill="#172033">Subagent: Cancel → Shutdown</text>
</g>
<!-- state&#45;&gt;kill -->
<g id="edge12" class="edge">
<title>state&#45;&gt;kill</title>
<path fill="none" stroke="#64748b" stroke-width="1.35" d="M580.25,-239.91C580.25,-239.91 580.25,-170.75 580.25,-170.75"/>
<polygon fill="#64748b" stroke="#64748b" stroke-width="1.35" points="582.88,-170.75 580.25,-163.25 577.63,-170.75 582.88,-170.75"/>
</g>
<!-- state&#45;&gt;notify -->
<g id="edge13" class="edge">
<title>state&#45;&gt;notify</title>
<path fill="none" stroke="#64748b" stroke-width="1.35" d="M686.55,-261C797.56,-261 942,-261 942,-261 942,-261 942,-163.59 942,-163.59"/>
<polygon fill="#64748b" stroke="#64748b" stroke-width="1.35" points="944.63,-163.59 942,-156.09 939.38,-163.59 944.63,-163.59"/>
<text text-anchor="middle" x="656.5" y="-207.2" font-family="Noto Sans CJK SC" font-size="11.00" fill="#475569">完成</text>
</g>
<!-- pane -->
<g id="node12" class="node">
<title>pane</title>
<path fill="#f0eafe" stroke="#cbd5e1" stroke-width="1.2" d="M980,-58C980,-58 724,-58 724,-58 718,-58 712,-52 712,-46 712,-46 712,-28 712,-28 712,-22 718,-16 724,-16 724,-16 980,-16 980,-16 986,-16 992,-22 992,-28 992,-28 992,-46 992,-46 992,-52 986,-58 980,-58"/>
<text text-anchor="middle" x="852" y="-40.6" font-family="Noto Sans CJK SC" font-size="13.00" fill="#172033">Tasks Pane (Ctrl+B)</text>
<text text-anchor="middle" x="852" y="-26.6" font-family="Noto Sans CJK SC" font-size="13.00" fill="#172033">commands / monitors / loops / subagents</text>
</g>
<!-- notify&#45;&gt;pane -->
<g id="edge16" class="edge">
<title>notify&#45;&gt;pane</title>
<path fill="none" stroke="#64748b" stroke-width="1.35" d="M921.25,-113.74C921.25,-113.74 921.25,-65.72 921.25,-65.72"/>
<polygon fill="#64748b" stroke="#64748b" stroke-width="1.35" points="923.88,-65.72 921.25,-58.22 918.63,-65.72 923.88,-65.72"/>
</g>
<!-- status -->
<g id="node13" class="node">
<title>status</title>
<path fill="#f0eafe" stroke="#cbd5e1" stroke-width="1.2" d="M1139.5,-58C1139.5,-58 1036.5,-58 1036.5,-58 1030.5,-58 1024.5,-52 1024.5,-46 1024.5,-46 1024.5,-28 1024.5,-28 1024.5,-22 1030.5,-16 1036.5,-16 1036.5,-16 1139.5,-16 1139.5,-16 1145.5,-16 1151.5,-22 1151.5,-28 1151.5,-28 1151.5,-46 1151.5,-46 1151.5,-52 1145.5,-58 1139.5,-58"/>
<text text-anchor="middle" x="1088" y="-40.6" font-family="Noto Sans CJK SC" font-size="13.00" fill="#172033">watching 状态行</text>
<text text-anchor="middle" x="1088" y="-26.6" font-family="Noto Sans CJK SC" font-size="13.00" fill="#172033">持续统计活动任务</text>
</g>
<!-- notify&#45;&gt;status -->
<g id="edge17" class="edge">
<title>notify&#45;&gt;status</title>
<path fill="none" stroke="#64748b" stroke-width="1.35" d="M1029,-113.74C1029,-113.74 1029,-65.72 1029,-65.72"/>
<polygon fill="#64748b" stroke="#64748b" stroke-width="1.35" points="1031.63,-65.72 1029,-58.22 1026.38,-65.72 1031.63,-65.72"/>
</g>
<!-- turn -->
<g id="node14" class="node">
<title>turn</title>
<path fill="#f0eafe" stroke="#cbd5e1" stroke-width="1.2" d="M1300,-58C1300,-58 1196,-58 1196,-58 1190,-58 1184,-52 1184,-46 1184,-46 1184,-28 1184,-28 1184,-22 1190,-16 1196,-16 1196,-16 1300,-16 1300,-16 1306,-16 1312,-22 1312,-28 1312,-28 1312,-46 1312,-46 1312,-52 1306,-58 1300,-58"/>
<text text-anchor="middle" x="1248" y="-40.6" font-family="Noto Sans CJK SC" font-size="13.00" fill="#172033">必要时唤醒 Agent</text>
<text text-anchor="middle" x="1248" y="-26.6" font-family="Noto Sans CJK SC" font-size="13.00" fill="#172033">创建新的 turn</text>
</g>
<!-- notify&#45;&gt;turn -->
<g id="edge18" class="edge">
<title>notify&#45;&gt;turn</title>
<path fill="none" stroke="#64748b" stroke-width="1.35" d="M1033.81,-128C1123.94,-128 1248,-128 1248,-128 1248,-128 1248,-65.61 1248,-65.61"/>
<polygon fill="#64748b" stroke="#64748b" stroke-width="1.35" points="1250.63,-65.61 1248,-58.11 1245.38,-65.61 1250.63,-65.61"/>
</g>
</g>
</svg>
