<?xml version="1.0" encoding="UTF-8" standalone="no"?>
<!DOCTYPE svg PUBLIC "-//W3C//DTD SVG 1.1//EN"
 "http://www.w3.org/Graphics/SVG/1.1/DTD/svg11.dtd">
<!-- Generated by graphviz version 2.42.4 (0)
 -->
<!-- Title: G Pages: 1 -->
<svg width="1279pt" height="1102pt"
 viewBox="0.00 0.00 1279.00 1102.00" xmlns="http://www.w3.org/2000/svg" xmlns:xlink="http://www.w3.org/1999/xlink">
<g id="graph0" class="graph" transform="scale(1 1) rotate(0) translate(18 1084)">
<title>G</title>
<polygon fill="#fcfdfe" stroke="transparent" points="-18,18 -18,-1084 1261,-1084 1261,18 -18,18"/>
<text text-anchor="middle" x="352.5" y="-1044.4" font-family="Noto Sans CJK SC" font-size="22.00">13. Plugins：多来源发现、Enable/Trust 双门控与 Marketplace 供应链</text>
<g id="clust1" class="cluster">
<title>cluster_sources</title>
<path fill="#f4f8ff" stroke="#8eb8f8" d="M20,-730C20,-730 859,-730 859,-730 865,-730 871,-736 871,-742 871,-742 871,-808 871,-808 871,-814 865,-820 859,-820 859,-820 20,-820 20,-820 14,-820 8,-814 8,-808 8,-808 8,-742 8,-742 8,-736 14,-730 20,-730"/>
<text text-anchor="middle" x="163" y="-798.4" font-family="Noto Sans CJK SC" font-size="22.00">插件来源与优先级（高 → 低）</text>
</g>
<g id="clust2" class="cluster">
<title>cluster_discovery</title>
<path fill="#f3fbf7" stroke="#a7d7c5" d="M394,-328C394,-328 618,-328 618,-328 624,-328 630,-334 630,-340 630,-340 630,-693 630,-693 630,-699 624,-705 618,-705 618,-705 394,-705 394,-705 388,-705 382,-699 382,-693 382,-693 382,-340 382,-340 382,-334 388,-328 394,-328"/>
<text text-anchor="middle" x="466.5" y="-683.4" font-family="Noto Sans CJK SC" font-size="22.00">发现与组件清单</text>
</g>
<g id="clust3" class="cluster">
<title>cluster_trust</title>
<path fill="#fff9f1" stroke="#f1c58b" d="M267,-97C267,-97 661,-97 661,-97 667,-97 673,-103 673,-109 673,-109 673,-280 673,-280 673,-286 667,-292 661,-292 661,-292 267,-292 267,-292 261,-292 255,-286 255,-280 255,-280 255,-109 255,-109 255,-103 261,-97 267,-97"/>
<text text-anchor="middle" x="365" y="-270.4" font-family="Noto Sans CJK SC" font-size="22.00">Enable 与 Trust 分离</text>
</g>
<g id="clust4" class="cluster">
<title>cluster_market</title>
<path fill="#faf7ff" stroke="#c9b5f4" d="M891,-730C891,-730 1181,-730 1181,-730 1187,-730 1193,-736 1193,-742 1193,-742 1193,-1014 1193,-1014 1193,-1020 1187,-1026 1181,-1026 1181,-1026 891,-1026 891,-1026 885,-1026 879,-1020 879,-1014 879,-1014 879,-742 879,-742 879,-736 885,-730 891,-730"/>
<text text-anchor="middle" x="1036" y="-1004.4" font-family="Noto Sans CJK SC" font-size="22.00">Marketplace / 安装更新供应链</text>
</g>
<!-- session -->
<g id="node1" class="node">
<title>session</title>
<path fill="#eaf2ff" stroke="#cbd5e1" stroke-width="1.2" d="M149.5,-780C149.5,-780 28.5,-780 28.5,-780 22.5,-780 16.5,-774 16.5,-768 16.5,-768 16.5,-750 16.5,-750 16.5,-744 22.5,-738 28.5,-738 28.5,-738 149.5,-738 149.5,-738 155.5,-738 161.5,-744 161.5,-750 161.5,-750 161.5,-768 161.5,-768 161.5,-774 155.5,-780 149.5,-780"/>
<text text-anchor="middle" x="89" y="-762.6" font-family="Noto Sans CJK SC" font-size="13.00" fill="#172033">1. _meta.pluginDirs</text>
<text text-anchor="middle" x="89" y="-748.6" font-family="Noto Sans CJK SC" font-size="13.00" fill="#172033">单会话、自动信任</text>
</g>
<!-- manifest -->
<g id="node6" class="node">
<title>manifest</title>
<path fill="#e7f7ef" stroke="#cbd5e1" stroke-width="1.2" d="M566.5,-665C566.5,-665 445.5,-665 445.5,-665 439.5,-665 433.5,-659 433.5,-653 433.5,-653 433.5,-635 433.5,-635 433.5,-629 439.5,-623 445.5,-623 445.5,-623 566.5,-623 566.5,-623 572.5,-623 578.5,-629 578.5,-635 578.5,-635 578.5,-653 578.5,-653 578.5,-659 572.5,-665 566.5,-665"/>
<text text-anchor="middle" x="506" y="-647.6" font-family="Noto Sans CJK SC" font-size="13.00" fill="#172033">plugin.json（可选）</text>
<text text-anchor="middle" x="506" y="-633.6" font-family="Noto Sans CJK SC" font-size="13.00" fill="#172033">覆盖路径 + 元数据</text>
</g>
<!-- session&#45;&gt;manifest -->
<g id="edge1" class="edge">
<title>session&#45;&gt;manifest</title>
<path fill="none" stroke="#64748b" stroke-width="1.35" d="M89,-737.75C89,-702.8 89,-637 89,-637 89,-637 425.86,-637 425.86,-637"/>
<polygon fill="#64748b" stroke="#64748b" stroke-width="1.35" points="425.86,-639.63 433.36,-637 425.86,-634.38 425.86,-639.63"/>
</g>
<!-- cli -->
<g id="node2" class="node">
<title>cli</title>
<path fill="#eaf2ff" stroke="#cbd5e1" stroke-width="1.2" d="M308.5,-780C308.5,-780 205.5,-780 205.5,-780 199.5,-780 193.5,-774 193.5,-768 193.5,-768 193.5,-750 193.5,-750 193.5,-744 199.5,-738 205.5,-738 205.5,-738 308.5,-738 308.5,-738 314.5,-738 320.5,-744 320.5,-750 320.5,-750 320.5,-768 320.5,-768 320.5,-774 314.5,-780 308.5,-780"/>
<text text-anchor="middle" x="257" y="-762.6" font-family="Noto Sans CJK SC" font-size="13.00" fill="#172033">2. &#45;&#45;plugin&#45;dir</text>
<text text-anchor="middle" x="257" y="-748.6" font-family="Noto Sans CJK SC" font-size="13.00" fill="#172033">单进程、自动信任</text>
</g>
<!-- cli&#45;&gt;manifest -->
<g id="edge2" class="edge">
<title>cli&#45;&gt;manifest</title>
<path fill="none" stroke="#64748b" stroke-width="1.35" d="M291.75,-737.92C291.75,-706.49 291.75,-651 291.75,-651 291.75,-651 425.96,-651 425.96,-651"/>
<polygon fill="#64748b" stroke="#64748b" stroke-width="1.35" points="425.96,-653.63 433.46,-651 425.96,-648.38 425.96,-653.63"/>
</g>
<!-- project -->
<g id="node3" class="node">
<title>project</title>
<path fill="#eaf2ff" stroke="#cbd5e1" stroke-width="1.2" d="M479.5,-780C479.5,-780 364.5,-780 364.5,-780 358.5,-780 352.5,-774 352.5,-768 352.5,-768 352.5,-750 352.5,-750 352.5,-744 358.5,-738 364.5,-738 364.5,-738 479.5,-738 479.5,-738 485.5,-738 491.5,-744 491.5,-750 491.5,-750 491.5,-768 491.5,-768 491.5,-774 485.5,-780 479.5,-780"/>
<text text-anchor="middle" x="422" y="-762.6" font-family="Noto Sans CJK SC" font-size="13.00" fill="#172033">3. .grok/plugins</text>
<text text-anchor="middle" x="422" y="-748.6" font-family="Noto Sans CJK SC" font-size="13.00" fill="#172033">项目级、需显式信任</text>
</g>
<!-- project&#45;&gt;manifest -->
<g id="edge3" class="edge">
<title>project&#45;&gt;manifest</title>
<path fill="none" stroke="#64748b" stroke-width="1.35" d="M462.5,-737.91C462.5,-737.91 462.5,-672.85 462.5,-672.85"/>
<polygon fill="#64748b" stroke="#64748b" stroke-width="1.35" points="465.13,-672.85 462.5,-665.35 459.88,-672.85 465.13,-672.85"/>
</g>
<!-- userp -->
<g id="node4" class="node">
<title>userp</title>
<path fill="#eaf2ff" stroke="#cbd5e1" stroke-width="1.2" d="M646.5,-780C646.5,-780 535.5,-780 535.5,-780 529.5,-780 523.5,-774 523.5,-768 523.5,-768 523.5,-750 523.5,-750 523.5,-744 529.5,-738 535.5,-738 535.5,-738 646.5,-738 646.5,-738 652.5,-738 658.5,-744 658.5,-750 658.5,-750 658.5,-768 658.5,-768 658.5,-774 652.5,-780 646.5,-780"/>
<text text-anchor="middle" x="591" y="-762.6" font-family="Noto Sans CJK SC" font-size="13.00" fill="#172033">4. ~/.grok/plugins</text>
<text text-anchor="middle" x="591" y="-748.6" font-family="Noto Sans CJK SC" font-size="13.00" fill="#172033">用户级、自动信任</text>
</g>
<!-- userp&#45;&gt;manifest -->
<g id="edge4" class="edge">
<title>userp&#45;&gt;manifest</title>
<path fill="none" stroke="#64748b" stroke-width="1.35" d="M551,-737.91C551,-737.91 551,-672.85 551,-672.85"/>
<polygon fill="#64748b" stroke="#64748b" stroke-width="1.35" points="553.63,-672.85 551,-665.35 548.38,-672.85 553.63,-672.85"/>
</g>
<!-- custom -->
<g id="node5" class="node">
<title>custom</title>
<path fill="#eaf2ff" stroke="#cbd5e1" stroke-width="1.2" d="M851,-780C851,-780 703,-780 703,-780 697,-780 691,-774 691,-768 691,-768 691,-750 691,-750 691,-744 697,-738 703,-738 703,-738 851,-738 851,-738 857,-738 863,-744 863,-750 863,-750 863,-768 863,-768 863,-774 857,-780 851,-780"/>
<text text-anchor="middle" x="777" y="-762.6" font-family="Noto Sans CJK SC" font-size="13.00" fill="#172033">5. config [plugins].paths</text>
<text text-anchor="middle" x="777" y="-748.6" font-family="Noto Sans CJK SC" font-size="13.00" fill="#172033">按位置决定信任</text>
</g>
<!-- custom&#45;&gt;manifest -->
<g id="edge5" class="edge">
<title>custom&#45;&gt;manifest</title>
<path fill="none" stroke="#64748b" stroke-width="1.35" d="M777,-737.92C777,-706.49 777,-651 777,-651 777,-651 586.12,-651 586.12,-651"/>
<polygon fill="#64748b" stroke="#64748b" stroke-width="1.35" points="586.12,-648.38 578.62,-651 586.12,-653.63 586.12,-648.38"/>
</g>
<!-- convention -->
<g id="node7" class="node">
<title>convention</title>
<path fill="#e7f7ef" stroke="#cbd5e1" stroke-width="1.2" d="M610.5,-574C610.5,-574 401.5,-574 401.5,-574 395.5,-574 389.5,-568 389.5,-562 389.5,-562 389.5,-530 389.5,-530 389.5,-524 395.5,-518 401.5,-518 401.5,-518 610.5,-518 610.5,-518 616.5,-518 622.5,-524 622.5,-530 622.5,-530 622.5,-562 622.5,-562 622.5,-568 616.5,-574 610.5,-574"/>
<text text-anchor="middle" x="506" y="-556.6" font-family="Noto Sans CJK SC" font-size="13.00" fill="#172033">Convention directories</text>
<text text-anchor="middle" x="506" y="-542.6" font-family="Noto Sans CJK SC" font-size="13.00" fill="#172033">skills/ commands/ agents/ hooks/</text>
<text text-anchor="middle" x="506" y="-528.6" font-family="Noto Sans CJK SC" font-size="13.00" fill="#172033">.mcp.json / .lsp.json</text>
</g>
<!-- manifest&#45;&gt;convention -->
<g id="edge6" class="edge">
<title>manifest&#45;&gt;convention</title>
<path fill="none" stroke="#64748b" stroke-width="1.35" d="M506,-622.74C506,-622.74 506,-581.79 506,-581.79"/>
<polygon fill="#64748b" stroke="#64748b" stroke-width="1.35" points="508.63,-581.79 506,-574.29 503.38,-581.79 508.63,-581.79"/>
</g>
<!-- resolve -->
<g id="node8" class="node">
<title>resolve</title>
<path fill="#e7f7ef" stroke="#cbd5e1" stroke-width="1.2" d="M557.5,-469C557.5,-469 454.5,-469 454.5,-469 448.5,-469 442.5,-463 442.5,-457 442.5,-457 442.5,-439 442.5,-439 442.5,-433 448.5,-427 454.5,-427 454.5,-427 557.5,-427 557.5,-427 563.5,-427 569.5,-433 569.5,-439 569.5,-439 569.5,-457 569.5,-457 569.5,-463 563.5,-469 557.5,-469"/>
<text text-anchor="middle" x="506" y="-451.6" font-family="Noto Sans CJK SC" font-size="13.00" fill="#172033">同名冲突解析</text>
<text text-anchor="middle" x="506" y="-437.6" font-family="Noto Sans CJK SC" font-size="13.00" fill="#172033">高优先级位置胜出</text>
</g>
<!-- convention&#45;&gt;resolve -->
<g id="edge7" class="edge">
<title>convention&#45;&gt;resolve</title>
<path fill="none" stroke="#64748b" stroke-width="1.35" d="M506,-517.92C506,-517.92 506,-476.73 506,-476.73"/>
<polygon fill="#64748b" stroke="#64748b" stroke-width="1.35" points="508.63,-476.73 506,-469.23 503.38,-476.73 508.63,-476.73"/>
</g>
<!-- enable -->
<g id="node9" class="node">
<title>enable</title>
<path fill="#e7f7ef" stroke="#cbd5e1" stroke-width="1.2" d="M576.5,-378C576.5,-378 435.5,-378 435.5,-378 429.5,-378 423.5,-372 423.5,-366 423.5,-366 423.5,-348 423.5,-348 423.5,-342 429.5,-336 435.5,-336 435.5,-336 576.5,-336 576.5,-336 582.5,-336 588.5,-342 588.5,-348 588.5,-348 588.5,-366 588.5,-366 588.5,-372 582.5,-378 576.5,-378"/>
<text text-anchor="middle" x="506" y="-360.6" font-family="Noto Sans CJK SC" font-size="13.00" fill="#172033">Enable 状态</text>
<text text-anchor="middle" x="506" y="-346.6" font-family="Noto Sans CJK SC" font-size="13.00" fill="#172033">决定是否加载声明式组件</text>
</g>
<!-- resolve&#45;&gt;enable -->
<g id="edge8" class="edge">
<title>resolve&#45;&gt;enable</title>
<path fill="none" stroke="#64748b" stroke-width="1.35" d="M506,-426.89C506,-426.89 506,-385.81 506,-385.81"/>
<polygon fill="#64748b" stroke="#64748b" stroke-width="1.35" points="508.63,-385.81 506,-378.31 503.38,-385.81 508.63,-385.81"/>
</g>
<!-- declarative -->
<g id="node10" class="node">
<title>declarative</title>
<path fill="#fff0d8" stroke="#cbd5e1" stroke-width="1.2" d="M479,-252C479,-252 275,-252 275,-252 269,-252 263,-246 263,-240 263,-240 263,-222 263,-222 263,-216 269,-210 275,-210 275,-210 479,-210 479,-210 485,-210 491,-216 491,-222 491,-222 491,-240 491,-240 491,-246 485,-252 479,-252"/>
<text text-anchor="middle" x="377" y="-234.6" font-family="Noto Sans CJK SC" font-size="13.00" fill="#172033">Skills / Slash Commands / Agents</text>
<text text-anchor="middle" x="377" y="-220.6" font-family="Noto Sans CJK SC" font-size="13.00" fill="#172033">启用后可加载</text>
</g>
<!-- enable&#45;&gt;declarative -->
<g id="edge9" class="edge">
<title>enable&#45;&gt;declarative</title>
<path fill="none" stroke="#64748b" stroke-width="1.35" d="M457.25,-335.91C457.25,-335.91 457.25,-259.66 457.25,-259.66"/>
<polygon fill="#64748b" stroke="#64748b" stroke-width="1.35" points="459.88,-259.66 457.25,-252.16 454.63,-259.66 459.88,-259.66"/>
</g>
<!-- executable -->
<g id="node11" class="node">
<title>executable</title>
<path fill="#ffe9e9" stroke="#f2a6a6" stroke-width="1.2" d="M652.5,-252C652.5,-252 535.5,-252 535.5,-252 529.5,-252 523.5,-246 523.5,-240 523.5,-240 523.5,-222 523.5,-222 523.5,-216 529.5,-210 535.5,-210 535.5,-210 652.5,-210 652.5,-210 658.5,-210 664.5,-216 664.5,-222 664.5,-222 664.5,-240 664.5,-240 664.5,-246 658.5,-252 652.5,-252"/>
<text text-anchor="middle" x="594" y="-234.6" font-family="Noto Sans CJK SC" font-size="13.00" fill="#172033">Hooks / MCP / LSP</text>
<text text-anchor="middle" x="594" y="-220.6" font-family="Noto Sans CJK SC" font-size="13.00" fill="#172033">只有 Trusted 才激活</text>
</g>
<!-- enable&#45;&gt;executable -->
<g id="edge11" class="edge">
<title>enable&#45;&gt;executable</title>
<path fill="none" stroke="#64748b" stroke-width="1.35" d="M556,-335.91C556,-335.91 556,-259.66 556,-259.66"/>
<polygon fill="#64748b" stroke="#64748b" stroke-width="1.35" points="558.63,-259.66 556,-252.16 553.38,-259.66 558.63,-259.66"/>
<text text-anchor="middle" x="575.5" y="-303.2" font-family="Noto Sans CJK SC" font-size="11.00" fill="#475569">Trusted?</text>
</g>
<!-- agent -->
<g id="node16" class="node">
<title>agent</title>
<path fill="#eaf2ff" stroke="#8eb8f8" stroke-width="1.2" d="M603.5,-56C603.5,-56 368.5,-56 368.5,-56 362.5,-56 356.5,-50 356.5,-44 356.5,-44 356.5,-12 356.5,-12 356.5,-6 362.5,0 368.5,0 368.5,0 603.5,0 603.5,0 609.5,0 615.5,-6 615.5,-12 615.5,-12 615.5,-44 615.5,-44 615.5,-50 609.5,-56 603.5,-56"/>
<text text-anchor="middle" x="486" y="-38.6" font-family="Noto Sans CJK SC" font-size="13.00" fill="#172033">AgentBuilder / Pager Modal</text>
<text text-anchor="middle" x="486" y="-24.6" font-family="Noto Sans CJK SC" font-size="13.00" fill="#172033">合并 Skills、Agents、Hooks、MCP/LSP</text>
<text text-anchor="middle" x="486" y="-10.6" font-family="Noto Sans CJK SC" font-size="13.00" fill="#172033">展示来源标签</text>
</g>
<!-- declarative&#45;&gt;agent -->
<g id="edge10" class="edge">
<title>declarative&#45;&gt;agent</title>
<path fill="none" stroke="#64748b" stroke-width="1.35" d="M491.12,-238C503.8,-238 512.25,-238 512.25,-238 512.25,-238 512.25,-63.82 512.25,-63.82"/>
<polygon fill="#64748b" stroke="#64748b" stroke-width="1.35" points="514.88,-63.82 512.25,-56.32 509.63,-63.82 514.88,-63.82"/>
</g>
<!-- env -->
<g id="node12" class="node">
<title>env</title>
<path fill="#fff0d8" stroke="#cbd5e1" stroke-width="1.2" d="M489,-161C489,-161 357,-161 357,-161 351,-161 345,-155 345,-149 345,-149 345,-117 345,-117 345,-111 351,-105 357,-105 357,-105 489,-105 489,-105 495,-105 501,-111 501,-117 501,-117 501,-149 501,-149 501,-155 495,-161 489,-161"/>
<text text-anchor="middle" x="423" y="-143.6" font-family="Noto Sans CJK SC" font-size="13.00" fill="#172033">Plugin Hook 环境</text>
<text text-anchor="middle" x="423" y="-129.6" font-family="Noto Sans CJK SC" font-size="13.00" fill="#172033">GROK_PLUGIN_ROOT</text>
<text text-anchor="middle" x="423" y="-115.6" font-family="Noto Sans CJK SC" font-size="13.00" fill="#172033">GROK_PLUGIN_DATA</text>
</g>
<!-- executable&#45;&gt;env -->
<g id="edge12" class="edge">
<title>executable&#45;&gt;env</title>
<path fill="none" stroke="#64748b" stroke-width="1.35" d="M523.3,-224C507.84,-224 496,-224 496,-224 496,-224 496,-168.79 496,-168.79"/>
<polygon fill="#64748b" stroke="#64748b" stroke-width="1.35" points="498.63,-168.79 496,-161.29 493.38,-168.79 498.63,-168.79"/>
</g>
<!-- blocked -->
<g id="node17" class="node">
<title>blocked</title>
<polygon fill="#fff8e8" stroke="#f2c66d" stroke-width="1.2" points="1237,-151 681,-151 681,-115 1243,-115 1243,-145 1237,-151"/>
<polyline fill="none" stroke="#f2c66d" stroke-width="1.2" points="1237,-151 1237,-145 "/>
<polyline fill="none" stroke="#f2c66d" stroke-width="1.2" points="1243,-145 1237,-145 "/>
<text text-anchor="middle" x="962" y="-129.6" font-family="Noto Sans CJK SC" font-size="13.00" fill="#172033">未信任插件：仍可被发现与展示，但可执行组件保持 blocked，防止仓库代码直接在本机运行。</text>
</g>
<!-- executable&#45;&gt;blocked -->
<g id="edge17" class="edge">
<title>executable&#45;&gt;blocked</title>
<path fill="none" stroke="#64748b" stroke-width="1.35" stroke-dasharray="5,2" d="M664.66,-231C677.02,-231 686,-231 686,-231 686,-231 686,-179.82 686,-151.43"/>
</g>
<!-- env&#45;&gt;agent -->
<g id="edge13" class="edge">
<title>env&#45;&gt;agent</title>
<path fill="none" stroke="#64748b" stroke-width="1.35" d="M428.75,-104.86C428.75,-104.86 428.75,-63.72 428.75,-63.72"/>
<polygon fill="#64748b" stroke="#64748b" stroke-width="1.35" points="431.38,-63.72 428.75,-56.22 426.13,-63.72 431.38,-63.72"/>
</g>
<!-- source -->
<g id="node13" class="node">
<title>source</title>
<path fill="#f0eafe" stroke="#cbd5e1" stroke-width="1.2" d="M1116.5,-986C1116.5,-986 899.5,-986 899.5,-986 893.5,-986 887.5,-980 887.5,-974 887.5,-974 887.5,-956 887.5,-956 887.5,-950 893.5,-944 899.5,-944 899.5,-944 1116.5,-944 1116.5,-944 1122.5,-944 1128.5,-950 1128.5,-956 1128.5,-956 1128.5,-974 1128.5,-974 1128.5,-980 1122.5,-986 1116.5,-986"/>
<text text-anchor="middle" x="1008" y="-968.6" font-family="Noto Sans CJK SC" font-size="13.00" fill="#172033">Git / GitHub shorthand / Local path</text>
<text text-anchor="middle" x="1008" y="-954.6" font-family="Noto Sans CJK SC" font-size="13.00" fill="#172033">Marketplace source</text>
</g>
<!-- pin -->
<g id="node14" class="node">
<title>pin</title>
<path fill="#f0eafe" stroke="#cbd5e1" stroke-width="1.2" d="M1089.5,-895C1089.5,-895 920.5,-895 920.5,-895 914.5,-895 908.5,-889 908.5,-883 908.5,-883 908.5,-865 908.5,-865 908.5,-859 914.5,-853 920.5,-853 920.5,-853 1089.5,-853 1089.5,-853 1095.5,-853 1101.5,-859 1101.5,-865 1101.5,-865 1101.5,-883 1101.5,-883 1101.5,-889 1095.5,-895 1089.5,-895"/>
<text text-anchor="middle" x="1005" y="-877.6" font-family="Noto Sans CJK SC" font-size="13.00" fill="#172033">require_sha tighten&#45;only</text>
<text text-anchor="middle" x="1005" y="-863.6" font-family="Noto Sans CJK SC" font-size="13.00" fill="#172033">远程安装需完整 commit SHA</text>
</g>
<!-- source&#45;&gt;pin -->
<g id="edge14" class="edge">
<title>source&#45;&gt;pin</title>
<path fill="none" stroke="#64748b" stroke-width="1.35" d="M1005,-943.89C1005,-943.89 1005,-902.81 1005,-902.81"/>
<polygon fill="#64748b" stroke="#64748b" stroke-width="1.35" points="1007.63,-902.81 1005,-895.31 1002.38,-902.81 1007.63,-902.81"/>
</g>
<!-- install -->
<g id="node15" class="node">
<title>install</title>
<path fill="#f0eafe" stroke="#cbd5e1" stroke-width="1.2" d="M1077,-780C1077,-780 917,-780 917,-780 911,-780 905,-774 905,-768 905,-768 905,-750 905,-750 905,-744 911,-738 917,-738 917,-738 1077,-738 1077,-738 1083,-738 1089,-744 1089,-750 1089,-750 1089,-768 1089,-768 1089,-774 1083,-780 1077,-780"/>
<text text-anchor="middle" x="997" y="-762.6" font-family="Noto Sans CJK SC" font-size="13.00" fill="#172033">install / update / validate</text>
<text text-anchor="middle" x="997" y="-748.6" font-family="Noto Sans CJK SC" font-size="13.00" fill="#172033">同步 checkout + inventory</text>
</g>
<!-- pin&#45;&gt;install -->
<g id="edge15" class="edge">
<title>pin&#45;&gt;install</title>
<path fill="none" stroke="#64748b" stroke-width="1.35" d="M998.75,-852.91C998.75,-852.91 998.75,-787.85 998.75,-787.85"/>
<polygon fill="#64748b" stroke="#64748b" stroke-width="1.35" points="1001.38,-787.85 998.75,-780.35 996.13,-787.85 1001.38,-787.85"/>
</g>
<!-- install&#45;&gt;manifest -->
<g id="edge16" class="edge">
<title>install&#45;&gt;manifest</title>
<path fill="none" stroke="#64748b" stroke-width="1.35" d="M997,-737.75C997,-702.8 997,-637 997,-637 997,-637 586.21,-637 586.21,-637"/>
<polygon fill="#64748b" stroke="#64748b" stroke-width="1.35" points="586.21,-634.38 578.71,-637 586.21,-639.63 586.21,-634.38"/>
</g>
</g>
</svg>
